<svg width="1024" height="1024"
     xmlns="http://www.w3.org/2000/svg" version="1.1">
<style>path {fill-opacity:1; stroke:none;}</style>
<path d="M 0,0L 0,1024L 1024,1024L 1024,0ZM 102.8318,442.7417L 102.8925,439.5331L 103,438L 103.0879,436.1758L 103.3418,432.6836L 103.7539,429.5078L 104,428L 104.2344,426.4688L 104.4844,424.9688L 104.9902,422.0918L 105.5352,419.4102L 106.2012,416.748L 107,414L 107.7744,411.207L 108.6133,408.3848L 109.5327,405.5635L 110.5059,402.834L 111.0032,401.5435L 111.5017,400.2734L 112.5001,397.7761L 113.0001,396.5819L 114,394.2668L 114.5,393.1796L 115.5,391.0574L 116,390.0352L 117,388.0074L 117.5,387.0042L 118.502,385.0005L 119.5195,383L 120.5898,381L 121.7539,379L 123,377L 123.5703,376L 124.1611,375L 125.3828,373L 126.6729,371L 127.3364,370L 128.666,368L 129.333,367L 130.6743,365L 132.0493,363L 133.4927,361L 135,359L 136.4844,357L 137.2422,356L 138.7686,354L 140.3491,352L 142,350L 143.5776,348L 145.2444,346L 147,344L 147.8145,343L 148.6476,342L 149.5034,341L 151.2632,339L 153.1153,337L 155.0413,335L 157.0114,333L 159,331L 159.7739,330.0879L 161.3813,328.3418L 163.1074,326.7539L 164,326L 165,325L 166,324L 167,323L 168,322L 170,320.002L 172,318.0215L 174,316.1094L 176,314.3438L 178,312.7539L 179,312L 181,310.1074L 183,308.3438L 185,306.7539L 186,306L 187,305.0879L 189,303.3418L 191,301.7539L 192,301L 194,299.3223L 196,297.752L 197,297L 198,296.2344L 200,294.7344L 201,294L 202,293.1611L 204,291.5439L 206,290.0557L 208,288.6729L 209,288L 210,287.2344L 212,285.7344L 213,285L 215,283.4902L 217,282.0449L 218,281.3584L 220,280.002L 222,278.666L 223,278L 225,276.666L 226,276L 228,274.666L 229,274L 231,272.666L 232,272L 234,270.6753L 236,269.3848L 238,268.1616L 240,267L 242,265.6753L 244,264.3848L 246,263.1616L 248,262L 249,261.376L 251,260.1611L 253,259L 254,258.376L 256,257.1611L 258,256L 259,255.3872L 261,254.1938L 263,253.073L 265,252.019L 267,251L 268,250.3872L 270,249.1938L 271,248.6334L 273,247.5461L 275,246.5112L 277,245.5016L 278,245L 279,244.3872L 281,243.1938L 282,242.6334L 284,241.5461L 285,241.0287L 287,240.0065L 288,239.5037L 290,238.5005L 291,238.0003L 293,237L 294,236.5L 296,235.5L 297,235L 299,234L 301.0039,233L 303.0391,232L 305.1797,231L 307.5078,230L 310,229L 312,228L 314.0039,227L 316.0391,226L 318.1797,225L 320.5078,224L 323,223L 325.1758,222L 327.5078,221L 330,220L 332.1758,219L 334.5078,218L 337,217L 339.1758,216L 341.5078,215L 344,214L 346.4688,213L 349,212L 351.4688,211L 354,210L 356.5352,209.0078L 359.1133,208.0859L 361.6465,207.5117L 363.9648,207.8008L 365.8408,209.2188L 367.1289,211.4492L 367.5645,212.7246L 368.4297,215.4141L 368.8389,216.8184L 369.6172,219.5977L 370.3271,222.3184L 370.6626,223.6641L 371.2694,226.3318L 371.4326,227.6003L 371.4728,229.9836L 370.8672,232.0002L 369.5817,233.6057L 367.7354,234.884L 365.4828,235.9769L 363,237L 360.8242,238L 358.4922,239L 356,240L 354,241L 352,242L 350,243L 348,244L 346,245L 344,246L 342,247L 340,248L 338,249L 336,250L 334,251L 332,252L 330,253L 328,254L 326,255L 324,256L 323,256.6128L 321,257.8062L 319,258.927L 317,259.981L 315,261L 314,261.624L 312,262.8389L 310,264L 309,264.624L 307,265.8389L 305,267L 303,268.3247L 301,269.6152L 299,270.8384L 297,272L 295,273.334L 294,274L 292,275.334L 291,276L 289,277.5098L 287,278.9551L 285,280.3281L 284,281L 283,281.7656L 281,283.2656L 280,284L 279,284.7656L 277,286.2656L 276,287L 275,287.7656L 273,289.2656L 272,290L 271,290.9121L 269,292.6582L 267,294.2461L 266,295L 265,295.998L 263,297.9785L 261,299.8906L 259,301.6563L 257,303.2461L 256,304L 255,305L 254,306L 253,307L 252,308L 251,309L 250,310L 249,311L 247.3928,313L 245.6992,315L 243.8889,317L 242,319L 241.2314,320L 239.6509,322L 238,324L 237.334,325L 236,327L 235.334,328L 234,330L 233.334,331L 232,333L 231.4297,334L 230.248,336L 229,338L 228,340L 227,342L 226,344L 225.5,345.2656L 224.5,347.7656L 224,349L 223,352L 222,355L 221.334,357.668L 221,359L 220.7656,360.5313L 220.2656,363.5313L 220,365L 220,377L 220.2656,378.4688L 220.7656,381.4688L 221,383L 221.334,384.332L 222,387L 223,390L 224,392.4688L 225,395L 225.624,396L 226.8389,398L 228,400L 229.334,402L 230,403L 230.7656,404L 232.2656,406L 233,407L 234,408L 235,409L 236,410L 237,411L 238,412L 239,413L 240,414L 241,414.7686L 243,416.3491L 245,418L 247,419.4844L 249,421L 250,421.5703L 252,422.752L 254,424L 256,425L 258,426L 260,427L 262,428L 264,429L 266,430L 268,431L 270,432L 271.2656,432.5L 273.7656,433.5L 275,434L 278,435L 281,436L 284,437L 287,438L 290,439L 292.668,439.666L 294,440L 296.668,440.666L 298,441L 300.668,441.666L 302,442L 304.668,442.666L 306,443L 307.2656,443.2344L 309.7656,443.7344L 311,444L 312.2656,444.2344L 314.7656,444.7344L 316,445L 317.5313,445.2344L 320.5313,445.7344L 322,446L 324.8594,446.3223L 327.6367,446.752L 329,447L 331.8594,447.3223L 334.6367,447.752L 336,448L 341,448L 341.3223,444.6445L 341.752,441.5039L 342,440L 342.3223,437.1406L 342.752,434.3633L 343,433L 343.3223,430.1406L 343.752,427.3633L 344,426L 344.2344,424.4688L 344.7344,421.4688L 345,420L 345.2344,418.4688L 345.7344,415.4688L 346,414L 346.2344,412.4688L 346.7344,409.4688L 347.2344,406.7344L 347.7344,404.2344L 348,403L 348.2344,401.7344L 348.7344,399.2344L 349,398L 349.2344,396.7344L 349.7344,394.2344L 350,393L 350.2344,391.7344L 350.7344,389.2344L 351,388L 351.4902,385.4688L 352.0449,382.918L 352.6719,380.3164L 353,379L 353.4902,376.4688L 354.0449,373.918L 354.6719,371.3164L 355,370L 355.666,367.332L 356,366L 356.6729,363.3184L 357.3828,360.5977L 358.1611,357.8184L 359,355L 359.6729,352.3184L 360.3828,349.5977L 361.1611,346.8184L 362,344L 362.3872,342.6025L 363.1938,339.7842L 363.6334,338.3464L 364.5461,335.4404L 365.0287,333.9619L 366.0065,330.9902L 366.5037,329.4943L 367.5005,326.4991L 368.0003,324.9995L 369,322L 369.5,320.5L 370.5,317.502L 371.5,314.5215L 372.5,311.6094L 373.5,308.8438L 374.5,306.2539L 375,305L 375.5,303.7344L 376.5,301.2344L 377,300L 377.5,298.7344L 378.5,296.2344L 379,295L 379.5,293.7344L 380.5,291.2344L 381.5,288.7744L 382.5,286.3877L 383.5,284.1455L 384.5,282.0322L 385,281L 385.5,279.7744L 386,278.5811L 387,276.2668L 387.5,275.1796L 388.5,273.0574L 389,272.0352L 390,270.0074L 390.5,269.0042L 391.5,267.0005L 392,266.0003L 393,264L 393.5,263L 394.5,261L 395.502,259L 396.5195,257L 397.5898,255L 398.7539,253L 400,251L 400.5176,250L 401.5898,248L 402.7539,246L 404,244L 404.5703,243L 405.1611,242L 406.3828,240L 407.6729,238L 409,236L 409.5815,235L 410.7827,233L 412.0815,231L 413.4985,229L 415,227L 415.6743,226L 417.0493,224L 418.4927,222L 420,220L 421.4844,218L 423.0042,216L 424.5776,214L 426.2444,212L 428,210L 429.6072,208L 431.3008,206L 433.1111,204L 435,202L 436.6291,200.002L 438.3323,198.0215L 440.1434,196.1094L 442.0488,194.3438L 444.0104,192.7539L 445,192L 446,191.0195L 448,189.1094L 450,187.3438L 452,185.7539L 453,185L 454,184.2344L 456,182.7344L 457,182L 459,180.4902L 461,179.0449L 462,178.3584L 463,177.6802L 464,177.0076L 465,176.3417L 467,175.0308L 468,174.4049L 470,173.1963L 471,172.6347L 473,171.5462L 474,171.0287L 476.0039,170.0065L 478.0391,169.0009L 480.1797,168.0001L 482.5078,167L 483.7539,166.5L 486.2266,165.5176L 488.7266,164.5898L 491.3262,163.7539L 494,163L 495.3906,162.5781L 498.1055,161.8242L 500.7148,161.2461L 503.4688,160.7344L 506.4688,160.2344L 508,160L 509.5078,159.7539L 512.6563,159.3438L 516.0273,159.1113L 519.5,159.043L 522.9727,159.1113L 526.3438,159.3438L 529.4922,159.7539L 531,160L 532.5313,160.2344L 535.5313,160.7344L 536.8984,160.9844L 538.2168,161.2383L 539.5205,161.5083L 542.1387,162.0957L 544.8115,162.7944L 547.5322,163.6152L 550.2021,164.5327L 551.4785,165.019L 552.7395,165.5109L 555.2258,166.5013L 556.4191,167.0007L 558.7332,168L 559.8204,168.5L 561.9426,169.502L 563.9871,170.5195L 565.9982,171.5898L 567.9999,172.7539L 570,174L 571,174.5815L 573,175.7827L 575,177.0815L 577,178.4985L 579,180L 581,181.4844L 582,182.2422L 584,183.7686L 586,185.3491L 588,187L 589,187.8145L 590,188.6476L 591,189.5034L 592,190.3833L 593,191.2863L 594,192.21L 595,193.1516L 596,194.1078L 597.998,196.0433L 599.9785,198.0146L 601.8906,200.0041L 603.6563,202.0009L 605.2461,204.0001L 606,205L 607.8926,207L 609.6563,209L 611.2461,211L 612,212L 613.6777,214L 615.248,216L 616,217L 617.5098,219L 618.9551,221L 620.3281,223L 621,224L 622.5098,226L 623.2324,227L 623.9365,228L 625.3105,230L 626.6138,232L 627.8384,234L 629,236L 630.3247,238L 631.6152,240L 632.8384,242L 634,244L 634.6128,245L 635.8062,247L 636.3666,248L 637.4539,250L 638.4888,252L 639.4984,254L 640,255L 640.6128,256L 641.8062,258L 642.3666,259L 643.4539,261L 643.9713,262L 644.9935,264L 645.9854,266.0059L 646.8671,268.0391L 647.3867,270.0938L 647.1357,271.2588L 646.5957,272.2861L 645.8328,273.1233L 643.9666,274.4675L 641.5923,275.3228L 640.2961,275.6614L 638.9821,275.9977L 636.3633,276.6543L 633.7949,277.2529L 631.2656,277.7656L 630,278L 628.668,278.334L 627.334,278.667L 626.0137,278.9863L 624.7075,279.2722L 623.4202,279.4979L 622.1573,279.6354L 620.9239,279.661L 618.5214,279.4566L 616.2499,278.7161L 614.0977,277.4602L 612.0288,275.8256L 610,274L 609,273.334L 607,272L 605,271L 603,270L 601,269L 598,268L 580,268L 578.668,268.334L 576,269L 574,270L 572,271L 570,272L 568,273L 567,273.7656L 565,275.2656L 564,276L 563,277L 562,278L 561,279L 560,280L 559,281L 558,282L 557,283L 556,284L 555,285L 554.2314,286L 552.6509,288L 551,290L 550.3257,291L 548.9507,293L 547.5073,295L 546,297L 545.4297,298L 544.248,300L 543,302L 542.4297,303L 541.248,305L 540,307L 539,309L 538,311L 537,313L 536,315L 535,317L 534,319L 533,321L 532,323L 531.5,324.2256L 530.5,326.6123L 529.5,328.8545L 528.5,330.9678L 528,332L 527.5,333.2656L 526.5,335.7656L 526,337L 525.5,338.2656L 524.5,340.7656L 524,342L 523.5,343.498L 522.5,346.4785L 521.5,349.3906L 520.5,352.1563L 519.5,354.7461L 519,356L 518,359L 517,362L 516.2256,364.7949L 515.3872,367.6357L 514.4731,370.5361L 514,372L 513.624,373.3887L 512.8389,376.1816L 512,379L 511.3271,381.6816L 510.6172,384.4023L 509.8389,387.1816L 509,390L 508.5098,392.5313L 507.9551,395.082L 507.3281,397.6836L 507,399L 506.334,401.668L 506,403L 505.334,405.668L 505,407L 504.7656,408.2656L 504.2656,410.7656L 504,412L 503.7656,413.2656L 503.2656,415.7656L 503,417L 502.7656,418.2656L 502.2656,420.7656L 502,422L 501.7656,423.2656L 501.2656,425.7656L 501,427L 500.7656,428.5313L 500.2656,431.5313L 500,433L 499.7656,434.5313L 499.2656,437.5313L 499,439L 499,440L 503,440L 505.6367,439.3457L 508.2051,438.7471L 510.7344,438.2344L 512,438L 513.332,437.666L 516,437L 517.332,436.666L 520,436L 521.332,435.666L 524,435L 525.332,434.666L 528,434L 529.332,433.666L 532,433L 533.332,432.666L 536,432L 537.332,431.666L 540,431L 541.4141,430.5703L 544.2227,429.752L 547,429L 548.4141,428.5703L 551.2227,427.752L 554,427L 555.4961,426.502L 558.4688,425.5195L 561.3828,424.5898L 564.2188,423.7539L 567,423L 570,422L 573,421L 576,420L 579,419L 582,418L 585,417L 587.5488,416L 590.2266,415L 593.0645,414L 596,413L 597.2539,412.5L 599.8418,411.5L 602.5879,410.5L 604,410L 606.4688,409L 609,408L 611.4688,407L 614,406L 616.4688,405L 619,404L 621.1758,403L 623.5078,402L 626,401L 628.1758,400L 630.5078,399L 633,398L 635.0039,397L 637.0391,396L 639.1797,395L 641.5078,394L 644,393L 646,392L 648,391L 650,390L 652,389L 654,388L 656,387L 658,386L 660,385L 662,384L 664,383L 666,382L 668,381L 669,380.3872L 671,379.1938L 673,378.073L 675,377.019L 677,376L 679,374.7744L 681,373.6128L 683,372.5269L 684,372L 685,371.376L 687,370.1611L 689,369L 690,368.376L 692,367.1611L 694,366L 696,364.666L 697,364L 699,362.666L 700,362L 702,360.666L 703,360L 705,358.666L 706,358L 708,356.666L 709,356L 711,354.666L 712,354L 714,352.4902L 716,351.0449L 718,349.6719L 719,349L 721,347.3223L 723,345.752L 724,345L 726,343.3223L 728,341.752L 729,341L 730,340.0879L 732,338.3418L 734,336.7539L 735,336L 736,335L 737,334L 738,333L 739,332L 740,331L 741,330L 742,329L 743,328L 744,327L 745,326L 746,325L 747,324L 748,323L 749,322L 750,321L 751,320L 752,319L 753,318L 753.7686,317L 755.3491,315L 757,313L 758.4844,311L 760,309L 761.4844,307L 763,305L 763.5703,304L 764.752,302L 766,300L 767,298L 768,296L 769,294L 770,292L 771,290L 772,288L 773,285L 774,282L 774.666,279.332L 775,278L 775.3223,275.1406L 775.752,272.3633L 776,271L 776,258L 775.7344,256.5313L 775.2344,253.5313L 775,252L 774,249L 773,246L 772,243L 771,241L 770,239L 768.666,237L 768,236L 766.666,234L 766,233L 765,232L 764,231L 763,230L 762,229L 761,228L 760,227L 759,226L 758,225L 757,224L 756,223L 754,221.5156L 752,220L 751,219.334L 749,218L 748,217.334L 746,216L 744,215L 742,214L 740,213L 738,212L 736,211L 734.7344,210.5L 732.2344,209.5L 731,209L 729.7344,208.5L 727.2344,207.5L 726,207L 723,206L 720,205L 718.6113,204.624L 715.8184,203.8389L 713,203L 710.332,202.334L 709,202L 706.332,201.334L 705,201L 703.7441,200.7188L 701.2988,200.0342L 699.082,199.001L 697.2783,197.4609L 696.623,196.4302L 695.4692,194.1406L 694.5029,191.4683L 693.5898,188.6172L 692.7539,185.7813L 692,183L 691.5703,181.5859L 690.752,178.7773L 690,176L 689.5176,174.5273L 688.5898,171.6172L 687.7539,168.7813L 687,166L 686.6104,164.6167L 686.3296,163.2947L 686.2944,161.9731L 686.8281,159.553L 688.6091,157.9017L 691.4653,157.2244L 694.8853,157.1418L 698.3228,157.3459L 701.4922,157.7539L 703,158L 704.8242,158.0879L 708.3164,158.3418L 711.4922,158.7539L 713,159L 714.5508,159.0879L 717.6055,159.3418L 720.5547,159.7539L 722,160L 724.8594,160.3223L 727.6367,160.752L 729,161L 731.8594,161.3223L 734.6367,161.752L 736,162L 738.8594,162.3223L 741.6367,162.752L 743,163L 744.5313,163.2344L 747.5313,163.7344L 750.2656,164.2344L 752.7656,164.7344L 754,165L 755.5313,165.2344L 758.5313,165.7344L 759.8984,165.9844L 762.5313,166.4902L 765.082,167.0449L 767.6836,167.6719L 769,168L 771.5313,168.4902L 774.082,169.0449L 776.6836,169.6719L 778,170L 780.668,170.666L 782,171L 784.6816,171.6729L 787.4023,172.3828L 790.1816,173.1611L 793,174L 795.7949,174.7744L 798.6357,175.6128L 801.5361,176.5269L 803,177L 804.248,177.376L 806.6777,178.1611L 809,179L 810.498,179.5L 813.4785,180.5L 816.3906,181.5L 819.1563,182.5L 821.7461,183.5L 823,184L 824.2656,184.5L 826.7656,185.5L 828,186L 830.4521,187L 832.7852,188L 835,189L 836.2256,189.5L 837.4189,190L 839.7332,191L 840.8204,191.5L 842.9426,192.5L 843.9648,193L 845.9926,194L 846.9958,194.5L 848.9995,195.502L 851,196.5195L 853,197.5898L 855,198.7539L 857,200L 858,200.5703L 860,201.752L 862,203L 863,203.5703L 864,204.1611L 865,204.772L 866,205.4004L 868,206.6904L 870,208.051L 872,209.4927L 874,211L 876,212.4844L 877,213.2422L 879,214.7686L 881,216.3491L 883,218L 884,218.8145L 885,219.6476L 886,220.5034L 887,221.3833L 888,222.2863L 889,223.21L 890.998,225.0931L 892.9785,227.0347L 894.8906,229.0106L 896.6563,231.0026L 898.2461,233.0004L 899,234L 899.8389,235L 901.4561,237L 902.9443,239L 903.6357,240L 904.3167,241L 904.9907,242L 906.3241,244L 907.6152,246L 908.8384,248L 910,250L 910.623,251.0352L 911.8281,253.1797L 912.9463,255.5078L 913.4731,256.7539L 913.9866,258.0039L 914.4933,259.2764L 915.498,261.8838L 916.4805,264.6147L 917.4102,267.4214L 917.8281,268.8232L 918.6025,271.5718L 919.2451,274.1936L 919.7656,276.7344L 920.2461,279.5078L 920.6582,282.6836L 920.9121,286.1758L 921,288L 921.2266,289.4688L 921.5469,292.4688L 921.5469,295.5313L 921.2266,298.5313L 921,300L 920.9121,301.5508L 920.6582,304.6055L 920.2461,307.5547L 920,309L 919.5098,312.0195L 918.9551,314.9102L 918.6382,316.29L 917.9688,319.0371L 917.5955,320.4194L 917.2,321.8193L 916.3657,324.6533L 915.4539,327.5381L 914.4888,330.4072L 913.4983,333.1592L 912.9991,334.4528L 912.4995,335.7245L 911.5,338.2237L 911,339.418L 910,341.7332L 909.5,342.8204L 908.5,344.9426L 908,345.9648L 907,347.9926L 906.5,348.9958L 905.498,350.9995L 904.4805,353L 903.4102,355L 902.2461,357L 901,359L 900.4297,360L 899.8389,361L 898.6172,363L 897.3271,365L 896.6636,366L 895.334,368L 894.667,369L 893.3257,371L 891.9507,373L 890.5073,375L 889.7537,376L 888.2314,378L 886.6509,380L 885,382L 884.2314,383L 882.6509,385L 881,387L 880.2096,388L 878.5779,390L 876.8334,392L 875,394L 874.1855,395L 873.3524,396L 872.4966,397L 871.6167,398L 870.7137,399L 869.79,400L 868.8484,401L 867.8922,402L 866.9245,403L 865.9478,404L 864.9643,405L 863.9759,406L 862.9839,407L 861.9893,408L 860.993,409L 859.9954,410L 857.9987,411.998L 855.9997,413.9785L 853.9999,415.8906L 852,417.6563L 850,419.2461L 849,420L 847,421.8926L 845,423.6563L 843,425.2461L 842,426L 841,426.9121L 839,428.6582L 837,430.2461L 836,431L 835,431.9121L 833,433.6582L 831,435.2461L 830,436L 828,437.6777L 826,439.248L 825,440L 824,440.7656L 822,442.2656L 821,443L 820,443.7656L 818,445.2656L 817,446L 815,447.5098L 813,448.9551L 811,450.3281L 810,451L 808,452.5098L 806,453.9551L 805,454.6416L 803,455.998L 801,457.334L 800,458L 798,459.334L 797,460L 795,461.334L 794,462L 792,463.3247L 790,464.6152L 788,465.8384L 786,467L 784,468.3247L 782,469.6152L 780,470.8384L 778,472L 777,472.624L 775,473.8389L 773,475L 771,476.2256L 769,477.3872L 767,478.4731L 766,479L 765,479.6128L 763,480.8062L 761,481.927L 759,482.981L 757,484L 756,484.6128L 754,485.8062L 753,486.3666L 751,487.4539L 749,488.4888L 747,489.4984L 746,490L 745,490.6128L 743,491.8062L 742,492.3666L 740,493.4539L 739,493.9713L 737,494.9935L 736,495.4963L 734,496.4995L 733,496.9997L 731,498L 730,498.5L 729,499L 726.9961,500L 724.9609,501L 722.8203,502L 720.4922,503L 718,504L 716,505L 713.9961,506L 711.9609,507L 709.8203,508L 707.4922,509L 705,510L 702.9609,511L 700.8203,512L 698.4922,513L 696,514L 693.8242,515L 691.4922,516L 689,517L 686.5313,518L 684,519L 681.8242,520L 679.4922,521L 678.2461,521.5L 675.7461,522.5L 673.1582,523.5L 670.4121,524.5L 669,525L 666.5313,526L 664,527L 662.7461,527.5L 660.1582,528.5L 657.4121,529.5L 656,530L 653.4512,531L 652.1123,531.5L 649.354,532.5L 647.9077,533L 644.9775,534L 641.9966,535L 639,536L 637.8594,536.4297L 635.4961,537.248L 633,538L 630,539L 627,540L 625.5,540.5L 622.5039,541.498L 619.5313,542.4805L 616.6172,543.4102L 613.7813,544.2461L 611,545L 609.5273,545.4824L 606.6172,546.4102L 603.7813,547.2461L 601,548L 599.5859,548.4297L 596.7773,549.248L 594,550L 592.5859,550.4297L 591.1816,550.8389L 588.4023,551.6172L 585.6816,552.3271L 583,553L 581.5859,553.4297L 580.1816,553.8389L 577.4023,554.6172L 574.6816,555.3271L 573.3408,555.6636L 572.0044,555.9988L 569.3633,556.6543L 566.7949,557.2529L 564.2656,557.7656L 563,558L 561.668,558.334L 559,559L 556.3633,559.6543L 553.7949,560.2529L 551.2656,560.7656L 550,561L 548.668,561.334L 546,562L 543.3633,562.6543L 540.7949,563.2529L 538.2656,563.7656L 537,564L 535.7656,564.2656L 533.2656,564.7656L 532,565L 530.7656,565.2656L 528.2656,565.7656L 525.5313,566.2656L 522.5313,566.7656L 521,567L 519.668,567.334L 517,568L 515.5859,568.4297L 512.7773,569.248L 510,570L 507.1816,570.8369L 504.3789,571.5957L 501.5449,572.2178L 498.6055,572.6563L 495.5508,572.9121L 494,573L 494,582L 494.2461,583.5078L 494.6563,586.6875L 494.8906,590.2188L 494.9785,594.043L 495,598L 495.2461,599.5078L 495.6563,602.6563L 495.8906,606L 495.9805,609.3516L 496,611L 496.2461,612.5078L 496.6582,615.6836L 496.9121,619.1758L 497,621L 497.2461,622.4453L 497.6582,625.3945L 497.9121,628.4492L 498,630L 498.2461,631.4453L 498.6582,634.3945L 498.9121,637.4492L 499,639L 499.248,640.3633L 499.6777,643.1406L 500,646L 500.248,647.3633L 500.6777,650.1406L 501,653L 501.2656,654.4688L 501.7656,657.4688L 502,659L 502.2656,660.4688L 502.7656,663.4688L 503,665L 503.2656,666.4688L 503.7656,669.4688L 504,671L 504.2656,672.2344L 504.7656,674.7344L 505,676L 505.2656,677.2344L 505.7656,679.7344L 506,681L 506.2656,682.2344L 506.7656,684.7344L 507,686L 507.2656,687.2344L 507.7656,689.7344L 508,691L 508.334,692.332L 509,695L 509.334,696.332L 510,699L 510.334,700.332L 511,703L 511.334,704.332L 512,707L 512.334,708.332L 513,711L 513.4297,712.4141L 514.248,715.2227L 515,718L 515.4297,719.4141L 516.248,722.2227L 517,725L 518,728L 519,731L 520,734L 520.5,735.2539L 521.5,737.8418L 522.5,740.5879L 523,742L 524,744.4688L 525,747L 526,749.4688L 527,752L 528,754L 529,756L 530,758L 531,760L 532,762L 533,764L 534,766L 535,768L 535.624,769L 536.8389,771L 538,773L 539.334,775L 540,776L 540.7656,777L 542.2656,779L 543,780L 543.7656,781L 545.2656,783L 546,784L 547,785L 548,786L 549,787L 550,788L 551,789L 552,790L 553,791L 554,791.666L 556,793L 557,793.666L 559,795L 561,796L 563,797L 566,798L 567.2656,798.2344L 569.7656,798.7344L 571,799L 576,799L 577.2344,798.7344L 579.7344,798.2344L 581,798L 583.4688,797L 586,796L 588,794.666L 589,794L 591,792.666L 592,792L 593,791L 594,790L 595,789L 596,788L 597,787L 598,786L 599,785L 600,784L 600.7686,783L 602.3491,781L 604,779L 604.666,778L 606,776L 606.666,775L 608,773L 608.5176,772L 609.5898,770L 610.7539,768L 612,766L 613,764L 614,762L 615,760L 616,758L 617,756L 618,753.5479L 619,751.2148L 620,749L 620.5,747.7344L 621.5,745.2344L 622,744L 622.5,742.7344L 623.5,740.2344L 624,739L 625,736L 626,733L 627,730L 628,727L 629,724L 630,721L 630.376,719.6113L 631.1611,716.8184L 632,714L 632.666,711.332L 633,710L 633.666,707.332L 634,706L 634.666,703.332L 635,702L 635.666,699.332L 636,698L 636.666,695.332L 637,694L 637.666,691.332L 638,690L 638.2344,688.7344L 638.7344,686.2344L 639,685L 639.2344,683.7344L 639.7344,681.2344L 640,680L 640.2344,678.7344L 640.7344,676.2344L 641,675L 641.2344,673.7344L 641.7344,671.2344L 642,670L 642.2344,668.4688L 642.7344,665.4688L 643,664L 643.2344,662.4688L 643.7344,659.4688L 644,658L 644.5176,655.0078L 645.2148,652.2598L 645.7598,651.1182L 647.1377,649.126L 649.0977,647.6709L 651.542,646.6045L 652.8901,646.1787L 655.6055,645.3833L 658.3184,644.6729L 661,644L 662.4141,643.5703L 665.2227,642.752L 668,642L 669.4141,641.5703L 670.8184,641.1611L 673.5977,640.3828L 676.3184,639.6729L 677.6592,639.3364L 680.332,638.666L 683,638L 684.4141,637.5703L 685.8184,637.1611L 688.5977,636.3828L 689.958,636.0278L 692.6553,635.3618L 695.252,634.9268L 696.582,635.1602L 697.6743,635.6663L 699.2661,637.1614L 699.79,639.522L 699.6553,642.4429L 699.248,645.4961L 699,647L 698.7656,648.5313L 698.2656,651.5313L 698,653L 697.6777,655.8594L 697.248,658.6367L 697,660L 696.7656,661.5313L 696.2656,664.5313L 695.7656,667.2656L 695.2656,669.7656L 695,671L 694.7656,672.5313L 694.2656,675.5313L 693.7656,678.2656L 693.2656,680.7656L 693,682L 692.7656,683.2656L 692.2656,685.7656L 692,687L 691.7656,688.2656L 691.2656,690.7656L 691,692L 690.5098,694.5313L 689.9551,697.082L 689.3281,699.6836L 689,701L 688.5098,703.5313L 687.9551,706.082L 687.3281,708.6836L 687,710L 686.334,712.668L 686,714L 685.3271,716.6816L 684.6172,719.4023L 683.8389,722.1816L 683,725L 682.6636,726.3408L 681.9717,729.043L 681.2222,731.8018L 680.3872,734.6357L 679.4731,737.5361L 679,739L 678.6128,740.3975L 677.8062,743.2158L 677.3666,744.6536L 676.4539,747.5596L 675.9713,749.0381L 674.9935,752.0098L 674.4963,753.5057L 673.4995,756.5009L 672.9997,758.0005L 672.4999,759.5002L 671.5,762.4981L 670.5,765.4785L 669.5,768.3906L 668.5,771.1563L 667.5,773.7461L 667,775L 666.5,776.2656L 665.5,778.7656L 665,780L 664,782.7734L 663,785.3867L 662,787.7734L 661,790L 660,792.4521L 659,794.7852L 658,797L 657.5,798.2256L 657,799.4189L 656,801.7332L 655.5,802.8204L 654.5,804.9426L 654,805.9648L 653,807.9926L 652.5,808.9958L 651.5,810.9995L 651,811.9997L 650,814L 649.5,815L 648.5,817L 648,818L 647,820L 646.5,821L 645.498,823L 644.4805,825L 643.4102,827L 642.2461,829L 641,831L 640.4297,832L 639.248,834L 638,836L 637.4297,837L 636.248,839L 635,841L 634.4297,842L 633.8389,843L 632.6172,845L 631.3271,847L 630.6636,848L 629.3257,850L 627.9507,852L 626.5073,854L 625,856L 623.6357,858L 622.2002,860L 620.6475,862L 619,864L 618.2314,865L 616.6509,867L 615,869L 614.2096,870L 612.5779,872L 610.8334,874L 609,876L 608.1855,877L 607.3524,878L 606.4966,879L 605.6167,880L 603.8108,881.998L 601.9216,883.9785L 599.9734,885.8906L 597.9928,887.6563L 595.9987,889.2461L 595,890L 593,891.8926L 591,893.6563L 589,895.2461L 588,896L 587,896.7656L 585,898.2656L 584,899L 582,900.5098L 581,901.2324L 580,901.9365L 579,902.6235L 577,903.9617L 575,905.2202L 573,906.387L 571,907.4731L 570,908L 568.9961,908.6128L 566.9609,909.8062L 564.8203,910.927L 562.4922,911.981L 560,913L 557.5313,914L 556.2656,914.5L 553.8594,915.4297L 551.4961,916.248L 549,917L 546.1816,917.8369L 543.375,918.5977L 540.5176,919.2393L 537.5313,919.7637L 536,920L 534.4922,920.2461L 531.3164,920.6582L 527.8242,920.9121L 526,921L 524.668,921.1582L 522,921.3164L 519.332,921.1582L 518,921L 516.1758,920.9121L 512.6836,920.6582L 511.0957,920.4521L 509.6045,920.2329L 506.791,919.7725L 504.2344,919.2656L 503,919L 501.7051,918.7324L 499.0742,918.1289L 496.334,917.3711L 494.9067,916.9214L 492.043,915.9844L 489.2358,914.9985L 486.6143,914L 484.2266,913L 483.1133,912.5L 480.752,911.4297L 478.3223,910.248L 476,909L 475,908.4824L 473,907.4102L 471,906.2461L 469,905L 468,904.4185L 466,903.2173L 464,901.9185L 462,900.5015L 460,899L 459,898.2578L 457,896.7556L 455,895.2074L 453,893.5779L 451,891.8334L 449,890L 448,889.1855L 447,888.3524L 446,887.4966L 445,886.6167L 444,885.7137L 442.002,883.8662L 440.0215,881.9475L 438.1094,879.9831L 436.3438,877.9957L 434.7539,875.9993L 434,875L 432.1074,873L 430.3438,871L 428.7539,869L 428,868L 426.3223,866L 424.752,864L 424,863L 423.2344,862L 421.7344,860L 421,859L 419.4902,857L 418.0449,855L 417.3584,854L 416.002,852L 414.666,850L 414,849L 412.666,847L 412,846L 410.6753,844L 409.3848,842L 408.1616,840L 407,838L 406.376,837L 405.1611,835L 404,833L 403.3872,832L 402.1938,830L 401.073,828L 400.019,826L 399,824L 398.3872,823L 397.1938,821L 396.6334,820L 395.5461,818L 395.0287,817L 394.0065,814.9961L 393.0009,812.9609L 392.0001,810.8203L 391,808.4922L 390,806L 389,803.9961L 388,801.9609L 387,799.8203L 386,797.4922L 385,795L 384,792.8242L 383,790.4922L 382,788L 381,785.5313L 380,783L 379,780.5313L 378,778L 377.5,776.7461L 376.5,774.1582L 375.5,771.4121L 375,770L 374,767.4512L 373.5,766.1123L 372.5,763.354L 372,761.9077L 371,758.9775L 370.5,757.4871L 369.5,754.4982L 368.502,751.5038L 367.5195,748.5313L 366.5898,745.6172L 365.7539,742.7813L 365,740L 364.5703,738.5859L 363.752,735.7773L 363,733L 362.5703,731.5859L 362.1611,730.1816L 361.3828,727.4023L 360.6729,724.6816L 360,722L 359.5703,720.5859L 359.1611,719.1816L 358.3828,716.4023L 358.0278,715.042L 357.3491,712.3701L 356.7471,709.7949L 356.2344,707.2656L 356,706L 355.666,704.668L 355,702L 354.3457,699.3633L 353.7471,696.7949L 353.2344,694.2656L 353,693L 352.7344,691.7656L 352.2344,689.2656L 352,688L 351.7344,686.7656L 351.2344,684.2656L 351,683L 350.7344,681.7656L 350.2344,679.2656L 350,678L 349.7344,676.7656L 349.2344,674.2656L 348.7344,671.5313L 348.2344,668.5313L 348,667L 347.7344,665.5313L 347.2344,662.5313L 347,661L 346.7344,659.5313L 346.2344,656.5313L 346,655L 345.752,653.6367L 345.3223,650.8594L 345,648L 344.752,646.6367L 344.3223,643.8594L 344,641L 343.752,639.4961L 343.3223,636.3555L 343,633L 342.7539,631.5547L 342.3418,628.6055L 342.0879,625.5508L 342,624L 341.7539,622.5547L 341.3418,619.6055L 341.0879,616.5508L 341,615L 340.7539,613.5078L 340.3438,610.4375L 340.1074,607.2383L 340,604L 339.7539,602.4922L 339.3438,599.3125L 339.1094,595.7813L 339.0195,591.9609L 339,590L 338.7539,588.5547L 338.3418,585.6055L 338.0879,582.5508L 338,581L 336.4492,580.9121L 333.3945,580.6582L 330.4453,580.2461L 329,580L 327.3516,579.9805L 324,579.8906L 320.6563,579.6563L 317.5078,579.2461L 316,579L 314.4492,578.9121L 311.3945,578.6582L 308.4453,578.2461L 307,578L 305.4492,577.9121L 302.3945,577.6582L 299.4453,577.2461L 298,577L 294.6445,576.6777L 291.5039,576.248L 290,576L 288.4688,575.7656L 285.4688,575.2656L 284,575L 281.1406,574.6777L 278.3633,574.248L 277,574L 275.4688,573.7656L 272.4688,573.2656L 269.7344,572.7656L 267.2344,572.2656L 266,572L 264.7344,571.7656L 262.2344,571.2656L 261,571L 258.4688,570.5098L 255.918,569.9551L 253.3164,569.3281L 252,569L 249.4688,568.5098L 246.918,567.9551L 244.3027,567.3213L 241.5977,566.6172L 238.8184,565.8389L 236,565L 234.6592,564.6636L 231.957,563.9717L 230.5776,563.5969L 227.7808,562.8044L 226.3447,562.3657L 223.4404,561.4539L 221.9619,560.9713L 218.9902,559.9935L 217.4943,559.4963L 214.5011,558.4995L 211.5214,557.5L 208.6094,556.5L 205.8438,555.5L 203.2539,554.5L 202,554L 200.7344,553.5L 198.2344,552.5L 197,552L 194.5479,551L 192.2148,550L 190,549L 188.7744,548.5L 187.5811,548L 185.2668,547L 184.1796,546.5L 182.0574,545.5L 181.0352,545L 180.0213,544.5L 178.0042,543.498L 176.0005,542.4805L 174,541.4102L 172,540.2461L 170,539L 169,538.4824L 167,537.4102L 166,536.8281L 164,535.6162L 162,534.3271L 160,533L 159,532.4185L 157,531.2173L 155,529.9185L 153,528.5015L 151,527L 149,525.5156L 147,523.9958L 145,522.4224L 143,520.7556L 141,519L 140,518.1855L 139,517.3524L 138,516.4966L 137,515.6167L 135.002,513.8108L 133.0215,511.9216L 131.1094,509.9734L 129.3438,507.9928L 127.7539,505.9987L 127,505L 126.0879,504L 125.2148,503L 123.5547,501L 122.0566,499L 121.3647,498L 120.6836,497L 120.0094,496L 118.6759,494L 117.3848,492L 116.1616,490L 115,488L 114.3872,486.9961L 113.1938,484.9609L 112.073,482.8203L 111.019,480.4922L 110.5095,479.2461L 110.0048,477.9961L 109,475.4512L 108.5,474.1123L 107.5117,471.3735L 106.5898,468.5903L 105.8242,465.8882L 105.2461,463.2847L 105,462L 104.7344,460.7656L 104.2344,458.2656L 103.7539,455.5078L 103.3438,452.4375L 103.1074,449.2383L 103,446L 102.8843,442.4172Z" style="fill:rgb(254,254,254);"/>
<path d="M 141,520.5776L 143,522.2444L 145,524L 147,525.4844L 149,527L 151,528.4844L 153,530L 154,530.666L 156,532L 157,532.5703L 158,533.1611L 160,534.3828L 162,535.6729L 164,537L 165,537.5176L 167,538.5898L 169,539.7539L 171,541L 173,542L 175,543L 177,544L 179,545L 181,546L 183,547L 185,548L 187,549L 189.4521,550L 191.7852,551L 194,552L 195.2656,552.5L 197.7656,553.5L 199,554L 200.2656,554.5L 202.7656,555.5L 204,556L 207,557L 210,558L 213,559L 216,560L 219,561L 222,562L 225,563L 228,564L 230.6816,564.6729L 233.4023,565.3828L 236.1816,566.1611L 239,567L 241.668,567.666L 243,568L 245.668,568.666L 247,569L 249.5313,569.4902L 252.082,570.0449L 254.6836,570.6719L 256,571L 257.2656,571.2344L 259.7656,571.7344L 261,572L 262.2656,572.2344L 264.7656,572.7344L 266,573L 267.2656,573.2344L 269.7656,573.7344L 271,574L 272.5313,574.2344L 275.5313,574.7344L 277,575L 279.8594,575.3223L 282.6367,575.752L 284,576L 285.5313,576.2344L 288.5313,576.7344L 290,577L 293.3555,577.3223L 296.4961,577.752L 298,578L 299.5508,578.0879L 302.6055,578.3418L 305.5547,578.7539L 307,579L 308.5508,579.0879L 311.6055,579.3418L 314.5547,579.7539L 316,580L 317.6484,580.0195L 321,580.1094L 324.3438,580.3438L 327.4922,580.7539L 329,581L 330.5078,581.2188L 333.3398,581.9414L 335.6094,583.3906L 337.0586,585.6602L 337.7813,588.4922L 338,590L 338.2461,591.5078L 338.6563,594.6875L 338.8906,598.2188L 338.9805,602.0391L 339,604L 339.2461,605.4922L 339.6563,608.5625L 339.8926,611.7617L 340,615L 340.2461,616.4453L 340.6582,619.3945L 340.9121,622.4492L 341,624L 341.2461,625.4453L 341.6582,628.3945L 341.9121,631.4492L 342,633L 342.248,634.5039L 342.6777,637.6445L 343,641L 343.248,642.3633L 343.6777,645.1406L 344,648L 344.248,649.3633L 344.6777,652.1406L 345,655L 345.2656,656.4688L 345.7656,659.4688L 346,661L 346.2656,662.4688L 346.7656,665.4688L 347,667L 347.2656,668.4688L 347.7656,671.4688L 348,673L 348.2656,674.2344L 348.7656,676.7344L 349,678L 349.2656,679.2344L 349.7656,681.7344L 350,683L 350.2656,684.2344L 350.7656,686.7344L 351,688L 351.2656,689.2344L 351.7656,691.7344L 352,693L 352.2656,694.2344L 352.7656,696.7344L 353,698L 353.334,699.332L 354,702L 354.6543,704.6367L 355.2529,707.2051L 355.7656,709.7344L 356,711L 356.334,712.332L 357,715L 357.334,716.332L 358,719L 358.4297,720.4141L 358.8389,721.8184L 359.6172,724.5977L 360.3271,727.3184L 361,730L 361.4297,731.4141L 362.248,734.2227L 363,737L 363.4297,738.4141L 364.248,741.2227L 365,744L 366,747L 367,750L 368,753L 369,756L 370,759L 371,762L 372,765L 373,768L 373.5,769.2539L 374.5,771.8418L 375.5,774.5879L 376,776L 377,778.4688L 378,781L 379,783.4688L 380,786L 381,788.4688L 382,791L 383,793.1758L 384,795.5078L 385,798L 386,800.0039L 387,802.0391L 388,804.1797L 389,806.5078L 390,809L 391,811L 392,813L 393,815L 394,817L 395,819L 396,821L 397,823L 397.6128,824L 398.8062,826L 399.927,828L 400.981,830L 402,832L 402.624,833L 403.8389,835L 405,837L 405.624,838L 406.8389,840L 408,842L 409.334,844L 410,845L 411.334,847L 412,848L 413.334,850L 414,851L 415.334,853L 416,854L 417.334,856L 418,857L 418.7656,858L 420.2656,860L 421,861L 421.7656,862L 423.2656,864L 424,865L 425.6777,867L 427.248,869L 428,870L 429.8926,872L 431.6563,874L 433.2461,876L 434,877L 435,878L 436,879L 437,880L 438,881L 439,882L 440,883L 441,884L 442,885L 443,886L 444,887L 445,888L 446,889L 447,890L 448,890.7904L 450,892.4221L 452,894.1666L 454,896L 456,897.4844L 458,899L 460,900.4844L 462,902L 463,902.666L 465,904L 466,904.5703L 468,905.752L 470,907L 471,907.5176L 473,908.5898L 475,909.7539L 477,911L 479,912L 481.4521,913L 483.7852,914L 486,915L 489,916L 492,917L 495,918L 498,919L 499.2656,919.2344L 501.7656,919.7344L 503,920L 504.2656,920.2344L 506.7656,920.7344L 508,921L 509.8242,921.0879L 513.3164,921.3418L 516.4922,921.7539L 518,922L 526,922L 527.5078,921.7539L 530.6836,921.3418L 534.1758,921.0879L 536,921L 537.4688,920.7344L 540.4688,920.2344L 542,920L 543.332,919.666L 546,919L 547.4141,918.5703L 550.2227,917.752L 553,917L 555.4688,916L 558,915L 560.4688,914L 563,913L 565,912L 567,911L 569,910L 571,908.7744L 573,907.6128L 575,906.5269L 576,906L 578,904.666L 579,904L 581,902.666L 582,902L 583,901.2344L 585,899.7344L 586,899L 587,898.2344L 589,896.7344L 590,896L 592,894.1074L 594,892.3438L 596,890.7539L 597,890L 598,889L 599,888L 600,887L 601,886L 602,885L 603,884L 604,883L 605,882L 606,881L 607,880L 608,879L 609,878L 609.7904,877L 611.4221,875L 613.1666,873L 615,871L 615.7686,870L 617.3491,868L 619,866L 619.7686,865L 621.3491,863L 623,861L 623.6743,860L 625.0493,858L 626.4927,856L 628,854L 628.666,853L 630,851L 630.666,850L 632,848L 632.666,847L 634,845L 634.5703,844L 635.752,842L 637,840L 637.5703,839L 638.752,837L 640,835L 640.5703,834L 641.752,832L 643,830L 644,828L 645,826L 646,824L 647,822L 648,820L 649,818L 650,816L 651,814L 652,812L 653,810L 654,808L 655,806L 656,804L 657,802L 658,800L 659,797.5479L 660,795.2148L 661,793L 662,790.5479L 663,788.2148L 664,786L 664.5,784.5879L 665.5,781.8418L 666.5,779.2539L 667,778L 667.5,776.7344L 668.5,774.2344L 669,773L 670,770L 671,767L 672,764L 673,761L 674,758L 675,755L 676,752L 677,749L 678,746L 679,743L 679.7744,740.2051L 680.6128,737.3643L 681.5269,734.4639L 682,733L 682.6729,730.3184L 683.3828,727.5977L 684.1611,724.8184L 685,722L 685.666,719.332L 686,718L 686.666,715.332L 687,714L 687.666,711.332L 688,710L 688.666,707.332L 689,706L 689.4902,703.4688L 690.0449,700.918L 690.6719,698.3164L 691,697L 691.2344,695.7344L 691.7344,693.2344L 692,692L 692.2344,690.7344L 692.7344,688.2344L 693,687L 693.2344,685.7344L 693.7344,683.2344L 694,682L 694.2344,680.7344L 694.7344,678.2344L 695,677L 695.2344,675.4688L 695.7344,672.4688L 696.2344,669.7344L 696.7344,667.2344L 697,666L 697.2344,664.4688L 697.7344,661.4688L 698,660L 698.3223,657.1406L 698.752,654.3633L 699,653L 699.2344,651.4688L 699.7344,648.4688L 700,647L 700.3223,643.6445L 700.752,640.5039L 701,639L 701,633L 697,633L 695.5859,633.4297L 694.1816,633.8389L 691.4023,634.6172L 688.6816,635.3271L 686,636L 684.5859,636.4297L 683.1816,636.8389L 680.4023,637.6172L 677.6816,638.3271L 676.3408,638.6636L 673.668,639.334L 671,640L 669.5859,640.4297L 666.7773,641.248L 664,642L 662.5859,642.4297L 661.1816,642.8389L 658.4023,643.6172L 655.6816,644.3271L 653,645L 651.5859,645.4297L 648.7773,646.248L 646,647L 645,648L 644.334,650.668L 644,652L 643.7656,653.5313L 643.2656,656.5313L 643,658L 642.7656,659.5313L 642.2656,662.5313L 642,664L 641.7656,665.5313L 641.2656,668.5313L 640.7656,671.2656L 640.2656,673.7656L 640,675L 639.7656,676.2656L 639.2656,678.7656L 639,680L 638.7656,681.2656L 638.2656,683.7656L 638,685L 637.5098,687.5313L 636.9551,690.082L 636.3281,692.6836L 636,694L 635.334,696.668L 635,698L 634.334,700.668L 634,702L 633.334,704.668L 633,706L 632.3271,708.6816L 631.6172,711.4023L 630.8389,714.1816L 630,717L 629.6128,718.3975L 628.8062,721.2158L 628.3666,722.6536L 627.4539,725.5596L 626.4888,728.5146L 625.4983,731.4814L 624.4999,734.3909L 623.5,737.1563L 622.5,739.7461L 622,741L 621.5,742.2656L 620.5,744.7656L 620,746L 619,748.4521L 618,750.7852L 617,753L 616.5,754.2256L 616,755.4189L 615.5,756.576L 614.498,758.8204L 613.4805,760.9426L 612.4102,762.9871L 611.2461,764.9982L 610,767L 609.4824,768L 608.4102,770L 607.8281,771L 607.2222,772L 605.9683,774L 604.6323,776L 603.2002,778L 601.6475,780L 600,782L 598.3709,783.998L 596.6677,785.9785L 595.7621,786.9346L 593.9038,788.7734L 591.9643,790.4463L 589.9477,791.9551L 588.8766,792.6548L 586.6585,794.0132L 584.3393,795.2617L 582.0122,796.3271L 580.8435,796.7373L 578.4673,797.4302L 577.2434,797.6467L 574.769,797.9409L 572.2476,797.9526L 570.9724,797.8181L 569.6996,797.6176L 567.1719,797.0918L 564.707,796.333L 563.5303,795.8523L 561.2444,794.8057L 560.1647,794.2092L 559.1085,793.5878L 558.07,792.9435L 557.0444,792.2747L 556.0277,791.5781L 554.0083,790.1216L 552.0224,788.5274L 550.1094,786.7871L 548.3438,784.9235L 546.7539,782.9829L 545.2344,781L 543.7344,779L 543,778L 542.2363,777L 540.7607,775L 539.4023,773L 538.1631,771L 537,769L 536.3872,768L 535.1938,766L 534.6334,765L 533.5461,763L 533.0287,762L 532.0065,760L 531.0009,757.9961L 530.0001,755.9609L 529,753.8203L 528,751.4922L 527,749L 526,746.5313L 525,744L 524.5,742.7461L 523.5,740.1582L 522.5,737.4121L 522,736L 521.5,734.7256L 520.502,732.1162L 519.5195,729.3853L 518.5898,726.5786L 517.7539,723.7749L 517,721L 516.5703,719.5859L 515.752,716.7773L 515,714L 514.5703,712.5859L 514.1611,711.1816L 513.3828,708.4023L 512.6729,705.6816L 512.3364,704.3408L 511.666,701.668L 511,699L 510.666,697.668L 510,695L 509.3457,692.3633L 508.7471,689.7949L 508.2344,687.2656L 508,686L 507.7344,684.7656L 507.2344,682.2656L 507,681L 506.7344,679.7656L 506.2344,677.2656L 506,676L 505.7344,674.7656L 505.2344,672.2656L 504.7344,669.5313L 504.2344,666.5313L 504,665L 503.7344,663.5313L 503.2344,660.5313L 503,659L 502.7344,657.5313L 502.2344,654.5313L 502,653L 501.752,651.6367L 501.3223,648.8594L 501,646L 500.752,644.6367L 500.3223,641.8594L 500,639L 499.7539,637.5547L 499.3418,634.6055L 499.0879,631.5508L 499,630L 498.7539,628.5547L 498.3418,625.6055L 498.0879,622.5508L 498,621L 497.7539,619.4922L 497.3418,616.3164L 497.0879,612.8242L 497,611L 496.7539,609.4922L 496.3438,606.3438L 496.1094,603L 496.0195,599.6484L 496,598L 495.7539,596.4922L 495.3438,593.3125L 495.1094,589.7813L 495.0215,585.957L 495,582L 494.8105,579.3984L 495.1719,576.998L 496.4561,575.0762L 498.6719,573.8359L 501.4932,573.1992L 503,573L 504.332,572.666L 507,572L 508.4141,571.5703L 511.2227,570.752L 514,570L 516.8184,569.1631L 519.625,568.4023L 522.4824,567.7607L 525.4688,567.2363L 527,567L 528.2344,566.7344L 530.7344,566.2344L 532,566L 533.2344,565.7344L 535.7344,565.2344L 537,565L 538.2344,564.7344L 540.7344,564.2344L 542,564L 543.332,563.666L 546,563L 548.6367,562.3457L 551.2051,561.7471L 553.7344,561.2344L 555,561L 556.332,560.666L 559,560L 561.6367,559.3457L 564.2051,558.7471L 566.7344,558.2344L 568,558L 569.332,557.666L 572,557L 573.332,556.666L 576,556L 577.332,555.666L 580,555L 581.4141,554.5703L 582.8184,554.1611L 585.5977,553.3828L 588.3184,552.6729L 591,552L 592.4141,551.5703L 595.2227,550.752L 598,550L 599.4141,549.5703L 602.2227,548.752L 605,548L 606.4727,547.5176L 609.3828,546.5898L 612.2188,545.7539L 615,545L 618,544L 621,543L 622.5,542.5L 625.4961,541.502L 628.4688,540.5195L 631.3828,539.5898L 634.2188,538.7539L 637,538L 639.5488,537L 640.8877,536.5L 643.646,535.5L 645.0923,535L 648.0225,534L 651.0034,533L 654,532L 655.2539,531.5L 657.8418,530.5L 660.5879,529.5L 662,529L 664.4688,528L 667,527L 668.2539,526.5L 670.8418,525.5L 673.5879,524.5L 675,524L 677.4688,523L 680,522L 682.1758,521L 684.5078,520L 687,519L 689.4688,518L 692,517L 694.1758,516L 696.5078,515L 699,514L 701.0391,513L 703.1797,512L 705.5078,511L 708,510L 710,509L 712.0039,508L 714.0391,507L 716.1797,506L 718.5078,505L 721,504L 723,503L 725,502L 727,501L 729,500L 731,499L 733,498L 735,497L 737,496L 739,495L 741,494L 743,493L 745,492L 746,491.3872L 748,490.1938L 749,489.6334L 751,488.5461L 753,487.5112L 755,486.5016L 756,486L 757,485.3872L 759,484.1938L 761,483.073L 763,482.019L 765,481L 767,479.7744L 769,478.6128L 771,477.5269L 772,477L 773,476.376L 775,475.1611L 777,474L 778,473.376L 780,472.1611L 782,471L 784,469.6753L 786,468.3848L 788,467.1616L 790,466L 792,464.666L 793,464L 795,462.666L 796,462L 798,460.666L 799,460L 801,458.666L 802,458L 804,456.666L 805,456L 807,454.666L 808,454L 810,452.4902L 812,451.0449L 814,449.6719L 815,449L 816,448.2344L 818,446.7344L 819,446L 820,445.2344L 822,443.7344L 823,443L 824,442.2344L 826,440.7344L 827,440L 829,438.3223L 831,436.752L 832,436L 833,435.0879L 835,433.3418L 837,431.7539L 838,431L 839,430.0879L 841,428.3418L 843,426.7539L 844,426L 846,424.1074L 848,422.3438L 850,420.7539L 851,420L 852,419L 853,418L 854,417L 855,416L 856,415L 857,414L 858,413L 859,412L 860,411L 861,410L 862,409L 863,408L 864,407L 865,406L 866,405L 867,404L 868,403L 869,402L 870,401L 871,400L 872,399L 873,398L 874,397L 875,396L 875.7904,395L 877.4221,393L 879.1666,391L 881,389L 881.7686,388L 883.3491,386L 885,384L 885.7686,383L 887.3491,381L 889,379L 890.4844,377L 892,375L 892.666,374L 894,372L 894.666,371L 896,369L 896.666,368L 898,366L 898.666,365L 900,363L 900.5703,362L 901.752,360L 903,358L 904,356L 905,354L 906,352L 907,350L 908,348L 909,346L 910,344L 911,342L 912,340L 912.5,338.7344L 913.5,336.2344L 914,335L 915,332L 916,329L 917,326L 918,323L 918.666,320.332L 919,319L 919.666,316.332L 920,315L 920.2344,313.4688L 920.7344,310.4688L 921,309L 921.0879,307.4492L 921.3418,304.3945L 921.7539,301.4453L 922,300L 922,288L 921.7539,286.4922L 921.3418,283.3164L 921.0879,279.8242L 921,278L 920.7344,276.7656L 920.2344,274.2656L 920,273L 919.666,271.668L 919,269L 918,266L 917,263L 916,260L 915,257.5313L 914,255L 913,253L 912,251L 911.376,250L 910.1611,248L 909,246L 907.666,244L 907,243L 905.666,241L 905,240L 903.666,238L 903,237L 901.3223,235L 899.752,233L 899,232L 898,231L 897,230L 896,229L 895,228L 894,227L 893,226L 892,225L 891,224L 890,223L 889,222L 888,221L 887,220L 886,219L 885,218L 884,217.2314L 882,215.6509L 880,214L 878,212.5156L 876,211L 874,209.5156L 872,208L 871,207.334L 869,206L 868,205.334L 866,204L 865,203.4297L 863,202.248L 861,201L 860,200.4297L 858,199.248L 856,198L 854,197L 852,196L 850,195L 848,194L 846,193L 844,192L 842,191L 840,190L 838,189L 835.5479,188L 833.2148,187L 831,186L 829.7344,185.5L 827.2344,184.5L 826,184L 824.7344,183.5L 822.2344,182.5L 821,182L 819.502,181.5L 816.5215,180.5L 813.6094,179.5L 810.8438,178.5L 808.2539,177.5L 807,177L 804.2051,176.2256L 801.3643,175.3872L 798.4639,174.4731L 797,174L 795.6113,173.624L 792.8184,172.8389L 790,172L 787.332,171.334L 786,171L 783.332,170.334L 782,170L 779.332,169.334L 778,169L 775.332,168.334L 774,168L 771.4688,167.5098L 768.918,166.9551L 766.3164,166.3281L 765,166L 763.7344,165.7656L 761.2344,165.2656L 760,165L 758.4688,164.7656L 755.4688,164.2656L 752.7344,163.7656L 750.2344,163.2656L 749,163L 747.4688,162.7656L 744.4688,162.2656L 743,162L 740.1406,161.6777L 737.3633,161.248L 736,161L 733.1406,160.6777L 730.3633,160.248L 729,160L 726.1406,159.6777L 723.3633,159.248L 722,159L 720.4492,158.9121L 717.3945,158.6582L 714.4453,158.2461L 713,158L 711.1758,157.9121L 707.6836,157.6582L 704.5078,157.2461L 703,157L 701.0391,156.9805L 697.2188,156.8906L 693.6875,156.6563L 690.5078,156.2461L 689,156L 684,156L 684,159L 684.334,160.332L 685,163L 685.4297,164.4141L 686.248,167.2227L 687,170L 687.4824,171.4727L 688.4102,174.3828L 689.2461,177.2188L 690,180L 690.4297,181.4141L 691.248,184.2227L 692,187L 692.4824,188.4727L 693.4102,191.3828L 694.2461,194.2188L 695,197L 696,200L 698.668,200.666L 700,201L 702.5313,201.4902L 705.082,202.0449L 707.6973,202.6787L 710.4023,203.3828L 713.1816,204.1611L 716,205L 718.7734,205.7744L 721.5273,206.6133L 724.2021,207.5327L 726.7549,208.5054L 728,209L 729.2656,209.5L 731.7656,210.5L 734.2256,211.5L 735.4189,212L 736.576,212.5L 738.8204,213.502L 740.9426,214.5195L 742.9871,215.5898L 743.9926,216.1719L 744.9958,216.7778L 745.9977,217.4036L 747.9997,218.6907L 750,220.051L 751,220.7719L 752,221.5103L 753,222.2656L 754,223.0401L 755,223.8375L 756,224.6606L 757.998,226.3609L 759.9785,228.1671L 760.9346,229.1154L 762.7734,231.0414L 764.4443,233.0118L 765.1938,234.0072L 765.9141,235.0043L 767.3071,237.0047L 767.9598,238.022L 769.2201,240.1114L 769.8033,241.2383L 770.3651,242.4268L 771.4518,244.9229L 772.4673,247.625L 773.3889,250.4609L 774.1561,253.397L 774.7461,256.4458L 775,258L 775.4297,260.9141L 775.6641,263.8711L 775.5908,266.8027L 775.2354,269.623L 775,271L 774.6758,273.8633L 774.4478,275.2607L 773.9072,278.0332L 773.5588,279.4097L 772.7981,282.1567L 772.3623,283.5054L 771.4536,286.1333L 770.9712,287.3616L 769.9935,289.7202L 769.4963,290.813L 768.4976,292.9417L 767.4804,294.987L 766.4102,296.9982L 765.2461,298.9999L 764,301L 762.7852,303L 761.4521,305L 760.7261,306L 759.9958,307L 758.5156,309L 757.7578,310L 756.2314,312L 754.6509,314L 753,316L 752.1855,317L 751.3524,318L 750.4966,319L 749.6167,320L 748.7137,321L 747.79,322L 746.8484,323L 745.8922,324L 744.9245,325L 743.9478,326L 741.9808,327.998L 739.9941,329.9785L 737.9985,331.8906L 735.9997,333.6563L 734,335.2461L 733,336L 732,336.9121L 730,338.6582L 728,340.2461L 727,341L 725,342.6777L 723,344.248L 722,345L 721,345.8389L 719,347.4561L 717,348.9443L 715,350.3271L 714,351L 712,352.5098L 710,353.9551L 709,354.6416L 707,355.998L 705,357.334L 704,358L 702,359.334L 701,360L 699,361.334L 698,362L 696,363.3247L 694,364.6152L 692,365.8384L 690,367L 689,367.624L 687,368.8389L 685,370L 683,371.2256L 681,372.3872L 679,373.4731L 678,374L 677,374.6128L 675,375.8062L 673,376.927L 671,377.981L 669,379L 668,379.6128L 666,380.8062L 665,381.3666L 663,382.4539L 662,382.9713L 660,383.9935L 659,384.4963L 657,385.4995L 656,385.9997L 654,387L 653,387.5L 652,388L 649.9961,389L 647.9609,390L 645.8203,391L 643.4922,392L 641,393L 638.9961,394L 636.9609,395L 634.8203,396L 632.4922,397L 630,398L 627.8242,399L 625.4922,400L 623,401L 620.8242,402L 618.4922,403L 616,404L 613.5313,405L 611,406L 608.5313,407L 606,408L 604.7461,408.5L 602.1582,409.5L 599.4121,410.5L 598,411L 595.4512,412L 592.7734,413L 589.9355,414L 587,415L 584.4512,416L 583.1123,416.5L 580.354,417.5L 578.9077,418L 577.4426,418.5L 574.491,419.498L 571.5294,420.4805L 568.6171,421.4102L 565.7813,422.2461L 563,423L 561.5039,423.498L 558.5313,424.4805L 555.6172,425.4102L 552.7813,426.2461L 550,427L 548.5859,427.4297L 545.7773,428.248L 543,429L 541.5859,429.4297L 540.1816,429.8389L 537.4023,430.6172L 534.6816,431.3271L 533.3408,431.6636L 530.668,432.334L 528,433L 526.668,433.334L 524,434L 522.668,434.334L 520,435L 518.668,435.334L 516,436L 513.3633,436.6543L 510.7949,437.2529L 509.5303,437.5093L 507.0068,437.9453L 504.5908,438.0796L 503.4341,437.647L 502.5376,436.9534L 501.9344,436.0542L 501.2305,433.9239L 501.304,431.2896L 501.7391,428.4432L 502.2344,425.7344L 502.7344,423.2344L 503,422L 503.2344,420.7344L 503.7344,418.2344L 504,417L 504.2344,415.7344L 504.7344,413.2344L 505,412L 505.4902,409.4688L 506.0449,406.918L 506.6719,404.3164L 507,403L 507.666,400.332L 508,399L 508.666,396.332L 509,395L 509.5352,392.4102L 510.2012,389.748L 511,387L 511.6729,384.3184L 512.3828,381.5977L 513.1611,378.8184L 514,376L 514.7744,373.2051L 515.6128,370.3643L 516.5269,367.4639L 517,366L 517.7744,363.2266L 518.6133,360.4727L 519.5327,357.7979L 520.5054,355.2451L 521,354L 521.5,352.502L 522.5,349.5215L 523.5,346.6094L 524.5,343.8438L 525.5,341.2539L 526,340L 526.5,338.7344L 527.5,336.2344L 528.5,333.7744L 529.5,331.3877L 530.5,329.1455L 531.5,327.0322L 532,326L 532.5,324.7744L 533,323.5811L 534,321.2668L 534.5,320.1796L 535.5,318.0574L 536,317.0352L 536.5,316.0213L 537.502,314.0042L 538.5195,312.0005L 539.5898,310L 540.7539,308L 542,306L 542.5703,305L 543.752,303L 545,301L 546.2148,299L 547.5479,297L 549,295L 550.3643,293L 551.7998,291L 553.3525,289L 555,287L 555.8145,286L 557.4807,284.002L 559.2379,282.0215L 561.0962,280.1094L 563.0307,278.3438L 564.0185,277.5488L 565.0108,276.7764L 567.0016,275.2764L 568.0008,274.582L 569.0004,273.9244L 571.0039,272.6815L 573.0391,271.5769L 574.1094,271.0898L 576.3477,270.1812L 578.8105,269.4063L 580.1875,269.0943L 583.124,268.5659L 584.7681,268.4075L 586.4661,268.3102L 589.8999,268.2449L 591.5906,268.347L 594.8442,268.6897L 596.3229,268.9905L 599.1167,269.6956L 601.6073,270.5788L 602.7339,271.0909L 603.823,271.6373L 604.8842,272.2197L 605.9254,272.84L 607.9798,274.161L 609.996,275.6491L 611.9995,277.3077L 614,279.1116L 616,281L 622,281L 623.332,280.666L 626,280L 628.6367,279.3457L 631.2051,278.7471L 633.7344,278.2344L 635,278L 636.332,277.666L 639,277L 641.6367,276.3457L 644.2051,275.7471L 646.7344,275.2344L 648,275L 650,274L 650,272L 649,270L 648,268L 647,266L 646,264L 645,262L 644,260L 643,258L 642,256L 641.3872,255L 640.1938,253L 639.6334,252L 638.5461,250L 637.5112,248L 636.5016,246L 636,245L 635.376,244L 634.1611,242L 633,240L 631.6753,238L 630.3848,236L 629.1616,234L 628,232L 626.666,230L 626,229L 624.666,227L 624,226L 622.4902,224L 621.0449,222L 619.6719,220L 619,219L 618.2344,218L 616.7344,216L 616,215L 614.3223,213L 612.752,211L 612,210L 610.1074,208L 608.3438,206L 606.7539,204L 606,203L 605,202L 604,201L 603,200L 602,199L 601,198L 600,197L 599,196L 598,195L 597,194L 596,193L 595,192L 594,191L 593,190L 592,189L 591,188L 590,187L 589,186.2314L 587,184.6509L 585,183L 583,181.5156L 581,180L 579,178.5156L 577,177L 576,176.334L 574,175L 573,174.4297L 571,173.248L 569,172L 567,171L 565,170L 563,169L 561,168L 559,167L 557,166L 555.7344,165.5L 553.2344,164.5L 552,164L 549,163L 546,162L 543.332,161.334L 542,161L 540.7344,160.7656L 538.2344,160.2656L 537,160L 535.4688,159.7656L 532.4688,159.2656L 531,159L 508,159L 506.5313,159.2656L 503.5313,159.7656L 502,160L 500.7656,160.2656L 498.2656,160.7656L 497,161L 495.5859,161.4297L 492.7773,162.248L 490,163L 487,164L 484.5313,165L 482,166L 480,167L 478,168L 476,169L 474,170L 472,171L 470,172L 468,173L 466,174.334L 465,175L 463,176.334L 462,177L 460,178.334L 459,179L 458,179.7656L 456,181.2656L 455,182L 454,182.7656L 452,184.2656L 451,185L 450,185.9805L 448,187.8906L 446,189.6563L 444,191.2461L 443,192L 442,193L 441,194L 440,195L 439,196L 438,197L 437,198L 436,199L 435,200L 433.3928,202L 431.6992,204L 429.8889,206L 428,208L 426.4224,210L 424.7556,212L 423,214L 421.5156,216L 420,218L 418.5156,220L 417,222L 416.3257,223L 414.9507,225L 413.5073,227L 412,229L 411.334,230L 410,232L 409.4297,233L 408.8389,234L 407.6172,236L 406.3271,238L 405,240L 404.4297,241L 403.248,243L 402,245L 401.4824,246L 400.4102,248L 399.2461,250L 398,252L 397,254L 396,256L 395,258L 394,260L 393,262L 392,264L 391,266L 390,268L 389,270L 388,272L 387,274L 386,276L 385,278L 384.5,279.2256L 383.5,281.6123L 382.5,283.8545L 381.5,285.9678L 381,287L 380.5,288.2656L 379.5,290.7656L 379,292L 378.5,293.2656L 377.5,295.7656L 377,297L 376.5,298.2656L 375.5,300.7656L 375,302L 374.5,303.2656L 373.5,305.7656L 373,307L 372,310L 371,313L 370,316L 369,319L 368,322L 367,325L 366,328L 365,331L 364,334L 363,337L 362,340L 361.624,341.3887L 360.8389,344.1816L 360,347L 359.3271,349.6816L 358.6172,352.4023L 357.8389,355.1816L 357,358L 356.334,360.668L 356,362L 355.334,364.668L 355,366L 354.334,368.668L 354,370L 353.334,372.668L 353,374L 352.5098,376.5313L 351.9551,379.082L 351.3281,381.6836L 351,383L 350.7656,384.2656L 350.2656,386.7656L 350,388L 349.7656,389.2656L 349.2656,391.7656L 349,393L 348.7656,394.2656L 348.2656,396.7656L 348,398L 347.7656,399.2656L 347.2656,401.7656L 347,403L 346.7656,404.2656L 346.2656,406.7656L 346,408L 345.7656,409.5313L 345.2656,412.5313L 345,414L 344.7656,415.5313L 344.2656,418.5313L 344,420L 343.7656,421.5313L 343.2656,424.5313L 343,426L 342.6777,428.8594L 342.248,431.6367L 342,433L 341.6777,435.8594L 341.4629,437.248L 341.2124,438.6895L 340.8979,440.1343L 340.4852,441.5024L 339.4078,443.9495L 337.7688,445.6489L 335.5718,446.4634L 333.0171,446.564L 330.3425,446.2354L 329,446L 326.1406,445.6777L 323.3633,445.248L 322,445L 320.4688,444.7656L 317.4688,444.2656L 314.7344,443.7656L 312.2344,443.2656L 311,443L 308.4688,442.5098L 305.918,441.9551L 303.3164,441.3281L 302,441L 299.332,440.334L 298,440L 296.6592,439.6636L 293.957,438.9717L 292.5776,438.5969L 289.7808,437.8044L 288.3447,437.3657L 285.4424,436.4539L 282.5049,435.4888L 279.6064,434.4983L 276.8435,433.4999L 275.5487,432.9999L 274.2763,432.5L 271.7764,431.5L 270.582,431L 268.2668,430L 267.1796,429.5L 265.0574,428.5L 264.0352,428L 263.0213,427.5L 261.0042,426.498L 259.0005,425.4805L 257,424.4102L 255,423.2461L 253,422L 251,420.7852L 250,420.1187L 248,418.7246L 246,417.23L 244,415.6509L 242,414L 241.002,413.1964L 239.0215,411.5455L 237.1094,409.7899L 235.3438,407.9237L 233.7539,405.9829L 232.2363,404L 230.7607,402L 230.0815,401L 228.7744,398.9795L 227.5352,396.8623L 226.926,395.7153L 225.7285,393.3438L 224.6052,390.856L 224.1073,389.5779L 223.1846,386.9875L 222.4043,384.3132L 221.7607,381.5059L 221.2363,378.5303L 220.7734,375.5313L 220.4531,372.5313L 220.4531,369.4688L 220.7734,366.4688L 221.2363,363.4688L 221.4985,361.9756L 222.082,359.0547L 222.7886,356.2334L 223.6143,353.4727L 224.5327,350.7979L 225.019,349.5215L 225.5109,348.2605L 226.5033,345.7742L 227.5195,343.3877L 228.5898,341.146L 229.7539,339.0381L 231,337L 231.5703,336L 232.1611,335L 233.3828,333L 234.6729,331L 236.0024,329L 237.3643,327L 238.7998,325L 240.3525,323L 242,321L 243.6072,319L 245.3008,317L 247.1111,315L 249,313L 249.8036,312.002L 251.4545,310.0215L 253.2101,308.1094L 255.0763,306.3438L 257.0171,304.7539L 258,304L 259,303.002L 261,301.0215L 263,299.1094L 265,297.3438L 267,295.7539L 268,295L 269,294.0879L 271,292.3418L 273,290.7539L 274,290L 275,289.2344L 277,287.7344L 278,287L 279,286.2344L 281,284.7344L 282,284L 284,282.4902L 286,281.0449L 288,279.6719L 289,279L 291,277.4902L 292,276.7676L 293,276.0635L 295,274.6895L 297,273.3862L 299,272.1616L 301,271L 303,269.6753L 305,268.3848L 307,267.1616L 309,266L 310,265.376L 312,264.1611L 314,263L 315,262.3872L 317,261.1938L 319,260.073L 321,259.019L 323,258L 324,257.3872L 326,256.1938L 327,255.6334L 329,254.5461L 330,254.0287L 332,253.0065L 333,252.5037L 335,251.5005L 336,251.0003L 338,250L 339,249.5L 341,248.5L 342,248L 344,247L 346,246L 348,245L 350.0039,244L 352.0391,243L 354.1797,242L 356.5078,241L 359,240L 361.1758,239L 363.5078,238L 366,237L 368.1758,236L 370.5078,235L 373,234L 374,233L 374,232L 373.666,230.668L 373,228L 372.5703,226.5859L 372.1611,225.1816L 371.3828,222.4023L 370.6729,219.6816L 370,217L 369.5703,215.5859L 369.1611,214.1816L 368.3828,211.4023L 367.6729,208.6816L 367,206L 366,205L 364,205L 362.7461,205.5L 360.1582,206.5L 357.4121,207.5L 356,208L 353.5313,209L 351,210L 348.5313,211L 346,212L 343.5313,213L 341,214L 338.8242,215L 336.4922,216L 334,217L 331.8242,218L 329.4922,219L 327,220L 324.8242,221L 322.4922,222L 320,223L 318,224L 315.9961,225L 313.9609,226L 311.8203,227L 309.4922,228L 307,229L 305,230L 303,231L 301,232L 299,233L 297,234L 295,235L 293,236L 291,237L 289,238L 287,239L 285,240L 283,241L 281,242L 279,243L 278,243.6128L 276,244.8062L 275,245.3666L 273,246.4539L 271,247.4888L 269,248.4984L 268,249L 267,249.6128L 265,250.8062L 263,251.927L 261,252.981L 259,254L 258,254.624L 256,255.8389L 254,257L 253,257.624L 251,258.8389L 249,260L 248,260.624L 246,261.8389L 244,263L 242,264.3247L 240,265.6152L 238,266.8384L 236,268L 234,269.334L 233,270L 231,271.334L 230,272L 228,273.334L 227,274L 225,275.334L 224,276L 222,277.334L 221,278L 219,279.334L 218,280L 216,281.334L 215,282L 214,282.7656L 212,284.2656L 211,285L 209,286.5098L 207,287.9551L 205,289.3281L 204,290L 202,291.6777L 200,293.248L 199,294L 198,294.7656L 196,296.2656L 195,297L 193,298.6777L 191,300.248L 190,301L 189,301.9121L 187,303.6582L 185,305.2461L 184,306L 182,307.8926L 180,309.6563L 178,311.2461L 177,312L 176,313L 175,314L 174,315L 173,316L 171,317.998L 169,319.9785L 167,321.8906L 165,323.6563L 163,325.2461L 162,326L 161,327L 160,328L 159,329L 158.1855,330L 157.3524,331L 156.4966,332L 154.7368,334L 152.8847,336L 150.9587,338L 148.9886,340L 147,342L 145.4224,344L 143.7556,346L 142,348L 141.2314,349L 139.6509,351L 138,353L 136.5156,355L 135,357L 133.5156,359L 132,361L 131.334,362L 130,364L 129.334,365L 128,367L 127.334,368L 126,370L 125.334,371L 124,373L 123.4297,374L 122.248,376L 121,378L 120,380L 119,382L 118,384L 117,386L 116,388L 115,390L 114,392L 113,394L 112,396L 111.5,397.2656L 110.5,399.7656L 110,401L 109,404L 108,407L 107,410L 106.624,411.3887L 105.8389,414.1816L 105,417L 104.7656,418.2656L 104.2656,420.7656L 104,422L 103.7656,423.5313L 103.2656,426.5313L 103,428L 102.9121,429.8242L 102.6582,433.3164L 102.2461,436.4922L 102,438L 102,446L 102.2461,447.4922L 102.6563,450.5625L 102.8926,453.7617L 103,457L 103.2656,458.2344L 103.7656,460.7344L 104,462L 104.2656,463.2344L 104.7656,465.7344L 105,467L 106,470L 107,473L 108,476L 109,478.4688L 110,481L 111,483L 112,485L 113,487L 113.624,488L 114.8389,490L 116,492L 117.334,494L 118,495L 119.334,497L 120,498L 121.334,500L 122,501L 122.9121,502L 124.6582,504L 126.2461,506L 127,507L 128,508L 129,509L 130,510L 131,511L 132,512L 133,513L 134,514L 135,515L 136,516L 137,517L 138,518L 139,519Z" style="fill:rgb(0,97,178);"/>
</svg>