<svg width="1028" height="1024"
     xmlns="http://www.w3.org/2000/svg" version="1.1">
<style>path {fill-opacity:1; stroke:none;}</style>
<path d="M 0,0L 0,1024L 1028,1024L 1028,0ZM 197.8085,547.036L 200.4386,547.3423L 201.9777,549.0405L 203.335,551.0022L 204,552L 205.334,554L 206,555L 207.5098,557L 208.9551,559L 209.6416,560L 210.998,562L 212.334,564L 213,565L 214.334,567L 215,568L 216.5098,570L 217.9551,572L 219.3281,574L 220,575L 220.7656,576L 222.2656,578L 223,579L 224.5098,581L 225.9551,583L 227.3281,585L 228,586L 228.7656,587L 230.2656,589L 231,590L 231.7656,591L 233.2656,593L 234,594L 234.7656,595L 236.2656,597L 237,598L 237.7656,599L 239.2656,601L 240,602L 240.7656,603L 242.2656,605L 243,606L 243.7656,607L 245.2656,609L 246,610L 247.6777,612L 249.248,614L 250,615L 251.6777,617L 253.248,619L 254,620L 255.6777,622L 257.248,624L 258,625L 258.9121,626L 260.6582,628L 262.2461,630L 263,631L 263.9121,632L 265.6582,634L 267.2461,636L 268,637L 268.9121,638L 270.6582,640L 272.2461,642L 273,643L 273.9805,644L 275.8906,646L 277.6563,648L 279.2461,650L 280,651L 280.9805,652L 282.8906,654L 284.6563,656L 286.2461,658L 287,659L 288.998,661L 290.9785,663L 292.8906,665L 294.6563,667L 296.2461,669L 297,670L 298,671L 299,672L 300,673L 301.998,675L 303.9785,677L 305.8906,679L 307.6563,681L 309.2461,683L 310,684L 311,685L 312,686L 313,687L 314,688L 315,689L 316,690L 317,691L 318,692L 319,693L 320,694L 321,695L 322,696L 323,697L 324,698L 325,699L 326,700L 327,701L 328,702L 329,703L 330,704L 331,705L 332,706L 333,706.8145L 334,707.6476L 335,708.5034L 336,709.3833L 338,711.1892L 340,713.0784L 342,715.0266L 344,717.007L 346,719L 348,720.6291L 350,722.3323L 352,724.1432L 354,726.0467L 356,728L 357,728.7904L 359,730.4221L 361,732.1666L 363,734L 365,735.5776L 367,737.2444L 369,739L 370,739.7686L 372,741.3491L 374,743L 375,743.7686L 377,745.3491L 379,747L 381,748.4844L 383,750L 385,751.4844L 387,753L 388,753.6743L 390,755.0493L 392,756.4927L 394,758L 395,758.666L 397,760L 398,760.666L 400,762L 401,762.666L 403,764L 404,764.5703L 406,765.752L 408,767L 409,767.5176L 411,768.5898L 413,769.7539L 415,771L 417,772L 419,773L 421,774L 422.4121,774.5L 425.1582,775.5L 427.7461,776.5L 429,777L 432,778L 435,779L 437.7949,779.7744L 440.6357,780.6128L 443.5361,781.5269L 445,782L 447.668,782.666L 449,783L 451.5313,783.4902L 454.082,784.0449L 456.6836,784.6719L 458,785L 460.8594,785.3223L 463.6367,785.752L 465,786L 466.5508,786.0879L 469.6055,786.3418L 472.5547,786.7539L 474,787L 488,787L 489.4922,786.7539L 492.5625,786.3438L 495.7617,786.1074L 499,786L 500.4688,785.7344L 503.4688,785.2344L 505,785L 506.4688,784.7344L 509.4688,784.2344L 511,784L 512.332,783.666L 515,783L 516.332,782.666L 519,782L 520.332,781.666L 523,781L 526,780L 529,779L 532,778L 534.4688,777L 537,776L 539,775L 541,774L 543,773L 545,772L 547,771L 549,770L 551,769L 553,768L 554,767.376L 556,766.1611L 558,765L 560,763.666L 561,763L 563,761.666L 564,761L 566,759.666L 567,759L 569,757.3223L 571,755.752L 572,755L 574,753.4902L 576,752.0449L 578,750.6719L 579,750L 580,749.2344L 582,747.7344L 583,747L 585,745.3223L 587,743.752L 588,743L 590,741.3223L 592,739.752L 593,739L 594,738.0879L 596,736.3418L 598,734.7539L 599,734L 601,732.1074L 603,730.3438L 605,728.7539L 606,728L 608,726.1074L 610,724.3438L 612,722.7539L 613,722L 614,721.0195L 616,719.1094L 618,717.3438L 620,715.7539L 621,715L 622,714.0195L 624,712.1094L 626,710.3438L 628,708.7539L 629,708L 630,707.002L 632,705.0215L 634,703.1094L 636,701.3438L 638,699.7539L 639,699L 640,698L 642,696.002L 644,694.0215L 646,692.1094L 648,690.3438L 650,688.7539L 651,688L 652,687L 654,685.002L 656,683.0215L 658,681.1094L 660,679.3438L 662,677.7539L 663,677L 664,676L 665,675L 666,674L 668,672.002L 670,670.0215L 672,668.1094L 674,666.3438L 676,664.7539L 677,664L 678,663L 679,662L 680,661L 681,660L 683,658.002L 685,656.0215L 687,654.1094L 689,652.3438L 691,650.7539L 692,650L 693,649L 694,648L 695,647L 696,646L 697,645L 698,644L 699,643L 700,642L 702,640.002L 704,638.0215L 706,636.1094L 708,634.3438L 710,632.7539L 711,632L 712,631L 713,630L 714,629L 715,628L 716,627L 717,626L 718,625L 720,623.002L 722,621.0215L 724,619.1094L 726,617.3438L 728,615.7539L 729,615L 731,613.0654L 732,612.1519L 733.002,611.2903L 735.0195,609.6904L 736.0547,609.0339L 737.1133,608.4727L 739.2725,607.5698L 741.4785,607.1611L 743.6162,607.3331L 744.5798,607.7126L 745.4966,608.2218L 746.395,608.848L 747.2966,609.5737L 748.2127,610.3793L 750.0793,612.112L 751.9974,614.0216L 753.8926,616.002L 755.6563,618L 757.2461,620L 758,621L 759.998,623L 761.9785,625L 763.8906,627L 765.6563,629L 767.2461,631L 768,632L 769.998,634L 771.9785,636L 773.8906,638L 775.6563,640L 776.4512,641L 777.2031,642L 777.8839,643L 778.455,644L 778.8805,645L 779.135,646L 779.2067,647L 779.0969,648L 778.8171,649L 778.3858,650L 777.825,651L 777.1573,652L 776.4039,653L 775.5838,654L 774.713,655L 773.8043,656L 772.868,657L 771.9118,658L 770.9417,659L 769.9618,660L 768.9751,661L 767.984,662L 766.9897,663L 765.9935,664L 763.9983,665.998L 761.9996,667.9785L 759.9999,669.8906L 758,671.6563L 756,673.2461L 755,674L 754,675L 753,676L 752,677L 750,678.998L 748,680.9785L 746,682.8906L 744,684.6563L 742,686.2461L 741,687L 740,688L 738,689.998L 736,691.9785L 734,693.8906L 732,695.6563L 730,697.2461L 729,698L 727,699.998L 725,701.9785L 723,703.8906L 721,705.6563L 719,707.2461L 718,708L 717,708.998L 715,710.9785L 713,712.8906L 711,714.6563L 709,716.2461L 708,717L 707,717.998L 705,719.9785L 703,721.8906L 701,723.6563L 699,725.2461L 698,726L 696,727.9785L 694,729.8906L 692,731.6563L 690,733.2461L 689,734L 688,734.9805L 686,736.8906L 684,738.6563L 682,740.2461L 681,741L 679,742.9785L 677,744.8906L 675,746.6563L 673,748.2461L 672,749L 670,750.9785L 668,752.8906L 666,754.6563L 664,756.2461L 663,757L 662,757.9805L 660,759.8906L 658,761.6563L 656,763.2461L 655,764L 653,765.9785L 651,767.8906L 649,769.6563L 647,771.2461L 646,772L 644,773.9785L 642,775.8906L 640,777.6563L 638,779.2461L 637,780L 636,780.998L 634,782.9785L 632,784.8906L 630,786.6563L 628,788.2461L 627,789L 625,790.6777L 623,792.248L 622,793L 620,794.5098L 618,795.9551L 617,796.6416L 615,797.998L 613,799.334L 612,800L 610,801.3247L 608,802.6152L 606,803.8384L 604,805L 602,806.2256L 600,807.3872L 598,808.4731L 597,809L 596,809.6128L 593.9961,810.8062L 591.9609,811.927L 589.8203,812.9807L 587.4922,813.9968L 585,815L 582.9609,816L 580.8203,817L 578.4922,818L 577.2461,818.5L 575.9961,819L 573.4512,820L 572.1123,820.5L 569.354,821.5L 567.9077,822L 566.4426,822.5L 563.491,823.498L 560.5294,824.4805L 557.6171,825.4102L 556.1992,825.8281L 553.4043,826.6162L 550.6816,827.3271L 549.3408,827.6636L 548.0044,827.9988L 545.3633,828.6543L 542.7949,829.2529L 540.2656,829.7656L 539,830L 537.7656,830.2656L 535.2656,830.7656L 532.5313,831.2656L 529.5313,831.7656L 528,832L 526.4961,832.248L 523.3555,832.6777L 520,833L 518.4922,833.2461L 515.3125,833.6563L 511.7813,833.8906L 507.957,833.9785L 503.9961,833.998L 500.5,834L 497.0039,833.998L 493.043,833.9785L 489.2188,833.8906L 485.6875,833.6563L 482.5078,833.2461L 481,833L 478.1406,832.6777L 475.3633,832.248L 474.0488,832.0068L 471.4688,831.5098L 468.918,830.9551L 466.3164,830.3281L 465,830L 463.6592,829.6636L 460.957,828.9717L 458.2002,828.2222L 455.3848,827.3867L 452.5635,826.4673L 449.834,825.4941L 447.2529,824.4995L 446,824L 444.7344,823.5L 442.2344,822.5L 439.7744,821.5L 438.5811,821L 436.2668,820L 434.0923,819L 432.0222,818L 430,817L 428.7744,816.4824L 426.3872,815.4102L 424.1396,814.2461L 422,813L 421,812.498L 419,811.4805L 417,810.4102L 415,809.2461L 413,808L 412,807.4297L 410,806.248L 408,805L 407,804.4297L 406,803.8389L 404,802.6172L 402,801.3271L 401,800.6636L 399,799.334L 397,798L 396,797.334L 395,796.667L 393,795.3257L 391,793.9507L 389,792.5073L 387,791L 385,789.5156L 383,788L 381,786.5156L 379,785L 377,783.5156L 375,781.9958L 373,780.4224L 371,778.7556L 369,777L 368,776.2096L 366,774.5779L 364,772.8334L 362,771L 361,770.1855L 360,769.3524L 359,768.4966L 357,766.7368L 355,764.8847L 353,762.9587L 351,760.9886L 349,759L 347.1074,757.4192L 345.3438,755.7366L 343.7539,753.9302L 343,753L 342,752L 341,751L 340,750L 339,749L 338,748.1855L 337,747.3524L 336,746.4966L 335,745.6167L 334,744.7137L 333,743.79L 332,742.8484L 331,741.8922L 330,740.9245L 329,739.9478L 328,738.9643L 327,737.9759L 326,736.9839L 325,735.9893L 324,734.993L 323,733.9954L 322,732.9971L 321,731.9981L 320,730.9988L 319,729.9992L 318,728.9995L 317,727.9997L 316,726.9998L 315,725.9999L 314,724.9999L 313,724L 312,723L 311,722L 310,721L 309,720L 308,719L 306.002,717L 304.0215,715L 302.1094,713L 300.3438,711L 298.7539,709L 298,708L 296.0215,706L 294.1094,704L 292.3438,702L 290.7539,700L 290,699L 288.0215,697L 286.1094,695L 284.3438,693L 282.7539,691L 282,690L 281.0879,689L 279.3418,687L 277.7539,685L 277,684L 276.0879,683L 274.3418,681L 272.7539,679L 272,678L 270.3223,676L 268.752,674L 268,673L 266.3223,671L 264.752,669L 264,668L 262.3223,666L 260.752,664L 260,663L 259.2344,662L 257.7344,660L 257,659L 256.2344,658L 254.7344,656L 254,655L 253.2344,654L 251.7344,652L 251,651L 250.2344,650L 248.7344,648L 248,647L 246.4902,645L 245.0449,643L 243.6719,641L 243,640L 241.4902,638L 240.0449,636L 239.3584,635L 238.002,633L 236.666,631L 236,630L 234.666,628L 234,627L 232.5479,625L 231.2148,623L 230,621L 228.666,619L 228,618L 226.666,616L 226,615L 224.666,613L 224,612L 222.6753,610L 221.3848,608L 220.1616,606L 219,604L 218.376,603L 217.1611,601L 216,599L 214.7744,597L 213.6128,595L 212.5269,593L 212,592L 210.7744,590L 209.6128,588L 208.4883,585.917L 207.313,583.6221L 206.717,582.417L 205.5703,580.0352L 205.04,578.8455L 204.0049,576.3953L 203.5024,575.0785L 202.5,572.3477L 201.5117,569.4805L 200.5898,566.6226L 199.8242,563.894L 199.2461,561.2852L 199,560L 198.7344,558.7656L 198.2344,556.2656L 197.752,553.6367L 197.3223,550.8594L 197,548ZM 198.7344,487.2344L 199.0352,486.021L 199.7891,483.7349L 201.2556,482.1704L 203.488,482.0269L 205.5978,483.2164L 207.2443,485.0289L 208.7656,487L 210.2656,489L 211,490L 211.7656,491L 213.2656,493L 214,494L 215.6777,496L 217.248,498L 218,499L 218.7656,500L 220.2656,502L 221,503L 222.6777,505L 224.248,507L 225,508L 226.6777,510L 228.248,512L 229,513L 230.6777,515L 232.248,517L 233,518L 233.9121,519L 235.6582,521L 237.2461,523L 238,524L 239.6777,526L 241.248,528L 242,529L 242.9121,530L 244.6582,532L 246.2461,534L 247,535L 248.8926,537L 250.6563,539L 252.2461,541L 253,542L 253.9805,543L 255.8906,545L 257.6563,547L 259.2461,549L 260,550L 261.8926,552L 263.6563,554L 265.2461,556L 266,557L 267.998,559L 269.9785,561L 271.8906,563L 273.6563,565L 275.2461,567L 276,568L 277,569L 278.998,571L 280.9785,573L 282.8906,575L 284.6563,577L 286.2461,579L 287,580L 288,581L 289,582L 290,583L 291,584L 292,585L 293,586L 294,587L 295,588L 296,589L 297,590L 298,591L 299,592L 300,593L 301,594L 302,595L 303,596L 304,597L 305,598L 306,599L 307,600L 308,601L 309,602L 310,603L 311,604L 312,605L 313,606L 314,607L 315,608L 316,609L 317,610L 318,611L 319,612L 320,613L 321,614L 322,615L 323,616L 324,617L 325,618L 326,619L 327,620L 328,621L 329,622L 330,623L 331,624L 332,625L 333,626L 334,627L 335,628L 336,629L 337,630L 338,631L 339,631.8145L 340,632.6476L 342,634.3593L 344,636.1671L 346,638.0635L 348,640.0185L 350,642L 351,642.8036L 353,644.4545L 355,646.2096L 357,648.0726L 359,650L 360,650.7904L 362,652.4221L 364,654.1666L 366,656L 367,656.7904L 369,658.4221L 371,660.1666L 373,662L 374,662.7686L 376,664.3491L 378,666L 380,667.4844L 382,669L 383,669.666L 385,671L 386,671.666L 388,673L 389,673.666L 391,675L 393,676L 395,677L 397,678L 399,679L 401,680L 403,681L 405,682L 407,683L 410,684L 413,685L 415.668,685.666L 417,686L 419.668,686.666L 421,687L 422.5313,687.2344L 425.5313,687.7344L 427,688L 446,688L 447.4688,687.7344L 450.4688,687.2344L 452,687L 453.2344,686.7344L 455.7344,686.2344L 457,686L 460,685L 463,684L 466,683L 468.4688,682L 471,681L 473,680L 475,679L 477,678L 478,677.376L 480,676.1611L 482,675L 484,673.666L 485,673L 487,671.666L 488,671L 489,670.2344L 491,668.7344L 492,668L 494,666.1074L 496,664.3438L 498,662.7539L 499,662L 500,661.2344L 502,659.7344L 503,659L 504,658.0879L 506,656.3418L 508,654.7539L 509,654L 510,653.0195L 512,651.1094L 514,649.3438L 516,647.7539L 517,647L 518,646.002L 520,644.0215L 522,642.1094L 524,640.3438L 526,638.7539L 527,638L 529,636.002L 531,634.0215L 533,632.1094L 535,630.3438L 537,628.7539L 538,628L 540,626.002L 542,624.0215L 544,622.1094L 546,620.3438L 548,618.7539L 549,618L 551,616.002L 553,614.0215L 555,612.1094L 557,610.3438L 559,608.7539L 560,608L 561,607L 563,605.002L 565,603.0215L 567,601.1094L 569,599.3438L 571,597.7539L 572,597L 573,596L 574,595L 575,594L 576,593L 577,592L 579,590.002L 581,588.0215L 583,586.1094L 585,584.3438L 587,582.7539L 588,582L 589,581L 590,580L 591,579L 592,578L 593,577L 594,576L 596,574.002L 598,572.0215L 600,570.1094L 602,568.3438L 604,566.7539L 605,566L 606,565L 607,564L 608,563L 609,562L 610,561L 611,560L 612,559L 613,558L 614,557L 615,556L 616,555L 618,553.002L 620,551.0215L 622,549.1094L 624,547.3438L 626,545.7539L 627,545L 628,544L 629,543L 630,542L 631,541L 632,540L 633,539L 634,538L 635,537L 636,536L 638,534.002L 640,532.0215L 642,530.1094L 644.0039,528.3457L 645.0215,527.564L 647.1074,526.0957L 649.334,524.813L 650.541,524.28L 653.0352,523.3782L 654.3359,523.1255L 655.6318,522.9961L 656.9069,522.9903L 658.1499,523.1044L 659.3553,523.333L 660.5224,523.6699L 661.6536,524.1081L 662.7536,524.6401L 663.8279,525.2569L 664.8817,525.9489L 665.9199,526.7059L 666.9465,527.5177L 667.9647,528.3744L 668.977,529.2672L 669.9852,530.1883L 670.9905,531.1311L 671.994,532.0903L 672.9962,533.0615L 673.9977,534.0414L 674.9986,535.0277L 676.9997,537.0089L 678.9999,539.0025L 681,541.0006L 683,543.0001L 685,545L 686,545.8145L 687,546.6476L 688,547.5034L 689,548.3833L 690,549.2863L 691,550.21L 692,551.1516L 693,552.1078L 694,553.0755L 695,554.0522L 695.999,555.0357L 696.9917,556.0241L 697.9636,557.0161L 698.889,558.0107L 699.733,559.007L 700.4421,560.0358L 700.969,561.1123L 701.2857,562.2284L 701.3853,563.3645L 701.2776,564.5007L 700.9836,565.6235L 700.5296,566.7259L 699.9432,567.8063L 699.2508,568.8667L 698.4756,569.9103L 697.6373,570.9408L 696.752,571.9616L 695.8322,572.9755L 694.8876,573.9846L 693.9254,574.9904L 692.9509,575.9941L 691.968,576.9964L 690.9793,577.9978L 689.9867,578.9987L 688.9915,579.9992L 687.9946,580.9995L 686.9966,581.9997L 685.9979,582.9998L 684.9987,583.9999L 683.9992,584.9999L 682.9995,586L 681.9997,587L 680.9998,588L 679.9999,589L 678.9999,590L 678,591L 677,592L 676,593L 675,594L 674,595L 673,596L 672,597L 671,598L 670,599L 669,600L 667,602L 666,603L 665,604L 664,605L 663,606L 661,608L 660,609L 659,610L 658,611L 656,612.998L 654,614.9785L 652,616.8906L 650,618.6563L 648,620.2461L 647,621L 646,622L 645,623L 644,624L 643,625L 642,626L 641,627L 640,628L 638,629.998L 636,631.9785L 634,633.8906L 632,635.6563L 630,637.2461L 629,638L 628,639L 627,640L 626,641L 625,642L 624,643L 623,644L 621,645.998L 619,647.9785L 617,649.8906L 615,651.6563L 613,653.2461L 612,654L 611,655L 610,656L 609,657L 607,658.998L 605,660.9785L 603,662.8906L 601,664.6563L 599,666.2461L 598,667L 597,668L 596,669L 595,670L 593,671.998L 591,673.9785L 589,675.8906L 587,677.6563L 585,679.2461L 584,680L 582,681.998L 580,683.9785L 578,685.8906L 576,687.6563L 574,689.2461L 573,690L 571,691.9785L 569,693.8906L 567,695.6563L 565,697.2461L 564,698L 563,698.9805L 561,700.8906L 559,702.6563L 557,704.2461L 556,705L 554,706.8926L 552,708.6563L 550,710.2461L 549,711L 548,711.9121L 546,713.6582L 544,715.2461L 543,716L 541,717.6777L 539,719.248L 538,720L 536,721.5098L 534,722.9551L 533,723.6416L 532,724.3198L 531,724.9924L 530,725.6583L 528,726.9692L 526,728.2209L 524,729.387L 522,730.4731L 521,731L 519.8594,731.624L 517.4961,732.8389L 516.248,733.4194L 513.9102,734.5L 512.7734,735L 511.5796,735.5L 509.0776,736.498L 506.3789,737.4805L 503.5781,738.4102L 502.1765,738.8281L 500.7887,739.2222L 498.0392,739.9707L 495.3094,740.6479L 492.5,741.25L 489.5293,741.7646L 488,742L 486.4961,742.248L 483.3555,742.6777L 480,743L 478.5508,743.2441L 475.582,743.6348L 472.5,743.7813L 469.418,743.6348L 466.4492,743.2441L 465,743L 461.6445,742.6777L 458.5039,742.248L 457,742L 453.9805,741.5098L 451.0898,740.9551L 449.7168,740.6416L 447.0039,739.998L 445.6611,739.6626L 442.957,738.9717L 441.5776,738.5969L 440.1792,738.2007L 437.3467,737.3657L 434.4619,736.4539L 431.5928,735.4888L 428.8408,734.4983L 427.5472,733.9991L 426.2755,733.4995L 423.7763,732.5L 422.582,732L 420.2668,731L 419.1796,730.5L 417.0574,729.5L 416.0352,729L 414.0074,728L 413.0042,727.5L 411.0005,726.5L 409,725.498L 407,724.4805L 405,723.4102L 403,722.2461L 401,721L 400,720.4297L 399,719.8389L 397,718.6172L 395,717.3271L 394,716.6636L 392,715.334L 391,714.667L 389,713.3257L 387,711.9507L 385,710.5073L 383,709L 381,707.6357L 379,706.2002L 377,704.6475L 375,703L 373,701.4224L 371,699.7556L 369,698L 368,697.1855L 367,696.3524L 366,695.4966L 364,693.7368L 362,691.8847L 360,689.9587L 358,687.9886L 356,686L 354,684.3928L 352,682.6992L 350,680.8889L 348,679L 347,678.1855L 346,677.3524L 345,676.4966L 343,674.7368L 341,672.8847L 339,670.9587L 337,668.9886L 335,667L 334,666.1855L 333,665.3524L 332,664.4966L 331,663.6167L 330,662.7137L 329,661.79L 328,660.8484L 327,659.8922L 326,658.9245L 325,657.9478L 324,656.9643L 323,655.9759L 322,654.9839L 321,653.9893L 320,652.993L 319,651.9954L 318,650.9971L 317,649.9981L 316,648.9988L 315,647.9992L 314,646.9995L 312.002,644.9999L 310.0215,643L 308.1094,641L 306.3438,639L 304.7539,637L 304,636L 303,635L 302,634L 301,633L 300,632L 298.002,630L 296.0215,628L 294.1094,626L 292.3438,624L 290.7539,622L 290,621L 289.002,620L 287.0215,618L 285.1094,616L 283.3438,614L 281.7539,612L 281,611L 280.0195,610L 278.1094,608L 276.3438,606L 274.7539,604L 274,603L 272.1074,601L 270.3438,599L 268.7539,597L 268,596L 266.1074,594L 264.3438,592L 262.7539,590L 262,589L 261.0879,588L 259.3418,586L 257.7539,584L 257,583L 256.0879,582L 254.3418,580L 252.7539,578L 252,577L 250.3223,575L 248.752,573L 248,572L 246.3223,570L 244.752,568L 244,567L 242.3223,565L 240.752,563L 240,562L 238.3223,560L 236.752,558L 236,557L 235.2344,556L 233.7344,554L 233,553L 231.3223,551L 229.752,549L 229,548L 228.2344,547L 226.7344,545L 226,544L 225.2344,543L 223.7344,541L 223,540L 222.2344,539L 220.7344,537L 220,536L 218.4902,534L 217.0449,532L 215.6719,530L 215,529L 214.2344,528L 212.7344,526L 212,525L 210.4902,523L 209.0449,521L 207.6719,519L 207,518L 206.2363,517L 205.4985,516L 204.082,514L 203.4353,513L 202.8184,512L 201.6394,509.998L 200.5679,507.9785L 199.6206,505.8906L 198.8455,503.6563L 198.5497,502.4512L 198.0215,499.959L 197.6563,497.3535L 197.5693,494.7539L 197.6885,493.4951L 198.021,490.9854L 198.4844,488.4844ZM 707,523L 706,522L 705,521.1855L 704,520.3524L 703,519.4966L 702,518.6167L 701,517.7137L 700,516.79L 699,515.8484L 698,514.8922L 697,513.9245L 695,511.971L 693,509.9906L 691,507.9975L 689,505.9995L 687,504L 685,502.3709L 683,500.6677L 681,498.8568L 679,496.9533L 677,495L 675,493.3928L 673,491.6992L 671,489.8889L 669,488L 667,486.4224L 665,484.7556L 663,483L 662,482.334L 660,481L 658,480L 656,479L 654,478L 652,477L 649,476L 646,475L 643.332,474.334L 642,474L 629,474L 627.668,474.334L 625,475L 622,476L 620,477L 618,478L 616,479L 615,479.7656L 613,481.2656L 612,482L 611,482.998L 609,484.9785L 607,486.8906L 605,488.6563L 603,490.2461L 602,491L 601,492L 600,493L 598,494.998L 596,496.9785L 594,498.8906L 592,500.6563L 590,502.2461L 589,503L 588,504L 586,505.998L 584,507.9785L 582,509.8906L 580,511.6563L 578,513.2461L 577,514L 575,515.998L 573,517.9785L 571,519.8906L 569,521.6563L 567,523.2461L 566,524L 565,525L 563,526.998L 561,528.9785L 559,530.8906L 557,532.6563L 555,534.2461L 554,535L 552,536.998L 550,538.9785L 548,540.8906L 546,542.6563L 544,544.2461L 543,545L 541,546.998L 539,548.9785L 537,550.8906L 535,552.6563L 533,554.2461L 532,555L 531,555.998L 529,557.9785L 527,559.8906L 525,561.6563L 523,563.2461L 522,564L 521,564.998L 519,566.9785L 517,568.8906L 515,570.6563L 513,572.2461L 512,573L 511,573.998L 509,575.9785L 507,577.8906L 505,579.6563L 503,581.2461L 502,582L 500,583.9785L 498,585.8906L 496,587.6563L 494,589.2461L 493,590L 491,591.9785L 489,593.8906L 487,595.6563L 485,597.2461L 484,598L 483,598.9805L 481,600.8906L 479,602.6563L 477,604.2461L 476,605L 475,605.9805L 473,607.8906L 471,609.6563L 469,611.2461L 468,612L 466,613.8926L 464,615.6563L 462,617.2461L 461,618L 459,619.6777L 457,621.248L 456,622L 454,623.5098L 453,624.2324L 452,624.9365L 451,625.6235L 449,626.9617L 448,627.5909L 446,628.8033L 443.9961,629.9269L 442.9785,630.4538L 440.8887,631.4888L 439.7617,631.9935L 438.5791,632.4944L 436.1221,633.478L 433.5352,634.3906L 430.9141,635.1563L 429.6084,635.4512L 428.2666,635.7305L 425.4546,636.251L 422.3164,636.6543L 418.8242,636.8691L 415.1758,636.8691L 411.6836,636.6523L 410.1045,636.4351L 407.0762,635.9063L 404.2158,635.2104L 402.8003,634.7981L 399.9751,633.9265L 398.5928,633.4536L 395.9102,632.4888L 394.667,631.9935L 393.4775,631.4963L 391.1918,630.4976L 389.0591,629.4804L 387.0131,628.4102L 385.0018,627.2461L 383,626L 382,625.4185L 380,624.2173L 378,622.9185L 376,621.5015L 375,620.7507L 373,619.2314L 371,617.6509L 369,616L 368,615.1964L 366,613.5455L 364,611.7904L 362,609.9274L 360,608L 359,607.1855L 357,605.5193L 355,603.7621L 353,601.9039L 351,599.9704L 349,598L 348,597.1855L 347,596.3524L 346,595.4966L 345,594.6167L 344,593.7137L 343,592.79L 341,590.9069L 339,588.9653L 337,586.9894L 335,584.9975L 333,583L 332,582.1855L 331,581.3524L 330,580.4966L 329,579.6167L 328,578.7137L 327,577.79L 326,576.8484L 325,575.8922L 324,574.9245L 323,573.9478L 322,572.9643L 321,571.9759L 320,570.9839L 319,569.9893L 318,568.993L 317,567.9954L 316,566.9971L 315,565.9981L 314,564.9988L 313,563.9992L 312,562.9995L 311,561.9997L 310,560.9998L 309,559.9999L 308,558.9999L 307,558L 306,557L 305,556L 304,555L 303,554L 302,553L 301,552L 300,551L 299,550L 298,549L 297,548L 295,546L 294,545L 293,544L 292,543L 291,542L 289,540L 288,539L 287,538L 286,537L 284,535L 283,534L 282,533L 280,531L 279,530L 278,529L 276,527L 274.002,525L 272.0215,523L 270.1094,521L 268.3438,519L 266.7539,517L 266,516L 265,515L 263.002,513L 261.0215,511L 259.1094,509L 257.3438,507L 255.7539,505L 255,504L 253.0215,502L 251.1094,500L 249.3438,498L 247.7539,496L 247,495L 246.0195,494L 244.1094,492L 242.3438,490L 240.7539,488L 240,487L 239.0879,486L 237.3418,484L 235.7539,482L 235,481L 234.0879,480L 232.3418,478L 230.7539,476L 230,475L 228.3223,473L 226.752,471L 226,470L 225.2344,469L 223.7344,467L 223,466L 222.2344,465L 220.7344,463L 220,462L 218.4902,460L 217.0449,458L 216.3584,457L 215.002,455L 213.666,453L 213.0146,451.9648L 211.8408,449.8389L 211.46,448.7314L 210.999,446.5005L 211.1177,444.2744L 211.6973,442.1128L 212.5391,440.0269L 213,439L 213.5,437.7744L 214.5,435.3877L 215.0059,434.261L 215.5332,433.1693L 216.1035,432.138L 216.7959,431.204L 218.4421,429.6754L 220.4614,429.0798L 222.4631,429.6629L 223.3314,430.3932L 225.0295,432.0618L 226.6777,434L 228.248,436L 229,437L 230.6777,439L 232.248,441L 233,442L 233.9121,443L 235.6582,445L 237.2461,447L 238,448L 239.6777,450L 241.248,452L 242,453L 243.8926,455L 245.6563,457L 247.2461,459L 248,460L 249.8926,462L 251.6563,464L 253.2461,466L 254,467L 255.9785,469L 257.8906,471L 259.6563,473L 261.2461,475L 262,476L 263.9785,478L 265.8906,480L 267.6563,482L 269.2461,484L 270,485L 271,486L 272,487L 273,488L 274,489L 275.998,491L 277.9785,493L 279.8906,495L 281.6563,497L 283.2461,499L 284,500L 285,501L 286,502L 287,503L 288,504L 289,505L 290,506L 291,507L 292,508L 293,509L 294,510L 295,511L 296,512L 297,513L 298,514L 299,515L 300,516L 301,517L 302,518L 303,519L 304,520L 305,521L 306,522L 307,523L 308,524L 309,525L 310,526L 311,527L 312,528L 313,529L 314,529.8145L 315,530.6476L 316,531.5034L 318,533.2632L 320,535.1153L 322,537.0413L 324,539.0114L 326,541L 327,541.7904L 329,543.4221L 331,545.1666L 333,547L 335,548.6072L 337,550.3008L 339,552.1111L 341,554L 342,554.7686L 344,556.3491L 346,558L 348,559.5776L 350,561.2444L 352,563L 353,563.666L 355,565L 357,566L 359,567L 361,568L 363,569L 366,570L 369,571L 387,571L 390,570L 393,569L 395,568L 397,567L 399,566L 401,564.666L 402,564L 404,562.3223L 406,560.752L 407,560L 409,558.002L 411,556.0215L 413,554.1094L 415,552.3438L 417,550.7539L 418,550L 420,548.002L 422,546.0215L 424,544.1094L 426,542.3438L 428,540.7539L 429,540L 430,539.002L 432,537.0215L 434,535.1094L 436,533.3438L 438,531.7539L 439,531L 441,529.002L 443,527.0215L 445,525.1094L 447,523.3438L 449,521.7539L 450,521L 452,519.002L 454,517.0215L 456,515.1094L 458,513.3438L 460,511.7539L 461,511L 462,510.002L 464,508.0215L 466,506.1094L 468,504.3438L 470,502.7539L 471,502L 473,500.002L 475,498.0215L 477,496.1094L 479,494.3438L 481,492.7539L 482,492L 484,490.002L 486,488.0215L 488,486.1094L 490,484.3438L 492,482.7539L 493,482L 495,480.002L 497,478.0215L 499,476.1094L 501,474.3438L 503,472.7539L 504,472L 506,470.002L 508,468.0215L 510,466.1094L 512,464.3438L 514,462.7539L 515,462L 516,461.002L 518,459.0215L 520,457.1094L 522,455.3438L 524,453.7539L 525,453L 527,451.002L 529,449.0215L 531,447.1094L 533,445.3438L 535,443.7539L 536,443L 538,441.002L 540,439.0215L 542,437.1094L 544,435.3438L 546,433.7539L 547,433L 549,431.0215L 551,429.1094L 553,427.3438L 555,425.7539L 556,425L 558,423.4902L 559,422.7676L 560,422.0635L 561,421.3765L 563,420.0383L 564,419.4091L 566,418.1967L 568.0039,417.0731L 569.0215,416.5462L 571.1113,415.5112L 572.2383,415.0065L 574.6152,414.0009L 575.9268,413.5005L 578.6328,412.5117L 581.4102,411.5898L 584.1118,410.8242L 585.4136,410.5352L 586.7489,410.2607L 589.546,409.7451L 591.0953,409.5337L 592.6463,409.3533L 595.6533,409.0688L 597.0376,409.0139L 599.7852,408.9834L 602.625,409.0918L 605.6055,409.3438L 607.0752,409.563L 609.9629,410.0938L 612.7881,410.7896L 614.2017,411.2019L 617.0249,412.0735L 618.4072,412.5464L 621.0898,413.5132L 623.5762,414.5212L 625.8479,415.59L 627.9614,416.7539L 630,418L 631,418.5815L 633,419.7827L 635,421.0815L 636,421.79L 637,422.521L 639,424.0226L 641,425.6085L 643,427.3008L 645,429.1111L 647,431L 648,431.8145L 649,432.6476L 651,434.3593L 653,436.1671L 655,438.0635L 657,440.0185L 659,442L 660,442.8145L 661,443.6476L 662,444.5034L 663,445.3833L 664,446.2863L 665,447.21L 666,448.1516L 668,450.0639L 670,452.0227L 672,454.0066L 674,456.0015L 676,458L 677,458.8145L 678,459.6476L 679,460.5034L 680,461.3833L 681,462.2863L 682,463.21L 683,464.1516L 684,465.1078L 685,466.0755L 686,467.0522L 687,468.0357L 688,469.0241L 689,470.0161L 690,471.0107L 691,472.007L 692,473.0046L 693,474.0029L 694,475.0019L 695,476.0012L 696,477.0008L 697,478.0005L 698,479.0003L 699,480.0002L 700,481.0001L 701,482.0001L 702,483L 703,484L 704,485L 705,486L 706,487L 707,488L 708,489L 709,490L 710,491L 711,492L 712,493L 713,494L 715,496L 716,497L 717,498L 718,499L 719,500L 721,502L 722,503L 723,504L 724,505L 725,506L 726.998,508L 728.9785,510L 730.8906,512L 732.6563,514L 734.2461,516L 735,517L 736,518L 737,519L 738,520L 739,521L 740.998,523L 742.9785,525L 744.8906,527L 746.6563,529L 748.2461,531L 749,532L 750.998,534L 752.9785,536L 754.8906,538L 756.6563,540L 758.2461,542L 759,543L 760.9785,545L 762.8906,547L 764.6563,549L 766.2461,551L 767,552L 768.8926,554L 770.6563,556L 772.2461,558L 773,559L 774.8926,561L 776.6563,563L 778.2461,565L 779,566L 780.6777,568L 782.248,570L 783,571L 783.9121,572L 785.6582,574L 787.2461,576L 788,577L 789.6777,579L 791.248,581L 792,582L 792.7656,583L 794.2656,585L 795,586L 796.6777,588L 798.248,590L 799,591L 799.7498,592.001L 800.4719,593.0063L 801.8267,595.0371L 802.3723,596.084L 803.2443,598.2231L 803.4302,599.3308L 803.5297,601.5564L 803.3336,602.6611L 802.7677,604.8364L 802.3534,605.8884L 801.464,607.9626L 800.9789,608.9769L 799.9966,610.9949L 799.4981,611.9971L 798.9716,613.0091L 797.8065,614.9986L 797.0566,615.8136L 795.3369,616.9352L 793.2852,616.8857L 791.2002,615.7247L 789.3496,613.9553L 787.751,611.9955L 787,611L 785.3223,609L 783.752,607L 783,606L 781.1074,604L 779.3438,602L 777.7539,600L 777,599L 776.0879,598L 774.3418,596L 772.7539,594L 772,593L 770.1074,591L 768.3438,589L 766.7539,587L 766,586L 765.0195,585L 763.1094,583L 761.3438,581L 759.7539,579L 759,578L 757.0215,576L 755.1094,574L 753.3438,572L 751.7539,570L 751,569L 750,568L 748.002,566L 746.0215,564L 744.1094,562L 742.3438,560L 740.7539,558L 740,557L 739,556L 738,555L 737,554L 736,553L 735,552L 734,551L 733,550L 732,549L 731,548L 730,547L 728.002,545L 726.0215,543L 724.1094,541L 722.3438,539L 720.7539,537L 720,536L 719,535L 718,534L 717,533L 716,532L 715,531L 714,530L 713,529L 712,528L 711,527L 710,526L 709,525L 708,524ZM 325,495.971L 324,494.9808L 323,493.9875L 322,492.9919L 321,491.9948L 320,490.9967L 319.002,489.9979L 318.0146,488.9987L 317.0581,487.9992L 316.1638,486.9995L 315.3702,485.9997L 314.7156,484.9998L 314.2312,483.9999L 313.9367,482.9999L 313.8385,482L 313.9312,481L 314.2001,480L 314.6246,479L 315.1812,478L 315.8464,477L 316.5983,476L 317.4175,475L 318.2878,474L 319.1962,473L 320.1323,472L 321.0883,471L 322.0584,470L 323.0383,469L 324.0249,468L 325.016,467L 326.0103,466L 327.0065,465L 328.0041,464L 329.0026,463L 330.0016,462L 331.001,461L 332.0006,460L 333.0004,459L 334.0002,458L 335.0001,457L 336.0001,456L 337.0001,455L 338,454L 339,453L 340,452L 341,451L 343,449.002L 345,447.0215L 347,445.1094L 349,443.3438L 351,441.7539L 352,441L 353,440L 354,439L 355,438L 356,437L 357,436L 358,435L 359,434L 360,433L 361,432L 363,430.002L 365,428.0215L 367,426.1094L 369,424.3438L 371,422.7539L 372,422L 373,421L 374,420L 375,419L 376,418L 377,417L 378,416L 379,415L 380,414L 382,412.002L 384,410.0215L 386,408.1094L 388,406.3438L 390,404.7539L 391,404L 392,403L 393,402L 394,401L 395,400L 396,399L 397,398L 399,396.002L 401,394.0215L 403,392.1094L 405,390.3438L 407,388.7539L 408,388L 409,387L 410,386L 411,385L 413,383.002L 415,381.0215L 417,379.1094L 419,377.3438L 421,375.7539L 422,375L 423,374L 424,373L 426,371.002L 428,369.0215L 430,367.1094L 432,365.3438L 434,363.7539L 435,363L 437,361.002L 439,359.0215L 441,357.1094L 443,355.3438L 445,353.7539L 446,353L 448,351.0215L 450,349.1094L 452,347.3438L 454,345.7539L 455,345L 456,344.0195L 458,342.1094L 460,340.3438L 462,338.7539L 463,338L 464,337.0879L 466,335.3418L 468,333.7539L 469,333L 470,332.0879L 472,330.3418L 474,328.7539L 475,328L 476,327.1611L 478,325.5439L 480,324.0557L 481,323.3643L 483,322.0024L 485,320.666L 486,320L 487,319.3376L 489,318.0305L 490,317.4048L 492,316.1963L 493,315.6347L 494,315.0905L 496.0039,314.0287L 498.0391,313.0065L 500.1797,312.0009L 502.5078,311.0001L 503.7539,310.5L 506.25,309.502L 508.8125,308.5195L 511.4922,307.5898L 512.8662,307.1719L 515.6074,306.3838L 516.9634,306.0283L 519.6304,305.3491L 522.2051,304.7471L 524.7344,304.2344L 527.4688,303.7344L 530.4688,303.2344L 532,303L 533.5078,302.7539L 536.6875,302.3438L 540.2188,302.1094L 544.0391,302.0234L 547.9609,302.0234L 551.7813,302.1094L 555.3125,302.3438L 556.9023,302.5488L 558.3945,302.7676L 559.8018,302.9976L 562.5029,303.4868L 565.082,304.0449L 567.6836,304.6719L 570.3389,305.3364L 573.0215,306.0283L 575.6924,306.7778L 578.292,307.6128L 580.7822,308.5269L 582,309L 583.4121,309.5L 586.1582,310.5L 587.4521,311L 588.7241,311.5L 591.2236,312.5L 592.418,313L 594.7332,314L 595.8204,314.5L 597.9426,315.5L 598.9648,316L 600.9926,317L 601.9958,317.5L 603.9995,318.502L 606,319.5195L 608,320.5898L 610,321.7539L 612,323L 613,323.5703L 614,324.1611L 616,325.3828L 618,326.6729L 620,328L 621,328.5815L 623,329.7827L 625,331.0815L 627,332.4985L 629,334L 631,335.3643L 633,336.7998L 635,338.3525L 637,340L 638,340.7422L 640,342.2444L 642,343.7926L 644,345.4221L 646,347.1666L 648,349L 649,349.8145L 650,350.6476L 651,351.5034L 653,353.2632L 655,355.1153L 657,357.0413L 659,359.0114L 661,361L 662,361.8036L 664,363.4545L 666,365.2096L 668,367.0726L 670,369L 671,369.8145L 672,370.6476L 674,372.3593L 676,374.1671L 678,376.0635L 680,378.0185L 682,380L 683,380.8145L 684,381.6476L 685,382.5034L 686,383.3833L 687,384.2863L 688,385.21L 689,386.1516L 690,387.1078L 691,388.0755L 692,389.0522L 693,390.0357L 694,391.0241L 695,392.0161L 696,393.0107L 697,394.007L 698,395.0046L 699,396.0029L 700,397.0019L 701,398.0012L 702.998,400.0003L 704.9785,402.0001L 706.8906,404L 708.6563,406L 710.2461,408L 711,409L 712,410L 713,411L 714,412L 715,413L 716.998,415L 718.9785,417L 720.8906,419L 722.6563,421L 724.2461,423L 725,424L 726.998,426L 728.9785,428L 730.8906,430L 732.6563,432L 734.2461,434L 735,435L 735.9805,436L 737.8906,438L 739.6563,440L 741.2461,442L 742,443L 743.8926,445L 745.6563,447L 747.2461,449L 748,450L 748.9121,451L 750.6582,453L 752.2461,455L 753,456L 754.8926,458L 756.6563,460L 758.2461,462L 759,463L 760.6777,465L 762.248,467L 763,468L 763.9121,469L 765.6582,471L 767.2461,473L 768,474L 769.6777,476L 771.248,478L 772,479L 772.7656,480L 774.2656,482L 775,483L 776.6777,485L 778.248,487L 779,488L 779.7656,489L 781.2656,491L 782,492L 783.6777,494L 785.248,496L 786,497L 786.7656,498L 788.2656,500L 789,501L 789.7656,502L 791.2656,504L 792,505L 792.7656,506L 794.2656,508L 795,509L 795.7656,510L 797.2656,512L 798,513L 799.5098,515L 800.9551,517L 802.3281,519L 803,520L 804.5098,522L 805.9551,524L 807.3281,526L 808,527L 809.5098,529L 810.9551,531.0039L 811.6382,532.0215L 812.9688,534.1113L 814.2202,536.3613L 815.3652,538.8379L 815.8606,540.1836L 816.7405,542.957L 817.3601,545.8711L 817.6521,548.8564L 817.5898,551.8008L 817.2354,554.623L 816.7656,557.2656L 816.5156,558.5156L 815.9697,560.9707L 815.5337,562.0601L 814.7004,563.0103L 813.7452,563.5697L 810.926,563.3238L 809.2488,561.8793L 807.7329,559.989L 807,559L 806.2344,558L 804.7344,556L 804,555L 803.2344,554L 801.7344,552L 801,551L 800.2344,550L 798.7344,548L 798,547L 796.3223,545L 794.752,543L 794,542L 792.3223,540L 790.752,538L 790,537L 788.3223,535L 786.752,533L 786,532L 784.3223,530L 782.752,528L 782,527L 780.3223,525L 778.752,523L 778,522L 777.0879,521L 775.3418,519L 773.7539,517L 773,516L 772.0879,515L 770.3418,513L 768.7539,511L 768,510L 766.1074,508L 764.3438,506L 762.7539,504L 762,503L 760.1074,501L 758.3438,499L 756.7539,497L 756,496L 755.0195,495L 753.1094,493L 751.3438,491L 749.7539,489L 749,488L 748.002,487L 746.0215,485L 744.1094,483L 742.3438,481L 740.7539,479L 740,478L 739,477L 738,476L 736.002,474L 734.0215,472L 732.1094,470L 730.3438,468L 728.7539,466L 728,465L 727,464L 726,463L 725,462L 724,461L 723,460L 722,459L 721,458L 720,457L 719,456L 718,455L 717,454L 716,453L 715,452L 714,451L 713,450L 712,449L 711,448L 710,447L 709,446L 708,445L 707,444L 706,443L 705,442L 704,441L 703,440L 702,439L 701,438L 700,437L 699,436L 698,435L 697,434L 696,433L 695,432L 694,431L 693,430L 692,429L 691,428L 690,427L 689,426L 688,425L 687,424L 686,423L 685,422L 684,421L 683,420L 682,419L 681,418L 680,417L 679,416L 678,415L 677,414.1855L 676,413.3524L 674,411.6407L 672,409.8329L 670,407.9365L 668,405.9815L 666,404L 665,403.1964L 663,401.5455L 661,399.7904L 659,397.9274L 657,396L 656,395.2096L 654,393.5779L 652,391.8334L 650,390L 649,389.2096L 647,387.5779L 645,385.8334L 643,384L 642,383.2314L 640,381.6509L 638,380L 636,378.5156L 634,377L 632,375.5156L 630,374L 629,373.4297L 628,372.8389L 626,371.6172L 624,370.3271L 622,369L 620,368L 618,367L 616,366L 614,365L 612,364L 610.7344,363.5L 608.2344,362.5L 607,362L 604,361L 601,360L 598.332,359.334L 597,359L 595.7344,358.7656L 593.2344,358.2656L 592,358L 590.4492,357.9121L 587.3945,357.6582L 584.4453,357.2461L 583,357L 574,357L 572.5547,357.2461L 569.6055,357.6582L 566.5508,357.9121L 565,358L 563.668,358.334L 561,359L 559.668,359.334L 557,360L 554,361L 551,362L 548,363L 546,364L 544,365L 542,366L 540,367L 538,368L 536,369L 534,370L 532,371.334L 531,372L 530,372.7656L 528,374.2656L 527,375L 526,375.7656L 524,377.2656L 523,378L 522,378.9121L 520,380.6582L 518,382.2461L 517,383L 515,384.6777L 513,386.248L 512,387L 511,387.9121L 509,389.6582L 507,391.2461L 506,392L 504,393.9785L 502,395.8906L 500,397.6563L 498,399.2461L 497,400L 495,401.9785L 493,403.8906L 491,405.6563L 489,407.2461L 488,408L 486,409.998L 484,411.9785L 482,413.8906L 480,415.6563L 478,417.2461L 477,418L 475,419.998L 473,421.9785L 471,423.8906L 469,425.6563L 467,427.2461L 466,428L 465,429L 463,430.998L 461,432.9785L 459,434.8906L 457,436.6563L 455,438.2461L 454,439L 453,440L 451,441.998L 449,443.9785L 447,445.8906L 445,447.6563L 443,449.2461L 442,450L 441,451L 440,452L 439,453L 437,454.998L 435,456.9785L 433,458.8906L 431,460.6563L 429,462.2461L 428,463L 427,464L 426,465L 425,466L 424,467L 423,468L 421,469.998L 419,471.9785L 417,473.8906L 415,475.6563L 413,477.2461L 412,478L 411,479L 410,480L 409,481L 408,482L 407,483L 406,484L 405,485L 404,486L 403,487L 402,488L 401,489L 400,490L 398,491.998L 396,493.9785L 394,495.8906L 392,497.6563L 390,499.2461L 389,500L 388,501L 387,502L 386,503L 385,504L 384,505L 383,506L 382,507L 381,508L 380,509L 379,510L 377,511.998L 375,513.9785L 373,515.8906L 372,516.7725L 369.9961,518.4341L 368.9785,519.1604L 367.9336,519.8315L 366.8496,520.4424L 364.5908,521.5266L 363.3701,521.9109L 362.1145,522.1966L 360.8384,522.3775L 359.5574,522.45L 358.2862,522.4119L 357.0363,522.262L 355.8156,522.0009L 354.6279,521.6315L 353.4734,521.1591L 352.3501,520.5917L 351.2543,519.9393L 350.1816,519.2131L 349.1277,518.4247L 348.0886,517.5852L 347.0606,516.7049L 346.0409,515.7927L 344.0137,513.9195L 342.0038,511.9733L 340.0009,509.9926L 338.0001,507.9984L 336,506L 335,505.1855L 334,504.3524L 333,503.4966L 332,502.6167L 331,501.7137L 330,500.79L 329,499.8484L 328,498.8922L 327,497.9245ZM 308,410L 307,411L 306,412L 305,413L 304,414L 303,415L 302,416L 300,417.998L 298,419.9785L 296,421.8906L 294,423.6563L 292,425.2461L 291,426L 290,427L 288,428.998L 286,430.9785L 283.9951,432.8926L 282.9751,433.7793L 281.9268,434.6162L 280.8394,435.3955L 279.7094,436.1033L 278.5418,436.72L 277.3484,437.2234L 276.144,437.5927L 274.9427,437.8116L 273.7559,437.8713L 272.5909,437.7709L 271.4512,437.5167L 269.2251,436.7259L 267.1121,435.4351L 265.1386,433.7893L 263.351,431.9363L 261.755,429.9875L 261,429L 259.002,427L 257.0215,425L 255.1094,423L 253.3438,421L 251.7539,419L 251,418L 249.002,416L 247.0215,414L 245.1094,412L 243.3438,410L 241.7539,408L 241,407L 240.0137,406L 239.0576,405L 238.1636,404L 237.3701,403L 236.7156,402L 236.2312,401L 235.9366,400L 235.8385,399L 235.9312,398L 236.2001,397L 236.6246,396L 237.1812,395L 237.8464,394L 238.5983,393L 239.4175,392L 240.2878,391L 241.1962,390L 242.1323,389L 243.0883,388L 244.0584,387L 245.0383,386L 246.0249,385L 247.016,384L 248.0103,383L 249.0065,382L 250.0041,381L 251.0026,380L 252.0016,379L 253.001,378L 254.0006,377L 255.0004,376L 257.0001,374.002L 259,372.0215L 261,370.1094L 263,368.3438L 265,366.7539L 266,366L 267,365L 268,364L 270,362.002L 272,360.0215L 274,358.1094L 276,356.3438L 278,354.7539L 279,354L 280,353L 282,351.002L 284,349.0215L 286,347.1094L 288,345.3438L 290,343.7539L 291,343L 292,342.002L 294,340.0215L 296,338.1094L 298,336.3438L 300,334.7539L 301,334L 302,333.002L 304,331.0215L 306,329.1094L 308,327.3438L 310,325.7539L 311,325L 312,324.002L 314,322.0215L 316,320.1094L 318,318.3438L 320,316.7539L 321,316L 322,315.0195L 324,313.1094L 326,311.3438L 328,309.7539L 329,309L 331,307.0215L 333,305.1094L 335,303.3438L 337,301.7539L 338,301L 339,300.0195L 341,298.1094L 343,296.3438L 345,294.7539L 346,294L 348,292.0215L 350,290.1094L 352,288.3438L 354,286.7539L 355,286L 357,284.0215L 359,282.1094L 361,280.3438L 363,278.7539L 364,278L 365,277.0195L 367,275.1094L 369,273.3438L 371,271.7539L 372,271L 373,270.0195L 375,268.1094L 377,266.3438L 379,264.7539L 380,264L 382,262.1074L 384,260.3438L 386,258.7539L 387,258L 388,257.0879L 389,256.2148L 391,254.5547L 393,253.0566L 395,251.6729L 396,251L 398,249.4902L 400,248.0449L 401,247.3584L 402,246.6802L 403,246.0076L 405,244.6758L 407,243.3848L 409,242.1616L 411,241L 412,240.3872L 414,239.1938L 416,238.073L 418,237.019L 420,236L 421,235.3872L 423.0039,234.1938L 425.0391,233.073L 427.1797,232.0193L 429.5078,231.0032L 432,230L 433.0195,229.5L 435.1113,228.5L 437.3652,227.5L 439.8633,226.5L 442.5898,225.5L 444,225L 446.5488,224L 447.8877,223.5L 450.6421,222.502L 453.5073,221.5195L 456.3892,220.5898L 459.2192,219.7539L 462,219L 463.3906,218.5781L 466.1055,217.8242L 468.7148,217.2461L 470,217L 472.6367,216.3457L 475.2051,215.7471L 477.7344,215.2344L 479,215L 480.2344,214.7344L 482.7344,214.2344L 485.4688,213.7344L 488.4688,213.2344L 490,213L 491.4453,212.7539L 494.3945,212.3418L 497.4492,212.0879L 499,212L 500.5078,211.7539L 503.6875,211.3438L 507.2188,211.1094L 510.918,211.0215L 514.5,211.0039L 518.082,211.0215L 521.7813,211.1094L 525.3125,211.3438L 528.4922,211.7539L 530,212L 533.3555,212.3223L 534.9258,212.5371L 536.4072,212.7612L 539.21,213.2271L 541.7656,213.7344L 543,214L 545.5898,214.5352L 548.252,215.2012L 551,216L 552.3975,216.3872L 555.2158,217.1938L 556.6536,217.6334L 559.5576,218.5461L 561.0264,219.0287L 563.9434,220.0065L 566.7633,221.0009L 569.3859,222.0001L 571.7734,223L 574,224L 575.2256,224.5L 576.4189,225L 578.7332,226L 579.8204,226.5L 581.9426,227.5L 582.9648,228L 584.9926,229L 585.9958,229.5L 587.9995,230.5L 588.9997,231L 589.9999,231.5L 592,232.502L 594,233.5195L 596,234.5898L 598,235.7539L 600,237L 601,237.5176L 603,238.5898L 604,239.1719L 606,240.3838L 608,241.6729L 609,242.3364L 611,243.666L 613,245L 614,245.5815L 616,246.7827L 618,248.0815L 620,249.4985L 622,251L 623,251.6743L 625,253.0493L 627,254.4927L 629,256L 631,257.4844L 633,259L 635,260.4844L 637,262L 639,263.4844L 640,264.2422L 642,265.7686L 644,267.3491L 646,269L 648,270.5776L 650,272.2444L 652,274L 654,275.6072L 656,277.3008L 658,279.1111L 660,281L 661,281.8145L 662,282.6476L 664,284.3593L 666,286.1671L 668,288.0635L 670,290.0185L 672,292L 673,292.8145L 674,293.6476L 675,294.5034L 676,295.3833L 677,296.2863L 678,297.21L 679,298.1516L 680,299.1078L 681,300.0755L 682,301.0522L 683,302.0357L 684,303.0241L 685,304.0161L 686,305.0107L 687,306.007L 688,307.0046L 689,308.0029L 690,309.0019L 691,310.0012L 692,311.0008L 693,312.0005L 694,313.0003L 695,314.0002L 696,315.0001L 697,316.0001L 698,317L 699,318L 700.998,320L 702.9785,322L 704.8906,324L 706.6563,326L 708.2461,328L 709,329L 710,330L 711.998,332L 713.9785,334L 715.8906,336L 717.6563,338L 719.2461,340L 720,341L 720.9805,342L 722.8906,344L 724.6563,346L 726.2461,348L 727,349L 728.8926,351L 730.6563,353L 732.2461,355L 733,356L 733.9121,357L 735.6582,359L 737.2461,361L 738,362L 738.9121,363L 740.6582,365L 742.2461,367L 743,368L 744.6777,370L 746.248,372L 747,373L 747.7656,374L 749.2656,376L 750,377L 751.6777,379L 753.248,381L 754,382L 754.7656,383L 756.2656,385L 757,386L 757.7656,387L 759.2656,389L 760,390L 760.7656,391L 762.2656,393L 763,394L 763.7656,395L 765.2656,397L 766,398L 767.5098,400L 768.9551,402L 770.3281,404L 771,405L 772.5098,407L 773.9551,409L 774.6416,410L 775.998,412L 777.334,414L 778,415L 779.5098,417L 780.9551,419L 781.6416,420L 782.998,422L 784.334,424L 785,425L 786.3247,427L 787.6152,429L 788.8384,431L 790,433L 791.334,435L 792,436L 793.3247,438L 794.6152,440L 795.8384,442L 797,444L 797.624,445L 798.8389,447L 800,449L 801.2256,451L 802.3872,453L 803.4731,455L 804,456L 804.6128,457L 805.8062,459L 806.927,461.0039L 807.9807,463.0391L 808.9968,465.1797L 809.9998,467.5078L 810.4999,468.7539L 811.4824,471.2266L 812.4102,473.7266L 812.8281,475.0264L 813.6162,477.6582L 814.3271,480.3271L 814.6636,481.6636L 814.9978,482.9998L 815.6514,485.6973L 816.25,488.5L 816.7646,491.4707L 817,493L 817.1948,494.4341L 817.2588,495.7942L 816.619,497.9102L 814.7673,498.3059L 813.7885,497.6394L 812.0709,495.9865L 810.666,494L 810,493L 808.666,491L 808,490L 806.666,488L 806,487L 804.666,485L 804,484L 802.666,482L 802,481L 800.4902,479L 799.0449,477L 797.6719,475L 797,474L 795.4902,472L 794.0449,470L 792.6719,468L 792,467L 791.2344,466L 789.7344,464L 789,463L 788.2344,462L 786.7344,460L 786,459L 784.4902,457L 783.0449,455L 781.6719,453L 781,452L 780.2344,451L 778.7344,449L 778,448L 777.2344,447L 775.7344,445L 775,444L 773.3223,442L 771.752,440L 771,439L 770.2344,438L 768.7344,436L 768,435L 766.3223,433L 764.752,431L 764,430L 763.2344,429L 761.7344,427L 761,426L 760.0879,425L 758.3418,423L 756.7539,421L 756,420L 754.3223,418L 752.752,416L 752,415L 751.0879,414L 749.3418,412L 747.7539,410L 747,409L 745.1074,407L 743.3438,405L 741.7539,403L 741,402L 740.0195,401L 738.1094,399L 736.3438,397L 734.7539,395L 734,394L 732.0215,392L 730.1094,390L 728.3438,388L 726.7539,386L 726,385L 725,384L 723.002,382L 721.0215,380L 719.1094,378L 717.3438,376L 715.7539,374L 715,373L 714,372L 713,371L 712,370L 711,369L 710,368L 709,367L 708,366L 707,365L 706,364L 705,363L 703.002,361L 701.0215,359L 699.1094,357L 697.3438,355L 695.7539,353L 695,352L 694,351L 693,350L 692,349L 691,348L 690,347L 689,346L 688,345L 687,344L 686,343L 685,342L 684,341L 683,340.1855L 682,339.3524L 681,338.4966L 680,337.6167L 679,336.7137L 678,335.79L 677,334.8484L 675,332.9361L 673,330.9773L 671,328.9934L 669,326.9985L 667,325L 666,324.1964L 664,322.5455L 662,320.7904L 660,318.9274L 658,317L 657,316.2096L 655,314.5779L 653,312.8334L 651,311L 649,309.4224L 647,307.7556L 645,306L 644,305.2314L 642,303.6509L 640,302L 639,301.2314L 637,299.6509L 635,298L 633,296.5156L 631,295L 630,294.3257L 628,292.9507L 626,291.5073L 624,290L 623,289.3257L 621,287.9507L 619,286.5073L 617,285L 616,284.4297L 615,283.8389L 613,282.6172L 611,281.3271L 609,280L 608,279.4297L 606,278.248L 604,277L 602,276L 600,275L 598,274L 596,273L 594,272L 592,271L 590.7344,270.5L 588.2344,269.5L 587,269L 584,268L 581,267L 578,266L 575,265L 572.332,264.334L 571,264L 568.332,263.334L 567,263L 564.332,262.334L 563,262L 561.7344,261.7656L 559.2344,261.2656L 558,261L 555.1406,260.6777L 552.3633,260.248L 551,260L 549.3789,259.998L 545.918,259.9785L 542.2188,259.8906L 538.6875,259.6563L 535.5078,259.2461L 534,259L 530,259L 528.4922,259.2461L 525.3125,259.6563L 521.7813,259.8906L 517.9609,259.9805L 516,260L 514.6367,260.248L 511.8594,260.6777L 509,261L 507.7656,261.2656L 505.2656,261.7656L 504,262L 502.668,262.334L 500,263L 498.668,263.334L 496,264L 494.5859,264.4297L 491.7773,265.248L 489,266L 486,267L 483.5313,268L 481,269L 478.5313,270L 476,271L 474,272L 472,273L 470,274L 468,275L 466,276L 464,277L 462,278L 460,279.2256L 458,280.3872L 456,281.4731L 455,282L 453,283.334L 452,284L 450,285.334L 449,286L 447,287.334L 446,288L 444,289.334L 443,290L 441,291.334L 440,292L 439,292.7656L 437,294.2656L 436,295L 434,296.6777L 432,298.248L 431,299L 429,300.6777L 427,302.248L 426,303L 425,303.9121L 423,305.6582L 421,307.2461L 420,308L 419,308.9121L 417,310.6582L 415,312.2461L 414,313L 413,313.9805L 411,315.8906L 409,317.6563L 407,319.2461L 406,320L 405,320.9805L 403,322.8906L 401,324.6563L 399,326.2461L 398,327L 396,328.9785L 394,330.8906L 392,332.6563L 390,334.2461L 389,335L 388,335.998L 386,337.9785L 384,339.8906L 382,341.6563L 380,343.2461L 379,344L 377,345.998L 375,347.9785L 373,349.8906L 371,351.6563L 369,353.2461L 368,354L 367,355L 365,356.998L 363,358.9785L 361,360.8906L 359,362.6563L 357,364.2461L 356,365L 355,366L 354,367L 353,368L 351,369.998L 349,371.9785L 347,373.8906L 345,375.6563L 343,377.2461L 342,378L 341,379L 340,380L 339,381L 338,382L 336,383.998L 334,385.9785L 332,387.8906L 330,389.6563L 328,391.2461L 327,392L 326,393L 325,394L 324,395L 323,396L 322,397L 321,398L 320,399L 318,400.998L 316,402.9785L 314,404.8906L 312,406.6563L 310,408.2461L 309,409Z" style="fill:rgb(254,254,254);"/>
<path d="M 332,583.8145L 333,584.6476L 334,585.5034L 335,586.3833L 336,587.2863L 337,588.21L 339,590.0931L 341,592.0347L 343,594.0106L 345,596.0025L 347,598L 348,598.8145L 350,600.4807L 352,602.2379L 354,604.0961L 356,606.0296L 358,608L 359,608.8036L 361,610.4545L 363,612.2096L 365,614.0726L 367,616L 368,616.7686L 370,618.3491L 372,620L 374,621.4844L 376,623L 377,623.666L 379,625L 380,625.5703L 382,626.752L 384,628L 386,629L 388,630L 390,631L 392,632L 394,633L 397,634L 400,635L 403,636L 405.668,636.666L 407,637L 427,637L 428.2344,636.7344L 430.7344,636.2344L 432,636L 435,635L 438,634L 440,633L 442,632L 444,631L 446,630L 448,629L 450,627.666L 451,627L 453,625.666L 454,625L 455,624.2344L 457,622.7344L 458,622L 460,620.3223L 462,618.752L 463,618L 465,616.1074L 467,614.3438L 469,612.7539L 470,612L 471,611.0195L 473,609.1094L 475,607.3438L 477,605.7539L 478,605L 479,604.0195L 481,602.1094L 483,600.3438L 485,598.7539L 486,598L 488,596.0215L 490,594.1094L 492,592.3438L 494,590.7539L 495,590L 497,588.0215L 499,586.1094L 501,584.3438L 503,582.7539L 504,582L 505,581.002L 507,579.0215L 509,577.1094L 511,575.3438L 513,573.7539L 514,573L 515,572.002L 517,570.0215L 519,568.1094L 521,566.3438L 523,564.7539L 524,564L 525,563.002L 527,561.0215L 529,559.1094L 531,557.3438L 533,555.7539L 534,555L 536,553.002L 538,551.0215L 540,549.1094L 542,547.3438L 544,545.7539L 545,545L 547,543.002L 549,541.0215L 551,539.1094L 553,537.3438L 555,535.7539L 556,535L 557,534L 559,532.002L 561,530.0215L 563,528.1094L 565,526.3438L 567,524.7539L 568,524L 570,522.002L 572,520.0215L 574,518.1094L 576,516.3438L 578,514.7539L 579,514L 580,513L 582,511.002L 584,509.0215L 586,507.1094L 588,505.3438L 590,503.7539L 591,503L 592,502L 593,501L 595,499.002L 597,497.0215L 599,495.1094L 601,493.3438L 603,491.7539L 604,491L 605,490.002L 607,488.0215L 609,486.1094L 611,484.3438L 612,483.5488L 613,482.7764L 614,482.0264L 616.0039,480.582L 617.0215,479.9244L 619.1074,478.6815L 621.334,477.5769L 622.541,477.0898L 625.0391,476.1812L 626.3623,475.7937L 629.0762,475.0962L 631.9253,474.5855L 634.8716,474.3369L 637.8066,474.4111L 639.2246,474.6025L 642.0244,475.1001L 643.4048,475.4451L 646.1563,476.2021L 647.5051,476.6378L 650.1333,477.5464L 652.5898,478.5132L 654.8506,479.5212L 655.9059,480.0556L 656.9417,480.616L 658.987,481.7979L 660.9982,483.1179L 662.9999,484.6011L 665,486.2466L 667,488L 669,489.6072L 671,491.3008L 673,493.1111L 675,495L 677,496.6291L 679,498.3323L 681,500.1432L 683,502.0467L 685,504L 686,504.8145L 687,505.6476L 688,506.5034L 689,507.3833L 690,508.2863L 691,509.21L 692,510.1516L 693,511.1078L 694,512.0755L 696,514.029L 698,516.0094L 700,518.0025L 702,520.0005L 704,522L 705,522.8145L 706,523.6476L 707,524.5034L 708,525.3833L 709,526.2863L 710,527.21L 711.998,529.0931L 713.9785,531.0347L 715.8906,533.0106L 717.6563,535.0026L 719.2461,537.0004L 720,538L 721,539L 722,540L 723,541L 724,542L 725,543L 726,544L 727,545L 728,546L 729,547L 730,548L 731.998,550L 733.9785,552L 735.8906,554L 737.6563,556L 739.2461,558L 740,559L 741,560L 742.998,562L 744.9785,564L 746.8906,566L 748.6563,568L 750.2461,570L 751,571L 752.9785,573L 754.8906,575L 756.6563,577L 758.2461,579L 759,580L 759.9805,581L 761.8906,583L 763.6563,585L 765.2461,587L 766,588L 767.8926,590L 769.6563,592L 771.2461,594L 772,595L 772.9121,596L 774.6582,598L 776.2461,600L 777,601L 778.8926,603L 780.6563,605L 782.2461,607L 783,608L 784.6777,610L 786.248,612L 787,613L 787.9121,614L 789.6582,616L 791.2461,618L 792,619L 793,620L 794,621L 795,622L 796,622L 797,620L 798,618L 798.5,616.7744L 799,615.5811L 800,613.2668L 800.5,612.1796L 801.5,610.0574L 802,609.0352L 803,607.0074L 804,605.001L 805,603L 805,598L 804,596L 802.666,594L 802,593L 801.2344,592L 799.7344,590L 799,589L 797.3223,587L 795.752,585L 795,584L 794.2344,583L 792.7344,581L 792,580L 790.3223,578L 788.752,576L 788,575L 787.0879,574L 785.3418,572L 783.7539,570L 783,569L 781.3223,567L 779.752,565L 779,564L 777.1074,562L 775.3438,560L 773.7539,558L 773,557L 771.1074,555L 769.3438,553L 767.7539,551L 767,550L 765.0215,548L 763.1094,546L 761.3438,544L 759.7539,542L 759,541L 757.002,539L 755.0215,537L 753.1094,535L 751.3438,533L 749.7539,531L 749,530L 748,529L 747,528L 746,527L 745,526L 743.002,524L 741.0215,522L 739.1094,520L 737.3438,518L 735.7539,516L 735,515L 734,514L 733,513L 732,512L 731,511L 730,510L 729,509L 728,508L 727,507L 726,506L 725,505L 724,504L 723,503L 722,502L 721,501L 720,500L 719,499L 718,498L 717,497L 716,496L 715,495L 714,494L 713,493L 712,492L 711,491L 710,490L 709,489L 708,488L 707,487L 706,486L 705,485L 704,484L 703,483L 702,482L 701,481L 700,480L 699,479L 698,478L 697,477L 696,476L 695,475L 694,474L 693,473L 692,472L 691,471L 690,470L 689,469L 688,468L 687,467L 686,466L 685,465L 684,464L 683,463L 682,462L 681,461L 680,460L 679,459L 678,458L 677,457.1855L 676,456.3524L 675,455.4966L 674,454.6167L 673,453.7137L 672,452.79L 671,451.8484L 669,449.9361L 667,447.9773L 665,445.9934L 663,443.9985L 661,442L 660,441.1855L 659,440.3524L 657,438.6407L 655,436.8329L 653,434.9365L 651,432.9815L 649,431L 647,429.3928L 645,427.6992L 643,425.8889L 641,424L 639,422.5156L 637,421L 636,420.334L 634,419L 633,418.4297L 631,417.248L 629,416L 627,415L 625,414L 623,413L 620,412L 617,411L 614,410L 611.332,409.334L 610,409L 608.4492,408.9121L 605.3945,408.6582L 602.4453,408.2461L 601,408L 596,408L 594.4961,408.248L 591.3555,408.6777L 588,409L 586.7656,409.2656L 584.2656,409.7656L 583,410L 580,411L 577,412L 574,413L 572,414L 570,415L 568,416L 566,417L 564,418L 562,419.334L 561,420L 559,421.334L 558,422L 557,422.7656L 555,424.2656L 554,425L 552,426.9785L 550,428.8906L 548,430.6563L 546,432.2461L 545,433L 543,434.998L 541,436.9785L 539,438.8906L 537,440.6563L 535,442.2461L 534,443L 532,444.998L 530,446.9785L 528,448.8906L 526,450.6563L 524,452.2461L 523,453L 522,453.998L 520,455.9785L 518,457.8906L 516,459.6563L 514,461.2461L 513,462L 511,463.998L 509,465.9785L 507,467.8906L 505,469.6563L 503,471.2461L 502,472L 500,473.998L 498,475.9785L 496,477.8906L 494,479.6563L 492,481.2461L 491,482L 489,483.998L 487,485.9785L 485,487.8906L 483,489.6563L 481,491.2461L 480,492L 478,493.998L 476,495.9785L 474,497.8906L 472,499.6563L 470,501.2461L 469,502L 468,502.998L 466,504.9785L 464,506.8906L 462,508.6563L 460,510.2461L 459,511L 457,512.998L 455,514.9785L 453,516.8906L 451,518.6563L 449,520.2461L 448,521L 446,522.998L 444,524.9785L 442,526.8906L 440,528.6563L 438,530.2461L 437,531L 436,531.998L 434,533.9785L 432,535.8906L 430,537.6563L 428,539.2461L 427,540L 425,541.998L 423,543.9785L 421,545.8906L 419,547.6563L 417,549.2461L 416,550L 414,551.998L 412,553.9785L 410,555.8906L 408,557.6563L 406,559.2461L 405,560L 403,561.6758L 402,562.4478L 401,563.1775L 398.9961,564.5588L 397.9785,565.1785L 395.8887,566.3623L 393.6387,567.4517L 391.1621,568.4673L 388.4629,569.387L 387.0039,569.7608L 383.9453,570.3828L 382.2749,570.5615L 378.8452,570.7813L 377.1033,570.752L 373.6997,570.5505L 372.1013,570.3102L 369.0266,569.7086L 367.6089,569.3064L 364.8927,568.4407L 362.4138,567.485L 360.1497,566.4786L 359.0942,565.9443L 358.0584,565.384L 356.013,564.2021L 354.0018,562.8821L 352.0001,561.3989L 350,559.7534L 348,558L 347,557.2314L 345,555.6509L 343,554L 341,552.3928L 339,550.6992L 337,548.8889L 335,547L 334,546.2096L 332,544.5779L 330,542.8334L 328,541L 327,540.1855L 326,539.3524L 325,538.4966L 323,536.7368L 321,534.8847L 319,532.9587L 317,530.9886L 315,529L 314,528.1855L 313,527.3524L 312,526.4966L 311,525.6167L 310,524.7137L 309,523.79L 308,522.8484L 307,521.8922L 306,520.9245L 305,519.9478L 304,518.9643L 303,517.9759L 302,516.9839L 301,515.9893L 300,514.993L 299,513.9954L 298,512.9971L 297,511.9981L 296,510.9988L 295,509.9992L 294,508.9995L 292.002,506.9999L 290.0215,505L 288.1094,503L 286.3438,501L 284.7539,499L 284,498L 283,497L 282,496L 281,495L 280,494L 278.002,492L 276.0215,490L 274.1094,488L 272.3438,486L 270.7539,484L 270,483L 268.0215,481L 266.1094,479L 264.3438,477L 262.7539,475L 262,474L 260.0215,472L 258.1094,470L 256.3438,468L 254.7539,466L 254,465L 252.1074,463L 250.3438,461L 248.7539,459L 248,458L 246.1074,456L 244.3438,454L 242.7539,452L 242,451L 240.3223,449L 238.752,447L 238,446L 237.0879,445L 235.3418,443L 233.7539,441L 233,440L 231.3223,438L 229.752,436L 229,435L 227.3223,433L 225.752,431L 225,430L 223.3223,428L 221.752,426L 221,425L 220,424L 219,424L 218,425L 217,427L 216.5,428.2256L 215.5,430.6123L 214.5,432.8545L 213.5,434.9678L 213,436L 212,438.4521L 211,440.7852L 210,443L 210,450L 211.5098,452L 212.9551,454L 213.6416,455L 214.998,457L 216.334,459L 217,460L 217.7656,461L 219.2656,463L 220,464L 220.7656,465L 222.2656,467L 223,468L 223.7656,469L 225.2656,471L 226,472L 227.6777,474L 229.248,476L 230,477L 230.9121,478L 232.6582,480L 234.2461,482L 235,483L 235.9121,484L 237.6582,486L 239.2461,488L 240,489L 240.9805,490L 242.8906,492L 244.6563,494L 246.2461,496L 247,497L 248.9785,499L 250.8906,501L 252.6563,503L 254.2461,505L 255,506L 256,507L 257.998,509L 259.9785,511L 261.8906,513L 263.6563,515L 265.2461,517L 266,518L 267,519L 268,520L 269,521L 270,522L 271,523L 272,524L 273,525L 274,526L 275,527L 276,528L 277,529L 278,530L 279,531L 280,532L 281,533L 282,534L 283,535L 284,536L 285,537L 286,538L 287,539L 288,540L 289,541L 290,542L 291,543L 292,544L 293,545L 294,546L 295,547L 296,548L 297,549L 298,550L 299,551L 300,552L 301,553L 302,554L 303,555L 304,556L 305,557L 306,558L 307,559L 308,560L 309,561L 310,562L 311,563L 312,564L 313,565L 314,566L 315,567L 316,568L 317,569L 318,570L 319,571L 320,572L 321,573L 322,574L 323,575L 324,576L 325,577L 326,578L 327,579L 328,580L 329,581L 330,582L 331,583Z" style="fill:rgb(163,239,37);"/>
<path d="M 197.666,540L 197,539L 196,539L 196,548L 196.248,549.3633L 196.6777,552.1406L 197,555L 197.2656,556.2344L 197.7656,558.7344L 198,560L 198.2656,561.2344L 198.7656,563.7344L 199,565L 200,568L 201,571L 202,574L 203,577L 204,579.1758L 205,581.5078L 206,584L 207.2256,586L 208.3872,588L 209.4731,590L 210,591L 211.2256,593L 212.3872,595L 213.4731,597L 214,598L 214.624,599L 215.8389,601L 217,603L 217.624,604L 218.8389,606L 220,608L 221.334,610L 222,611L 223.334,613L 224,614L 225.334,616L 226,617L 227.3247,619L 228.6152,621L 229.8384,623L 231,625L 232.5098,627L 233.9551,629L 234.6416,630L 235.998,632L 237.334,634L 238,635L 239.334,637L 240,638L 241.5098,640L 242.9551,642L 244.3281,644L 245,645L 245.7656,646L 247.2656,648L 248,649L 248.7656,650L 250.2656,652L 251,653L 251.7656,654L 253.2656,656L 254,657L 254.7656,658L 256.2656,660L 257,661L 257.7656,662L 259.2656,664L 260,665L 261.6777,667L 263.248,669L 264,670L 265.6777,672L 267.248,674L 268,675L 269.6777,677L 271.248,679L 272,680L 272.9121,681L 274.6582,683L 276.2461,685L 277,686L 277.9121,687L 279.6582,689L 281.2461,691L 282,692L 283.9785,694L 285.8906,696L 287.6563,698L 289.2461,700L 290,701L 291.9785,703L 293.8906,705L 295.6563,707L 297.2461,709L 298,710L 299,711L 300,712L 301,713L 302,714L 303,715L 304,716L 305,717L 306,718L 307,719L 308,720L 309,721L 310,722L 311,723L 312,724L 313,725L 314,726L 315,727L 316,728L 317,729L 318,730L 319,731L 320,732L 321,733L 322,734L 323,735L 324,736L 325,737L 326,738L 327,739L 328,740L 329,741L 330,742L 331,743L 332,744L 333,745L 334,746L 335,747L 336,748L 337,749L 338.8926,750.5808L 340.6563,752.2634L 342.2461,754.0698L 343,755L 344,756L 345,757L 346,758L 347,759L 348,759.8145L 349,760.6476L 350,761.5034L 352,763.2632L 354,765.1153L 356,767.0413L 358,769.0114L 360,771L 361,771.7904L 363,773.4221L 365,775.1666L 367,777L 369,778.5776L 371,780.2444L 373,782L 375,783.4844L 377,785L 379,786.4844L 381,788L 383,789.4844L 385,791L 387,792.4844L 389,794L 390,794.666L 392,796L 393,796.666L 395,798L 396,798.666L 398,800L 399,800.666L 401,802L 402,802.666L 404,804L 405,804.5703L 407,805.752L 409,807L 410,807.5703L 412,808.752L 414,810L 415,810.502L 417,811.5195L 419,812.5898L 421,813.7539L 423,815L 425,816L 427,817L 428.2256,817.5L 429.4189,818L 431.7332,819L 433.9077,820L 435.9778,821L 438,822L 439.2656,822.5L 441.7656,823.5L 443,824L 444.2656,824.5L 446.7656,825.5L 448,826L 451,827L 454,828L 457,829L 459.668,829.666L 461,830L 463.668,830.666L 465,831L 467.668,831.666L 469,832L 470.2656,832.2344L 472.7656,832.7344L 474,833L 476.8594,833.3223L 479.6367,833.752L 481,834L 520,834L 521.5039,833.752L 524.6445,833.3223L 528,833L 529.4688,832.7344L 532.4688,832.2344L 534,832L 535.2344,831.7344L 537.7344,831.2344L 539,831L 540.2344,830.7344L 542.7344,830.2344L 544,830L 545.332,829.666L 548,829L 549.332,828.666L 552,828L 553.332,827.666L 556,827L 559,826L 562,825L 565,824L 568,823L 571,822L 574,821L 576.4688,820L 579,819L 581.0391,818L 583.1797,817L 585.5078,816L 588,815L 590,814L 592,813L 594,812L 596,811L 598,809.7744L 600,808.6128L 602,807.5269L 603,807L 604,806.376L 606,805.1611L 608,804L 610,802.666L 611,802L 613,800.666L 614,800L 616,798.666L 617,798L 619,796.666L 620,796L 621,795.2344L 623,793.7344L 624,793L 626,791.3223L 628,789.752L 629,789L 630,788.002L 632,786.0215L 634,784.1094L 636,782.3438L 638,780.7539L 639,780L 641,778.0215L 643,776.1094L 645,774.3438L 647,772.7539L 648,772L 650,770.0215L 652,768.1094L 654,766.3438L 656,764.7539L 657,764L 658,763.0195L 660,761.1094L 662,759.3438L 664,757.7539L 665,757L 667,755.0215L 669,753.1094L 671,751.3438L 673,749.7539L 674,749L 676,747.0215L 678,745.1094L 680,743.3438L 682,741.7539L 683,741L 684,740.0195L 686,738.1094L 688,736.3438L 690,734.7539L 691,734L 693,732.0215L 695,730.1094L 697,728.3438L 699,726.7539L 700,726L 701,725.002L 703,723.0215L 705,721.1094L 707,719.3438L 709,717.7539L 710,717L 711,716.002L 713,714.0215L 715,712.1094L 717,710.3438L 719,708.7539L 720,708L 722,706.002L 724,704.0215L 726,702.1094L 728,700.3438L 730,698.7539L 731,698L 732,697L 734,695.002L 736,693.0215L 738,691.1094L 740,689.3438L 742,687.7539L 743,687L 744,686L 745,685L 746,684L 748,682.002L 750,680.0215L 752,678.1094L 754,676.3438L 756,674.7539L 757,674L 758,673L 759,672L 760,671L 761,670L 762,669L 763,668L 764,667L 765,666L 766,665L 767,664L 768,663L 769,662L 770,661L 771,660L 772,659L 773,658L 774,657L 775,656L 776,655L 777,654L 778,653L 779,652L 780,651L 781,650L 782,649L 783,648L 783,647L 782.0879,646L 780.3418,644L 778.7539,642L 778,641L 776.002,639L 774.0215,637L 772.1094,635L 770.3438,633L 768.7539,631L 768,630L 766.002,628L 764.0215,626L 762.1094,624L 760.3438,622L 758.7539,620L 758,619L 756.002,617L 754.0215,615L 752.1094,613L 750.3438,611L 748.7539,609L 748,608L 747,607L 745,606L 739,606L 737,607L 735,608L 734,608.9805L 732,610.8906L 730,612.6563L 728,614.2461L 727,615L 726,616L 725,617L 724,618L 723,619L 722,620L 721,621L 720,622L 718,623.998L 716,625.9785L 714,627.8906L 712,629.6563L 710,631.2461L 709,632L 708,633L 707,634L 706,635L 705,636L 704,637L 703,638L 702,639L 701,640L 699,641.998L 697,643.9785L 695,645.8906L 693,647.6563L 691,649.2461L 690,650L 689,651L 688,652L 687,653L 686,654L 684,655.998L 682,657.9785L 680,659.8906L 678,661.6563L 676,663.2461L 675,664L 674,665L 673,666L 672,667L 670,668.998L 668,670.9785L 666,672.8906L 664,674.6563L 662,676.2461L 661,677L 660,678L 658,679.998L 656,681.9785L 654,683.8906L 652,685.6563L 650,687.2461L 649,688L 648,689L 646,690.998L 644,692.9785L 642,694.8906L 640,696.6563L 638,698.2461L 637,699L 636,699.998L 634,701.9785L 632,703.8906L 630,705.6563L 628,707.2461L 627,708L 626,708.9805L 624,710.8906L 622,712.6563L 620,714.2461L 619,715L 618,715.9805L 616,717.8906L 614,719.6563L 612,721.2461L 611,722L 609,723.8926L 607,725.6563L 605,727.2461L 604,728L 602,729.8926L 600,731.6563L 598,733.2461L 597,734L 596,734.9121L 594,736.6582L 592,738.2461L 591,739L 589,740.6777L 587,742.248L 586,743L 584,744.6777L 582,746.248L 581,747L 579,748.5098L 577,749.9551L 575,751.3281L 574,752L 573,752.7656L 571,754.2656L 570,755L 569,755.8389L 567,757.4561L 565,758.9443L 564,759.6357L 563,760.3167L 562,760.9907L 560,762.3241L 558,763.6152L 556,764.8384L 554,766L 553,766.6128L 551,767.8062L 550,768.3666L 548,769.4539L 547,769.9713L 545,770.9935L 542.9961,771.9991L 540.9609,772.9999L 538.8203,774L 536.4922,775L 535.2461,775.5L 533.9961,776L 532.7236,776.5L 530.1162,777.498L 527.3853,778.4805L 524.5786,779.4102L 523.1768,779.8281L 520.4009,780.6162L 517.6814,781.3271L 516.3407,781.6636L 515.0024,781.9978L 512.3027,782.6514L 509.5,783.25L 506.5293,783.7646L 505,784L 503.5313,784.2656L 500.5313,784.7656L 499,785L 497.5078,785.2461L 494.4375,785.6563L 491.2383,785.8926L 488,786L 484.9453,786.4297L 481.7656,786.6641L 478.5566,786.5908L 475.4863,786.2354L 474,786L 472.4492,785.9121L 469.3945,785.6582L 466.4453,785.2461L 465,785L 463.5703,784.8389L 460.752,784.4561L 458.0137,783.9443L 455.332,783.3271L 454,783L 452.7324,782.7539L 451.4541,782.4878L 448.8594,781.9043L 446.167,781.2056L 443.3594,780.3853L 440.4639,779.4731L 439,779L 436.2266,778.2256L 433.4727,777.3867L 430.7979,776.4673L 428.2451,775.4946L 427,775L 425.6133,774.5L 422.9204,773.498L 420.4263,772.4805L 418.1523,771.4102L 416.0386,770.2461L 414,769L 413,768.4824L 411,767.4102L 409,766.2461L 407,765L 406,764.4297L 405,763.8389L 403,762.6172L 401,761.3271L 400,760.6636L 398,759.3257L 396,757.9507L 394,756.5073L 392,755L 391,754.3257L 389,752.9507L 387,751.5073L 385,750L 383,748.5156L 382,747.7578L 380,746.2314L 378,744.6509L 376,743L 375,742.2314L 373,740.6509L 371,739L 369,737.4224L 367,735.7556L 365,734L 364,733.2096L 362,731.5779L 360,729.8334L 358,728L 356,726.3709L 354,724.6677L 352,722.8568L 350,720.9533L 348,719L 347,718.1855L 346,717.3524L 345,716.4966L 344,715.6167L 342,713.8108L 340,711.9216L 338,709.9734L 336,707.993L 334,706L 333,705.1855L 332,704.3524L 331,703.4966L 330,702.6167L 329,701.7137L 328,700.79L 327,699.8484L 326,698.8922L 325,697.9245L 324,696.9478L 323,695.9643L 322,694.9759L 321,693.9839L 320,692.9893L 318.002,690.9967L 316.0215,688.9991L 314.1094,686.9998L 312.3438,685L 310.7539,683L 310,682L 309,681L 308,680L 307,679L 305.002,677L 303.0215,675L 301.1094,673L 299.3438,671L 297.7539,669L 297,668L 295.002,666L 293.0215,664L 291.1094,662L 289.3438,660L 287.7539,658L 287,657L 286.0195,656L 284.1094,654L 282.3438,652L 280.7539,650L 280,649L 279.0195,648L 277.1094,646L 275.3438,644L 273.7539,642L 273,641L 272.0879,640L 270.3418,638L 268.7539,636L 268,635L 267.0879,634L 265.3418,632L 263.7539,630L 263,629L 262.0879,628L 260.3418,626L 258.7539,624L 258,623L 256.3223,621L 254.752,619L 254,618L 252.3223,616L 250.752,614L 250,613L 248.3223,611L 246.752,609L 246,608L 245.2344,607L 243.7344,605L 243,604L 242.2344,603L 240.7344,601L 240,600L 239.2344,599L 237.7344,597L 237,596L 236.2344,595L 234.7344,593L 234,592L 233.2344,591L 231.7344,589L 231,588L 229.4902,586L 228.0449,584L 226.6719,582L 226,581L 225.2344,580L 223.7344,578L 223,577L 221.4902,575L 220.0449,573L 218.6719,571L 218,570L 216.4902,568L 215.0449,566L 214.3584,565L 213.002,563L 211.666,561L 211,560L 209.666,558L 209,557L 207.4902,555L 206.0449,553L 205.3584,552L 204.6802,551L 204.0076,550L 202.6758,548L 201.3848,546L 200.1616,544L 199,542Z" style="fill:rgb(5,139,219);"/>
<path d="M 334,667.8145L 335,668.6476L 336,669.5034L 338,671.2632L 340,673.1153L 342,675.0413L 344,677.0114L 346,679L 348,680.6072L 350,682.3008L 352,684.1111L 354,686L 355,686.8145L 356,687.6476L 357,688.5034L 359,690.2632L 361,692.1153L 363,694.0413L 365,696.0114L 367,698L 369,699.5776L 371,701.2444L 373,703L 374,703.7686L 376,705.3491L 378,707L 379,707.6743L 381,709.0493L 383,710.4927L 385,712L 386,712.666L 388,714L 389,714.666L 391,716L 392,716.666L 394,718L 395,718.666L 397,720L 398,720.5703L 400,721.752L 402,723L 404,724L 406,725L 408,726L 410,727L 412,728L 414,729L 416,730L 418,731L 420,732L 422,733L 423.2656,733.5L 425.7656,734.5L 427,735L 430,736L 433,737L 436,738L 439,739L 441.668,739.666L 443,740L 445.668,740.666L 447,741L 449.668,741.666L 451,742L 452.5313,742.2344L 455.5313,742.7344L 457,743L 460.3555,743.3223L 463.4961,743.752L 465,744L 480,744L 481.5039,743.752L 484.6445,743.3223L 488,743L 489.4688,742.7344L 492.4688,742.2344L 494,742L 495.332,741.666L 498,741L 499.332,740.666L 502,740L 505,739L 508,738L 511,737L 513.1758,736L 515.5078,735L 518,734L 520,733L 522,731.7744L 524,730.6128L 526,729.5269L 527,729L 529,727.666L 530,727L 532,725.666L 533,725L 535,723.666L 536,723L 537,722.2344L 539,720.7344L 540,720L 542,718.3223L 544,716.752L 545,716L 546,715.0879L 548,713.3418L 550,711.7539L 551,711L 553,709.1074L 555,707.3438L 557,705.7539L 558,705L 559,704.0195L 561,702.1094L 563,700.3438L 565,698.7539L 566,698L 568,696.0215L 570,694.1094L 572,692.3438L 574,690.7539L 575,690L 577,688.002L 579,686.0215L 581,684.1094L 583,682.3438L 585,680.7539L 586,680L 587,679L 588,678L 589,677L 591,675.002L 593,673.0215L 595,671.1094L 597,669.3438L 599,667.7539L 600,667L 601,666L 602,665L 603,664L 605,662.002L 607,660.0215L 609,658.1094L 611,656.3438L 613,654.7539L 614,654L 615,653L 616,652L 617,651L 618,650L 619,649L 620,648L 622,646.002L 624,644.0215L 626,642.1094L 628,640.3438L 630,638.7539L 631,638L 632,637L 633,636L 634,635L 635,634L 636,633L 637,632L 638,631L 640,629.002L 642,627.0215L 644,625.1094L 646,623.3438L 648,621.7539L 649,621L 650,620L 651,619L 652,618L 653,617L 654,616L 655,615L 656,614L 657,613L 658,612L 659,611L 660,610L 661,609L 662,608L 663,607L 664,606L 665,605L 666,604L 667,603L 668,602L 669,601L 670,600L 671,599L 672,598L 673,597L 674,596L 675,595L 676,594L 677,593L 678,592L 679,591L 680,590L 681,589L 682,588L 683,587L 684,586L 685,585L 686,584L 687,583L 688,582L 689,581L 690,580L 691,579L 692,578L 693,577L 694,576L 695,575L 696,574L 697,573L 698,572L 699,571L 700,570L 701,569L 702,568L 703,567L 704,566L 705,565L 705,563L 704,562L 703,561L 702,560L 701,559L 700,558L 699,557L 698,556L 697,555L 696,554L 695,553L 694,552L 693,551L 692,550L 691,549L 690,548L 689,547L 688,546L 687,545L 686,544.1855L 685,543.3524L 684,542.4966L 683,541.6167L 682,540.7137L 681,539.79L 680,538.8484L 679,537.8922L 678,536.9245L 677,535.9478L 676,534.9643L 675,533.9759L 673,531.9919L 671,529.9977L 669,527.9995L 667,525.9999L 665,524L 663,523L 661,522L 653,522L 650,523L 648,524L 646,525.334L 645,526L 644,527L 643,528L 642,529L 641,530L 640,531L 639,532L 638,533L 637,534L 636,535L 634,536.998L 632,538.9785L 630,540.8906L 628,542.6563L 626,544.2461L 625,545L 624,546L 623,547L 622,548L 621,549L 620,550L 619,551L 618,552L 617,553L 616,554L 615,555L 614,556L 612,557.998L 610,559.9785L 608,561.8906L 606,563.6563L 604,565.2461L 603,566L 602,567L 601,568L 600,569L 599,570L 598,571L 597,572L 595,573.998L 593,575.9785L 591,577.8906L 589,579.6563L 587,581.2461L 586,582L 585,583L 584,584L 583,585L 582,586L 581,587L 579,588.998L 577,590.9785L 575,592.8906L 573,594.6563L 571,596.2461L 570,597L 569,598L 567,599.998L 565,601.9785L 563,603.8906L 561,605.6563L 559,607.2461L 558,608L 556,609.998L 554,611.9785L 552,613.8906L 550,615.6563L 548,617.2461L 547,618L 545,619.998L 543,621.9785L 541,623.8906L 539,625.6563L 537,627.2461L 536,628L 534,629.998L 532,631.9785L 530,633.8906L 528,635.6563L 526,637.2461L 525,638L 524,638.998L 522,640.9785L 520,642.8906L 518,644.6563L 516,646.2461L 515,647L 514,647.9805L 512,649.8906L 510,651.6563L 508,653.2461L 507,654L 506,654.9121L 504,656.6582L 502,658.2461L 501,659L 500,659.7656L 498,661.2656L 497,662L 495,663.8926L 493,665.6563L 491,667.2461L 490,668L 488,669.5098L 487,670.2324L 486,670.9365L 484,672.3105L 482,673.6138L 480,674.8384L 478,676L 476.9961,676.6128L 474.9609,677.8062L 472.8203,678.927L 470.4922,679.981L 469.2461,680.4905L 467.9961,680.9952L 465.4512,682L 464.1123,682.5L 461.3735,683.4883L 458.5903,684.4102L 455.8882,685.1758L 453.2847,685.7539L 450.5313,686.2656L 447.5313,686.7656L 446,687L 444.5078,687.2461L 441.4258,687.6543L 438.168,687.8691L 434.832,687.8691L 431.5742,687.6543L 428.4922,687.2461L 427,687L 423.9805,686.5098L 421.0898,685.9551L 419.71,685.6382L 416.9648,684.9688L 415.5923,684.5955L 412.8472,683.8044L 411.4971,683.3657L 408.8672,682.4539L 407.6387,681.9713L 405.2798,680.9935L 404.187,680.4963L 402.0583,679.4995L 401.0357,678.9997L 400.0215,678.4999L 398.0042,677.498L 396.0005,676.4805L 394,675.4102L 393,674.8281L 391,673.6162L 389,672.3271L 388,671.6636L 386,670.3257L 384,668.9507L 382,667.5073L 381,666.7537L 379,665.2314L 377,663.6509L 375,662L 374,661.2096L 372,659.5779L 370,657.8334L 368,656L 367,655.2096L 365,653.5779L 363,651.8334L 361,650L 360,649.1964L 358,647.5455L 356,645.7904L 354,643.9274L 352,642L 351,641.1855L 350,640.3524L 348,638.6407L 346,636.8329L 344,634.9365L 342,632.9815L 340,631L 339,630.1855L 338,629.3524L 337,628.4966L 336,627.6167L 335,626.7137L 334,625.79L 333,624.8484L 332,623.8922L 331,622.9245L 330,621.9478L 329,620.9643L 328,619.9759L 327,618.9839L 326,617.9893L 325,616.993L 324,615.9954L 323,614.9971L 322,613.9981L 321,612.9988L 320,611.9992L 319,610.9995L 318,609.9997L 317,608.9998L 316,607.9999L 315,606.9999L 314,606L 313,605L 312,604L 311,603L 310,602L 309,601L 308,600L 307,599L 306,598L 305,597L 304,596L 302,594L 301,593L 300,592L 299,591L 298,590L 297,589L 295.002,587L 293.0215,585L 291.1094,583L 289.3438,581L 287.7539,579L 287,578L 286,577L 284.002,575L 282.0215,573L 280.1094,571L 278.3438,569L 276.7539,567L 276,566L 274.002,564L 272.0215,562L 270.1094,560L 268.3438,558L 266.7539,556L 266,555L 264.1074,553L 262.3438,551L 260.7539,549L 260,548L 259.0195,547L 257.1094,545L 255.3438,543L 253.7539,541L 253,540L 251.1074,538L 249.3438,536L 247.7539,534L 247,533L 246.0879,532L 244.3418,530L 242.7539,528L 242,527L 240.3223,525L 238.752,523L 238,522L 237.0879,521L 235.3418,519L 233.7539,517L 233,516L 231.3223,514L 229.752,512L 229,511L 227.3223,509L 225.752,507L 225,506L 223.3223,504L 221.752,502L 221,501L 220.2344,500L 218.7344,498L 218,497L 216.3223,495L 214.752,493L 214,492L 213.2344,491L 211.7344,489L 211,488L 210.2344,487L 208.7344,485L 208,484L 207.2344,483L 205.7344,481L 205,480L 204.2344,479L 202.7344,477L 202,476L 200,476L 199.7656,477.2656L 199.2656,479.7656L 199,481L 198.7656,482.2656L 198.2656,484.7656L 198,486L 197.7656,487.2656L 197.2656,489.7656L 197,491L 197,500L 197.2656,501.2344L 197.7656,503.7344L 198,505L 199,507L 200,509L 201,511L 202,513L 203.334,515L 204,516L 205.5098,518L 206.9551,520L 208.3281,522L 209,523L 209.7656,524L 211.2656,526L 212,527L 213.5098,529L 214.9551,531L 216.3281,533L 217,534L 217.7656,535L 219.2656,537L 220,538L 220.7656,539L 222.2656,541L 223,542L 223.7656,543L 225.2656,545L 226,546L 226.7656,547L 228.2656,549L 229,550L 230.6777,552L 232.248,554L 233,555L 233.7656,556L 235.2656,558L 236,559L 237.6777,561L 239.248,563L 240,564L 241.6777,566L 243.248,568L 244,569L 245.6777,571L 247.248,573L 248,574L 249.6777,576L 251.248,578L 252,579L 252.9121,580L 254.6582,582L 256.2461,584L 257,585L 257.9121,586L 259.6582,588L 261.2461,590L 262,591L 263.8926,593L 265.6563,595L 267.2461,597L 268,598L 269.8926,600L 271.6563,602L 273.2461,604L 274,605L 274.9805,606L 276.8906,608L 278.6563,610L 280.2461,612L 281,613L 281.998,614L 283.9785,616L 285.8906,618L 287.6563,620L 289.2461,622L 290,623L 291,624L 292,625L 293,626L 294,627L 295.998,629L 297.9785,631L 299.8906,633L 301.6563,635L 303.2461,637L 304,638L 305,639L 306,640L 307,641L 308,642L 309,643L 310,644L 311,645L 312,646L 313,647L 314,648L 315,649L 316,650L 317,651L 318,652L 319,653L 320,654L 321,655L 322,656L 323,657L 324,658L 325,659L 326,660L 327,661L 328,662L 329,663L 330,664L 331,665L 332,666L 333,667Z" style="fill:rgb(5,139,219);"/>
<path d="M 232.998,400L 234.9785,402L 236.8906,404L 238.6563,406L 240.2461,408L 241,409L 242.998,411L 244.9785,413L 246.8906,415L 248.6563,417L 250.2461,419L 251,420L 252.998,422L 254.9785,424L 256.8906,426L 258.6563,428L 260.2461,430L 261,431L 262,432L 263,433L 264,434L 265,435L 266,436L 267,437L 268,438L 269,439L 271,440L 275,440L 278,439L 280,437.666L 281,437L 282,436L 284,434.002L 286,432.0215L 288,430.1094L 290,428.3438L 292,426.7539L 293,426L 294,425L 295,424L 296,423L 297,422L 298,421L 299,420L 300,419L 302,417.002L 304,415.0215L 306,413.1094L 308,411.3438L 310,409.7539L 311,409L 312,408L 313,407L 314,406L 315,405L 316,404L 317,403L 318,402L 320,400.002L 322,398.0215L 324,396.1094L 326,394.3438L 328,392.7539L 329,392L 330,391L 331,390L 332,389L 333,388L 335,386.002L 337,384.0215L 339,382.1094L 341,380.3438L 343,378.7539L 344,378L 345,377L 346,376L 347,375L 349,373.002L 351,371.0215L 353,369.1094L 355,367.3438L 357,365.7539L 358,365L 359,364L 361,362.002L 363,360.0215L 365,358.1094L 367,356.3438L 369,354.7539L 370,354L 372,352.002L 374,350.0215L 376,348.1094L 378,346.3438L 380,344.7539L 381,344L 382,343.002L 384,341.0215L 386,339.1094L 388,337.3438L 390,335.7539L 391,335L 393,333.0215L 395,331.1094L 397,329.3438L 399,327.7539L 400,327L 401,326.0195L 403,324.1094L 405,322.3438L 407,320.7539L 408,320L 409,319.0195L 411,317.1094L 413,315.3438L 415,313.7539L 416,313L 417,312.0879L 419,310.3418L 421,308.7539L 422,308L 423,307.0879L 425,305.3418L 427,303.7539L 428,303L 430,301.3223L 432,299.752L 433,299L 435,297.3223L 437,295.752L 438,295L 440,293.4902L 442,292.0449L 443,291.3584L 445,290.002L 447,288.666L 448,288L 450,286.666L 451,286L 452,285.3376L 454,284.0305L 456,282.7791L 458,281.613L 460,280.5269L 461,280L 462,279.3872L 464,278.1938L 465,277.6334L 467,276.5461L 468,276.0287L 470.0039,275.0065L 472.0391,274.0009L 474.1797,273.0001L 476.5078,272L 479,271L 481.4688,270L 482.7344,269.5L 485.2266,268.5176L 487.7266,267.5898L 490.3262,266.7539L 493,266L 494.4141,265.5703L 495.8184,265.1611L 498.5977,264.3828L 499.958,264.0278L 502.6299,263.3491L 505.2051,262.7471L 507.7344,262.2344L 510.3633,261.752L 513.1406,261.3223L 516,261L 517.5078,260.7539L 520.6875,260.3438L 524.2188,260.1094L 526.1289,260.0645L 529.6875,260.0078L 532.668,259.998L 534,260L 535.6211,260.002L 539.082,260.0215L 542.7813,260.1094L 546.3125,260.3438L 549.4922,260.7539L 551,261L 553.8594,261.3223L 556.6367,261.752L 557.9512,261.9932L 560.5313,262.4902L 563.082,263.0449L 565.6836,263.6719L 567,264L 568.3408,264.3364L 571.043,265.0283L 572.4224,265.4031L 573.8208,265.7993L 576.6533,266.6343L 579.5381,267.5461L 582.4072,268.5112L 585.1592,269.5017L 586.4528,270.0009L 587.7245,270.5005L 590.2237,271.5L 591.418,272L 593.7332,273L 594.8204,273.5L 596.9426,274.502L 598.9871,275.5195L 600.9982,276.5898L 602.9999,277.7539L 605,279L 606,279.5703L 607,280.1611L 609,281.3828L 611,282.6729L 613,284L 615,285.2148L 617,286.5479L 619,288L 620,288.6743L 622,290.0493L 624,291.4927L 626,293L 627,293.6743L 629,295.0493L 631,296.4927L 632,297.2463L 634,298.7686L 636,300.3491L 638,302L 639,302.7686L 641,304.3491L 643,306L 645,307.5776L 647,309.2444L 649,311L 650,311.7904L 652,313.4221L 654,315.1666L 656,317L 657,317.8036L 659,319.4545L 661,321.2096L 663,323.0726L 665,325L 666,325.8145L 667,326.6476L 668,327.5034L 669,328.3833L 670,329.2863L 671,330.21L 672,331.1516L 674,333.0639L 676,335.0227L 678,337.0066L 680,339.0015L 682,341L 683,341.8145L 684,342.6476L 685,343.5034L 686.998,345.2632L 688.9785,347.1153L 690.8906,349.0414L 692.6563,351.0118L 694.2461,353.0022L 695,354L 696,355L 697,356L 698,357L 699,358L 700,359L 701,360L 702,361L 703,362L 704,363L 705,364L 706.998,366L 708.9785,368L 710.8906,370L 712.6563,372L 714.2461,374L 715,375L 716,376L 717.998,378L 719.9785,380L 721.8906,382L 723.6563,384L 725.2461,386L 726,387L 727.9785,389L 729.8906,391L 731.6563,393L 733.2461,395L 734,396L 734.9805,397L 736.8906,399L 738.6563,401L 740.2461,403L 741,404L 742.8926,406L 744.6563,408L 746.2461,410L 747,411L 747.9121,412L 749.6582,414L 751.2461,416L 752,417L 753.6777,419L 755.248,421L 756,422L 756.9121,423L 758.6582,425L 760.2461,427L 761,428L 761.7656,429L 763.2656,431L 764,432L 765.6777,434L 767.248,436L 768,437L 768.7656,438L 770.2656,440L 771,441L 772.6777,443L 774.248,445L 775,446L 775.7656,447L 777.2656,449L 778,450L 779.5098,452L 780.9551,454L 782.3281,456L 783,457L 783.7656,458L 785.2656,460L 786,461L 786.7656,462L 788.2656,464L 789,465L 790.5098,467L 791.9551,469L 793.3281,471L 794,472L 795.5098,474L 796.9551,476L 798.3281,478L 799,479L 800.5098,481L 801.9551,483L 802.6416,484L 803.998,486L 805.334,488L 806,489L 807.334,491L 808,492L 809.334,494L 810,495L 811.334,497L 812,498L 813.334,500L 814,501L 815.334,503L 816,504L 817.334,506L 818,507L 819,507L 819,502L 818.7539,500.5547L 818.3418,497.6055L 818.0879,494.5508L 818,493L 817.7344,491.5313L 817.2344,488.5313L 817,487L 816.666,485.668L 816,483L 815.666,481.668L 815,479L 814.666,477.668L 814,475L 813,472L 812,469.5313L 811,467L 810,465L 809,463L 808,461L 807,459L 806,457L 804.7744,455L 803.6128,453L 802.5269,451L 802,450L 801.376,449L 800.1611,447L 799,445L 798.376,444L 797.1611,442L 796,440L 794.666,438L 794,437L 792.6753,435L 791.3848,433L 790.1616,431L 789,429L 787.666,427L 787,426L 785.666,424L 785,423L 783.666,421L 783,420L 781.666,418L 781,417L 779.4902,415L 778.0449,413L 777.3584,412L 776.002,410L 774.666,408L 774,407L 772.4902,405L 771.0449,403L 769.6719,401L 769,400L 768.2344,399L 766.7344,397L 766,396L 765.2344,395L 763.7344,393L 763,392L 762.2344,391L 760.7344,389L 760,388L 759.2344,387L 757.7344,385L 757,384L 756.2344,383L 754.7344,381L 754,380L 752.3223,378L 750.752,376L 750,375L 749.2344,374L 747.7344,372L 747,371L 745.3223,369L 743.752,367L 743,366L 742.0879,365L 740.3418,363L 738.7539,361L 738,360L 737.0879,359L 735.3418,357L 733.7539,355L 733,354L 731.1074,352L 729.3438,350L 727.7539,348L 727,347L 726.0195,346L 724.1094,344L 722.3438,342L 720.7539,340L 720,339L 719,338L 717.002,336L 715.0215,334L 713.1094,332L 711.3438,330L 709.7539,328L 709,327L 708,326L 707,325L 706,324L 705,323L 704,322L 703,321L 702,320L 701,319L 700,318L 699,317L 698,316L 697,315L 696,314L 695,313L 694,312L 693,311L 692,310L 691,309L 690,308L 689,307L 688,306L 687,305L 686,304L 685,303L 684,302L 683,301L 682,300L 681,299L 680,298L 679,297L 678,296L 677,295L 676,294L 675,293L 674,292L 673,291.1855L 672,290.3524L 670,288.6407L 668,286.8329L 666,284.9365L 664,282.9815L 662,281L 660,279.3928L 658,277.6992L 656,275.8889L 654,274L 652,272.4224L 650,270.7556L 648,269L 647,268.2314L 645,266.6509L 643,265L 641,263.5156L 639,262L 637,260.5156L 635,259L 633,257.5156L 631,256L 629,254.5156L 627,253L 626,252.3257L 624,250.9507L 622,249.5073L 620,248L 619,247.334L 617,246L 616,245.4297L 615,244.8389L 613,243.6172L 611,242.3271L 610,241.6636L 608,240.334L 606,239L 605,238.4824L 603,237.4102L 601,236.2461L 599,235L 597,234L 595,233L 593,232L 591,231L 589,230L 587,229L 585,228L 583,227L 581,226L 579,225L 577,224L 574.5479,223L 572.2148,222L 570,221L 567,220L 564,219L 561,218L 558,217L 555,216L 553.6113,215.624L 550.8184,214.8389L 548,214L 546.7344,213.7656L 544.2344,213.2656L 543,213L 541.7344,212.7656L 539.2344,212.2656L 538,212L 534.6445,211.6777L 531.5039,211.248L 530,211L 499,211L 497.5547,211.2461L 494.6055,211.6582L 491.5508,211.9121L 490,212L 488.5313,212.2656L 485.5313,212.7656L 484,213L 482.7656,213.2656L 480.2656,213.7656L 479,214L 477.7656,214.2656L 475.2656,214.7656L 474,215L 471.3633,215.6543L 468.7949,216.2529L 466.2656,216.7656L 465,217L 463.5859,217.4297L 460.7773,218.248L 458,219L 455,220L 452,221L 449,222L 446,223L 444.7461,223.5L 442.1582,224.5L 439.4121,225.5L 438,226L 435.9609,227L 433.8203,228L 431.4922,229L 429,230L 427,231L 425,232L 423,233L 421,234L 420,234.6128L 418,235.8062L 416,236.927L 414,237.981L 412,239L 411,239.624L 409,240.8389L 407,242L 405,243.334L 404,244L 402,245.334L 401,246L 399,247.334L 398,248L 396,249.5098L 394,250.9551L 392,252.3281L 391,253L 390,253.9121L 388,255.6582L 386,257.2461L 385,258L 383,259.8926L 381,261.6563L 379,263.2461L 378,264L 377,264.9805L 375,266.8906L 373,268.6563L 371,270.2461L 370,271L 369,271.9805L 367,273.8906L 365,275.6563L 363,277.2461L 362,278L 360,279.9785L 358,281.8906L 356,283.6563L 354,285.2461L 353,286L 351,287.9785L 349,289.8906L 347,291.6563L 345,293.2461L 344,294L 343,294.9805L 341,296.8906L 339,298.6563L 337,300.2461L 336,301L 334,302.9785L 332,304.8906L 330,306.6563L 328,308.2461L 327,309L 326,309.9805L 324,311.8906L 322,313.6563L 320,315.2461L 319,316L 318,316.998L 316,318.9785L 314,320.8906L 312,322.6563L 310,324.2461L 309,325L 308,325.998L 306,327.9785L 304,329.8906L 302,331.6563L 300,333.2461L 299,334L 298,334.998L 296,336.9785L 294,338.8906L 292,340.6563L 290,342.2461L 289,343L 288,344L 286,345.998L 284,347.9785L 282,349.8906L 280,351.6563L 278,353.2461L 277,354L 276,355L 275,356L 273,357.998L 271,359.9785L 269,361.8906L 267,363.6563L 265,365.2461L 264,366L 263,367L 262,368L 261,369L 260,370L 259,371L 258,372L 257,373L 256,374L 255,375L 254,376L 253,377L 252,378L 251,379L 250,380L 249,381L 248,382L 247,383L 246,384L 245,385L 244,386L 243,387L 242,388L 241,389L 240,390L 239,391L 238,392L 237,393L 236,394L 235,395L 234,396L 233,397L 232,398L 232,399Z" style="fill:rgb(5,139,219);"/>
<path d="M 311,483L 312,484L 313,485L 314,486L 315,487L 316,488L 317,489L 318,490L 319,491L 320,492L 321,493L 322,494L 323,495L 324,496L 325,497L 326,498L 327,499L 328,500L 329,501L 330,502L 331,503L 332,504L 333,505L 334,506L 335,506.8145L 336,507.6476L 337,508.5034L 338,509.3833L 339,510.2863L 340,511.21L 341,512.1516L 343,514.0639L 345,516.0227L 347,518.0066L 349,520.0015L 351,522L 353,523L 355.668,523.666L 357,524L 361,524L 362.332,523.666L 365,523L 367,522L 369,520.666L 370,520L 371,519L 372,518L 373,517L 374,516L 375,515L 376,514L 377,513L 378,512L 379,511L 380,510L 382,508.002L 384,506.0215L 386,504.1094L 388,502.3438L 390,500.7539L 391,500L 392,499L 393,498L 394,497L 395,496L 396,495L 397,494L 398,493L 399,492L 400,491L 401,490L 402,489L 403,488L 405,486.002L 407,484.0215L 409,482.1094L 411,480.3438L 413,478.7539L 414,478L 415,477L 416,476L 417,475L 418,474L 419,473L 421,471.002L 423,469.0215L 425,467.1094L 427,465.3438L 429,463.7539L 430,463L 431,462L 432,461L 433,460L 435,458.002L 437,456.0215L 439,454.1094L 441,452.3438L 443,450.7539L 444,450L 445,449L 447,447.002L 449,445.0215L 451,443.1094L 453,441.3438L 455,439.7539L 456,439L 457,438L 459,436.002L 461,434.0215L 463,432.1094L 465,430.3438L 467,428.7539L 468,428L 470,426.002L 472,424.0215L 474,422.1094L 476,420.3438L 478,418.7539L 479,418L 481,416.002L 483,414.0215L 485,412.1094L 487,410.3438L 489,408.7539L 490,408L 492,406.0215L 494,404.1094L 496,402.3438L 498,400.7539L 499,400L 501,398.0215L 503,396.1094L 505,394.3438L 507,392.7539L 508,392L 509,391.0879L 511,389.3418L 513,387.7539L 514,387L 516,385.3223L 518,383.752L 519,383L 520,382.0879L 522,380.3418L 524,378.7539L 525,378L 526,377.2344L 528,375.7344L 529,375L 530,374.2363L 531,373.4985L 533,372.082L 534,371.4353L 536,370.2014L 537,369.6375L 539,368.5464L 540,368.0288L 542.0039,367.0065L 543.0215,366.5037L 545.1113,365.5005L 546.2383,365.0003L 547.4268,364.5001L 549.9229,363.502L 552.6211,362.5195L 555.4219,361.5898L 556.8235,361.1719L 558.2113,360.7778L 560.9608,360.0293L 563.6866,359.354L 566.4727,358.7715L 569.3965,358.3428L 572.4492,358.0879L 574,358L 576.6465,357.6563L 579.2461,357.5693L 581.7637,357.8076L 583,358L 584.5508,358.0879L 587.6055,358.3418L 589.0801,358.5479L 590.499,358.7671L 591.8618,358.9973L 593.1882,359.243L 594.5011,359.5098L 597.1335,360.0948L 599.8115,360.7944L 602.5322,361.6152L 605.2021,362.5327L 606.4785,363.019L 607.7395,363.5109L 610.2258,364.5013L 611.4191,365.0007L 612.5761,365.5003L 614.8204,366.502L 616.9426,367.5195L 618.9871,368.5898L 619.9926,369.1719L 621.999,370.3838L 623.9999,371.6729L 626,373L 628,374.2148L 630,375.5479L 631,376.2739L 632,377.0042L 634,378.4844L 635,379.2422L 637,380.7686L 639,382.3491L 641,384L 642,384.7904L 644,386.4221L 646,388.1666L 648,390L 649,390.7904L 651,392.4221L 653,394.1666L 655,396L 656,396.8036L 658,398.4545L 660,400.2096L 662,402.0726L 664,404L 665,404.8145L 666,405.6476L 668,407.3593L 670,409.1671L 672,411.0635L 674,413.0185L 676,415L 677,415.8145L 678,416.6476L 679,417.5034L 680,418.3833L 681,419.2863L 682,420.21L 683,421.1516L 684,422.1078L 685,423.0755L 686,424.0522L 687,425.0357L 688,426.0241L 689,427.0161L 690,428.0107L 691,429.007L 692,430.0046L 693,431.0029L 694,432.0019L 695,433.0012L 696,434.0008L 697,435.0005L 698,436.0003L 699,437.0002L 700,438.0001L 701,439.0001L 702,440L 703,441L 704,442L 705,443L 706,444L 707,445L 708,446L 709,447L 710,448L 711,449L 712,450L 713,451L 715,453L 716,454L 717,455L 718,456L 719.998,458L 721.9785,460L 723.8906,462L 725.6563,464L 727.2461,466L 728,467L 729,468L 730,469L 731.998,471L 733.9785,473L 735.8906,475L 737.6563,477L 739.2461,479L 740,480L 740.998,481L 742.9785,483L 744.8906,485L 746.6563,487L 748.2461,489L 749,490L 749.9805,491L 751.8906,493L 753.6563,495L 755.2461,497L 756,498L 757.8926,500L 759.6563,502L 761.2461,504L 762,505L 763.8926,507L 765.6563,509L 767.2461,511L 768,512L 768.9121,513L 770.6582,515L 772.2461,517L 773,518L 773.9121,519L 775.6582,521L 777.2461,523L 778,524L 779.6777,526L 781.248,528L 782,529L 783.6777,531L 785.248,533L 786,534L 787.6777,536L 789.248,538L 790,539L 791.6777,541L 793.248,543L 794,544L 795.6777,546L 797.248,548L 798,549L 798.7656,550L 800.2656,552L 801,553L 801.7656,554L 803.2656,556L 804,557L 804.7656,558L 806.2656,560L 807,561L 807.7656,562L 809.2656,564L 810,565L 810.7656,566L 812.2656,568L 813,569L 814,570L 815,570L 815.666,567.332L 816,566L 816.2344,564.7344L 816.7344,562.2344L 817,561L 817.2344,559.7344L 817.7344,557.2344L 818,556L 818,543L 817,540L 816,537L 815,535L 813.666,533L 813,532L 811.666,530L 811,529L 809.4902,527L 808.0449,525L 806.6719,523L 806,522L 804.4902,520L 803.0449,518L 801.6719,516L 801,515L 800.2344,514L 798.7344,512L 798,511L 797.2344,510L 795.7344,508L 795,507L 794.2344,506L 792.7344,504L 792,503L 791.2344,502L 789.7344,500L 789,499L 788.2344,498L 786.7344,496L 786,495L 784.3223,493L 782.752,491L 782,490L 781.2344,489L 779.7344,487L 779,486L 777.3223,484L 775.752,482L 775,481L 774.2344,480L 772.7344,478L 772,477L 770.3223,475L 768.752,473L 768,472L 767.0879,471L 765.3418,469L 763.7539,467L 763,466L 761.3223,464L 759.752,462L 759,461L 757.1074,459L 755.3438,457L 753.7539,455L 753,454L 752.0879,453L 750.3418,451L 748.7539,449L 748,448L 746.1074,446L 744.3438,444L 742.7539,442L 742,441L 741.0195,440L 739.1094,438L 737.3438,436L 735.7539,434L 735,433L 733.002,431L 731.0215,429L 729.1094,427L 727.3438,425L 725.7539,423L 725,422L 724,421L 723,420L 722,419L 721,418L 719.002,416L 717.0215,414L 715.1094,412L 713.3438,410L 711.7539,408L 711,407L 710,406L 709,405L 708,404L 707,403L 706,402L 705,401L 704,400L 703,399L 702,398L 701,397L 700,396L 699,395L 698,394L 697,393L 696,392L 695,391L 694,390L 693,389L 692,388L 691,387L 690,386L 689,385L 688,384L 687,383L 686,382L 685,381L 684,380L 683,379.1855L 682,378.3524L 680,376.6407L 678,374.8329L 676,372.9365L 674,370.9815L 672,369L 671,368.1964L 669,366.5455L 667,364.7904L 665,362.9274L 663,361L 662,360.1855L 661,359.3524L 660,358.4966L 658,356.7368L 656,354.8847L 654,352.9587L 652,350.9886L 650,349L 649,348.2096L 647,346.5779L 645,344.8334L 643,343L 641,341.5156L 640,340.7578L 638,339.2314L 636,337.6509L 634,336L 633,335.3257L 631,333.9507L 629,332.5073L 627,331L 626,330.334L 624,329L 623,328.4297L 622,327.8389L 620,326.6172L 618,325.3271L 616,324L 615,323.4297L 613,322.248L 611,321L 609,320L 607,319L 605,318L 603,317L 601,316L 599,315L 597,314L 595,313L 593,312L 591.7344,311.5L 589.2344,310.5L 588,310L 586.5879,309.5L 583.8418,308.5L 581.2539,307.5L 580,307L 577,306L 574.332,305.334L 573,305L 570.332,304.334L 569,304L 566.332,303.334L 565,303L 563.7344,302.7656L 561.2344,302.2656L 560,302L 532,302L 530.5313,302.2656L 527.5313,302.7656L 526,303L 524.7656,303.2656L 522.2656,303.7656L 521,304L 519.668,304.334L 517,305L 515.668,305.334L 513,306L 510,307L 507,308L 504.5313,309L 502,310L 500,311L 498,312L 496,313L 494,314L 492,315L 490,316L 488,317.334L 487,318L 485,319.334L 484,320L 482,321.334L 481,322L 479,323.334L 478,324L 476,325.6777L 474,327.248L 473,328L 472,328.9121L 470,330.6582L 468,332.2461L 467,333L 466,333.9121L 464,335.6582L 462,337.2461L 461,338L 460,338.9805L 458,340.8906L 456,342.6563L 454,344.2461L 453,345L 451,346.9785L 449,348.8906L 447,350.6563L 445,352.2461L 444,353L 442,354.998L 440,356.9785L 438,358.8906L 436,360.6563L 434,362.2461L 433,363L 432,364L 431,365L 429,366.998L 427,368.9785L 425,370.8906L 423,372.6563L 421,374.2461L 420,375L 419,376L 418,377L 417,378L 415,379.998L 413,381.9785L 411,383.8906L 409,385.6563L 407,387.2461L 406,388L 405,389L 404,390L 403,391L 402,392L 401,393L 400,394L 398,395.998L 396,397.9785L 394,399.8906L 392,401.6563L 390,403.2461L 389,404L 388,405L 387,406L 386,407L 385,408L 384,409L 383,410L 382,411L 381,412L 379,413.998L 377,415.9785L 375,417.8906L 373,419.6563L 371,421.2461L 370,422L 369,423L 368,424L 367,425L 366,426L 365,427L 364,428L 363,429L 362,430L 361,431L 359,432.998L 357,434.9785L 355,436.8906L 353,438.6563L 351,440.2461L 350,441L 349,442L 348,443L 347,444L 346,445L 345,446L 344,447L 343,448L 342,449L 341,450L 340,451L 339,452L 338,453L 337,454L 336,455L 335,456L 334,457L 333,458L 332,459L 331,460L 330,461L 329,462L 328,463L 327,464L 326,465L 325,466L 324,467L 323,468L 322,469L 321,470L 320,471L 319,472L 318,473L 317,474L 316,475L 315,476L 314,477L 313,478L 312,479L 311,480L 310,481L 310,482Z" style="fill:rgb(5,139,219);"/>
</svg>