<svg width="512" height="512"
     xmlns="http://www.w3.org/2000/svg" version="1.1">
<style>path {fill-opacity:1; stroke:none;}</style>
<path d="M 85,301.666L 87,303L 89,304L 91,305L 93,306L 96,307L 99,308L 101.668,308.666L 103,309L 124,309L 125.2344,308.7344L 127.7344,308.2344L 129,308L 132,307L 134,306L 136,305L 138,304L 140,303L 142,302L 144,300.666L 145,300L 147,298.3223L 149,296.752L 150,296L 151,295L 152,294L 153,293L 154,292L 155,291L 156,290L 157,289L 158,288L 159,287L 159.9612,286.0464L 160.898,285.1774L 161.834,284.4326L 162.7861,283.8484L 163.7616,283.4516L 164.7595,283.2556L 165.7749,283.2599L 166.8012,283.4526L 167.8326,283.8141L 168.8645,284.3205L 170.9213,285.5731L 172.9445,287.2107L 174.879,289.0641L 176.6533,291.0156L 178.2456,293.0025L 179,294L 181,296L 182,297L 183,298L 186,298L 187,297L 188,296L 189,295L 190,294L 191,293L 192,292L 194,290.002L 196,288.0215L 198,286.1094L 200,284.3438L 202,282.7539L 203,282L 204,281L 205,280L 206,279L 207,278L 208,277L 208,274L 207,273L 206,272L 205,271L 204,270L 203,269.1855L 202,268.3524L 201,267.4966L 200,266.6167L 199,265.7137L 198.002,264.79L 197.0146,263.8484L 196.0581,262.8922L 195.1638,261.9245L 194.3702,260.9478L 193.7156,259.9643L 192.7468,257.9875L 192.5372,255.9963L 193.1366,253.9991L 194.3906,251.9998L 196,250L 196.8145,249L 197.6476,248L 198.5034,247L 200.2632,245L 202.1153,243L 204.0413,241L 206.0114,239L 208,237L 208,235L 207,234L 206,233L 205,232L 203,230L 202,229L 201,228L 200,227L 199,226.1855L 198,225.3524L 197,224.4966L 196,223.6167L 194,221.8108L 192,219.9216L 190,217.9734L 188,215.993L 186,214L 184,214L 183,215L 182,216L 181,217L 180,218L 179,219L 178,220L 177,221L 176,222L 175,223L 174,223.999L 173,224.9917L 172,225.9636L 171,226.889L 170,227.733L 168.9395,228.4575L 166.709,229.5679L 164.4219,229.8478L 162.4063,229.177L 160.7539,227.806L 160,227L 159,226L 158,225L 157,224L 156,223L 155,222L 154,221L 153,220L 152,219L 151,218L 150,217L 149,216L 148,215L 147,214L 146,213.334L 144,212L 143,211.334L 141,210L 139,209L 137,208L 135,207L 133.7344,206.5L 131.2344,205.5L 130,205L 127.332,204.334L 126,204L 124.7344,203.7656L 122.2344,203.2656L 121,203L 107,203L 105.5313,203.2656L 102.5313,203.7656L 101,204L 99.668,204.334L 97,205L 94,206L 91.5313,207L 89,208L 88,208.624L 86,209.8389L 84,211L 83,212L 82,213L 81,214L 80,215L 79,216L 78,217L 77,218L 76,219L 75,220L 74.4297,221L 73.248,223L 72,225L 71,227L 70,229L 69,231L 68,233L 67,236L 66,239L 65.334,241.668L 65,243L 64.7656,244.2656L 64.2656,246.7656L 64,248L 64,263L 64.2656,264.4688L 64.7656,267.4688L 65,269L 65.334,270.332L 66,273L 67,276L 68,279L 69,281.4688L 70,284L 71,286L 72.334,288L 73,289L 74.334,291L 75,292L 76,293L 77,294L 78,295L 79,296L 80,297L 81,298L 82,299L 83,300L 84,301ZM 95.8521,256.6394L 95.8882,255.4208L 95.9937,254.1962L 96.3309,251.7571L 96.6216,250.5708L 97.3231,248.2672L 98.2612,246.1138L 99.4229,244.1299L 100.8218,242.3374L 101.6835,241.5448L 103.6115,240.0587L 105.9136,238.7715L 108.4434,237.7168L 109.7192,237.355L 110.9775,237.1064L 113.4794,236.8489L 115.9983,237.0645L 118.5875,237.6938L 119.886,238.1594L 122.4163,239.1912L 123.5952,239.7883L 124.727,240.4105L 125.8203,241.0554L 126.8841,241.7246L 127.9266,242.4215L 128.9543,243.1499L 129.9719,243.9127L 130.983,244.7109L 131.9898,245.5437L 132.9939,246.4086L 133.9955,247.302L 134.9896,248.2197L 135.9624,249.1575L 137.8162,251.0651L 138.5875,252.044L 139.2138,253.0294L 139.669,254.0194L 139.9389,255.0127L 139.8806,256.5075L 139.3891,258.9995L 138.264,260.9788L 136.7134,262.8907L 134.9084,264.6563L 132.981,266.2461L 132,267L 130,268.6123L 129,269.3459L 126.9961,270.7139L 125.9785,271.3092L 123.8926,272.439L 121.666,273.4655L 119.248,274.3849L 117.9453,274.749L 115.2734,275.3183L 113.9004,275.4209L 112.5437,275.4199L 111.2198,275.3179L 109.9392,275.1182L 107.4745,274.5303L 105.2125,273.5771L 103.1665,272.2813L 102.2568,271.4696L 100.5524,269.6874L 99.0791,267.6068L 97.8575,265.2921L 97.3926,264.0609L 96.606,261.5732L 96.0898,259.0829Z" style="fill:rgb(0,0,0);"/>
<path d="M 196,217L 197,218L 198,219L 199,220L 200,221L 201,222L 202,223L 203,224L 204,225L 205,226L 206,227L 207,228L 208,229L 209,230L 210,231L 211,232L 212,233L 213,234L 214,235L 215,236L 216,237L 217,238L 218,239L 219,240L 220,241L 221,242L 222,243L 223.998,245L 225.9785,247L 226.9346,248L 227.8511,249L 228.7119,250L 229.4951,251L 230.1733,252L 230.7179,253L 231.1041,254L 231.3157,255L 231.3468,256L 231.2018,257L 230.8935,258L 230.4401,259L 229.8628,260L 229.183,261L 228.4212,262L 227.5953,263L 226.7204,264L 225.8091,265L 224.871,266L 223.9138,267L 222.9429,268L 221.9625,269L 220.9756,270L 219.9843,271L 218.9899,272L 217.9936,273L 216.9959,274L 215.9975,275L 214.9984,276L 213.999,277L 212.9994,278L 211.9996,279L 210.9998,280L 209.9999,281L 208,283L 206,285L 204,287L 202,289L 200,291L 199.1855,292L 198.3524,293L 197.4966,294L 196.6167,295L 195.7137,296L 194.79,297L 193.8484,298L 192.8922,299L 191.9245,300L 190.9478,301L 189.9643,302L 188.9759,303L 187.9839,304L 186.9893,305L 185.993,306L 184.9954,307L 183.9971,308L 182.9981,309L 181.9988,310L 180.9992,311L 179.9995,312L 178.9997,313L 177.9998,314L 176.9999,315L 175.9999,316L 174,318L 172,320L 170,322L 168,324L 166,326L 165.2314,327L 163.6509,329L 162,331L 161.334,332L 160,334L 159,336L 158,338L 157,341L 156,344L 155.334,346.668L 155,348L 155,361L 155.334,362.332L 156,365L 157,368L 158,371L 159,373L 160,375L 160.624,376L 161.8389,378L 163,380L 163.7656,381L 165.2656,383L 166,384L 167,385L 168,386L 169,387L 170,388L 171,389L 172,390L 173,391L 174,392L 175,393L 176,394L 177,395L 178,395.666L 180,397L 181,397.5703L 183,398.752L 185,400L 187,401L 188.2656,401.5L 190.7656,402.5L 192,403L 195,404L 197.668,404.666L 199,405L 213,405L 214.332,404.666L 217,404L 220,403L 223,402L 225,401L 227,400L 229,398.666L 230,398L 231,397.2344L 233,395.7344L 234,395L 235,394L 236,393L 237,392L 238,391L 239,390L 240,389L 241,388L 242,387L 243.6072,385.0215L 245.3017,383.1094L 247.1175,381.3438L 249.0278,379.7539L 250,379L 251,378.2017L 252,377.5115L 253,376.9697L 254,376.6031L 255,376.4244L 256,376.4335L 257,376.6204L 258,376.9681L 259,377.4558L 261,378.6669L 262,379.4651L 263,380.3202L 264,381.2178L 265,382.1465L 266,383.0975L 267,384.0642L 269,386.0196L 271,388.005L 273,390.001L 275,392.0002L 276,393L 277,393.7686L 279,395.3491L 281,397L 282,397.666L 284,399L 286,400L 288,401L 290,402L 292,403L 295,404L 297.668,404.666L 299,405L 314,405L 315.332,404.666L 318,404L 321,403L 323,402L 325,401L 327,400L 329,399L 331,397.666L 332,397L 334,395.666L 335,395L 336,394L 337,393L 338,392L 339,391L 340,390L 341,389L 342,388L 343,387L 344,386L 345,385L 346,384L 347.4844,382L 349,380L 349.5703,379L 350.752,377L 352,375L 353,373L 354,371L 355,368L 356,365L 356.666,362.332L 357,361L 357,349L 356.7344,347.7656L 356.2344,345.2656L 356,344L 355.666,342.668L 355,340L 354,338L 353,336L 352,334L 350.666,332L 350,331L 348.666,329L 348,328L 347,327L 346,326L 345,325L 344,324L 343,323L 342,322L 341,321L 340,320L 339,319L 338,318L 337,317L 336,316L 335,315L 334,314L 333,313L 331.002,311L 329.0215,309L 327.1094,307L 325.3438,305L 323.7539,303L 323,302L 322,301L 321,300L 320,299L 319,298L 318,297L 317,296L 316,295L 315,294L 314,293L 313,292L 312,291L 311,290L 310,289L 309,288L 308,287L 307,286L 306,285L 305,284L 304,283L 303,282L 302,281L 301,280L 300,279L 299,278L 298,277L 297,276L 296,275L 295,274L 294,273L 293,272L 292,271L 291,270L 290,269L 289,268L 287.002,266L 286.0117,265L 285.043,263.998L 284.1201,262.9893L 283.2771,261.9673L 282.552,260.927L 281.98,259.8666L 281.5872,258.788L 281.3876,257.6964L 281.3821,256.5982L 281.561,255.5L 281.9067,254.4073L 282.3969,253.3238L 283.0081,252.2517L 283.7172,251.1917L 284.5034,250.1431L 285.349,249.105L 287.1292,247.0466L 289.0406,245.0173L 291.0106,243.0053L 293.0022,241.0013L 295,239L 295.8145,238L 296.6476,237L 297.5034,236L 298.3833,235L 299.2863,234L 300.21,233L 301.1516,232L 302.1078,231L 303.0755,230L 304.0522,229L 305.0357,228L 306.0241,227L 307.0161,226L 308.0107,225L 309.007,224L 310.0046,223L 311.0029,222L 312.0019,221L 313.0012,220L 314.0008,219L 315.0005,218L 316.0003,217L 317.0002,216L 318.0001,215L 320,213L 322,211L 324,209L 326,207L 328,205L 328.8145,204L 329.6476,203L 330.5034,202L 331.3833,201L 332.2863,200L 333.21,199L 334.1516,198L 335.1078,197L 336.0755,196L 337.0522,195L 339.0192,193L 341.0059,191L 343.0015,189L 345.0003,187L 347,185L 348.4844,183L 350,181L 350.666,180L 352,178L 353,176L 354,174L 355,172L 356,169L 356.666,166.332L 357,165L 357,151L 356.666,149.668L 356,147L 355,144L 354,142L 353,140L 352,138L 351,136L 350,134L 349,132L 348.2344,131L 346.7344,129L 346,128L 345,127L 344,126L 343,125L 342,124L 341,123L 340,122L 339,121L 338,120L 337,119L 335,117.5156L 333,116L 332,115.334L 330,114L 328,113L 326,112L 324,111L 322,110L 319,109L 316,108L 313.1406,107.6777L 310.3633,107.248L 309,107L 304,107L 302.4961,107.248L 299.3555,107.6777L 296,108L 293,109L 290,110L 288,111L 286,112L 284,113L 282,114.334L 281,115L 280,116L 279,117L 278,118L 277,119L 276,120L 275,121L 274,122L 273,123L 272,124L 271,125L 270,126L 269,127L 268,128L 267,129L 266,130L 265,130.999L 264,131.9917L 263,132.9636L 262,133.889L 261,134.733L 260,135.4571L 259,136.0266L 258,136.4161L 257,136.6124L 256,136.6152L 255,136.4343L 254,136.0876L 253,135.5971L 252,134.9862L 251,134.2776L 250,133.4921L 249,132.6474L 248,131.758L 247,130.8358L 246,129.8897L 245,128.9266L 244,127.9517L 243,126.9684L 242,125.9795L 240,123.9941L 238,121.9986L 236,119.9997L 234,118L 232,116L 231,115.334L 229,114L 228,113.334L 226,112L 224,111L 222,110L 220,109L 217,108L 215.7344,107.7656L 213.2344,107.2656L 212,107L 201,107L 199.7656,107.2656L 197.2656,107.7656L 196,108L 193,109L 190,110L 188,111L 186,112L 184,113L 182,114L 180,115.334L 179,116L 178,116.7656L 176,118.2656L 175,119L 174,120L 173,121L 172,122L 171,123L 170,124L 169,125L 168,126L 167,127L 165.5156,129L 164,131L 163.334,132L 162,134L 161.4297,135L 160.248,137L 159,139L 158.5,140.2656L 157.5,142.7656L 157,144L 156,147L 155.334,149.668L 155,151L 155,165L 155.334,166.332L 156,169L 157,172L 158,174L 159,176L 160,178L 161,180L 161.7656,181L 163.2656,183L 164,184L 165,185L 166,186L 167,187L 168,188L 169,189L 170,190L 171,191L 172,192L 173,193L 174,194L 175,195L 176,196L 177,197L 178,198L 179,199L 180,200L 181,201L 182,202L 183,203L 184.998,205L 186.9785,207L 188.8906,209L 190.6563,211L 192.2461,213L 193,214L 194,215ZM 196.0664,166L 195.1523,165L 193.4287,162.9961L 191.9502,160.9609L 191.3677,159.8906L 190.4004,157.6563L 190.1383,156.4512L 190.0034,155.2256L 189.9944,154L 190.1068,152.7905L 190.3343,151.6072L 191.0069,149.3037L 191.5465,148.2218L 192.8015,146.1432L 193.5969,145.2014L 194.4717,144.3214L 196.3726,142.6999L 197.4614,142.0481L 199.7446,140.957L 200.9723,140.6551L 202.2223,140.4975L 203.4813,140.4841L 204.7358,140.6102L 205.974,140.8675L 207.1873,141.2461L 208.371,141.7346L 209.5235,142.3206L 210.6462,142.9911L 211.7422,143.7335L 212.8153,144.5355L 213.8698,145.3858L 214.9096,146.2744L 215.9381,147.1928L 216.9581,148.1339L 218.9839,150.05L 220.9746,152.016L 222.8897,154.0043L 224.6561,156.0009L 226.2461,158.0001L 227,159L 227.7281,160L 228.3428,161L 228.8032,162L 229.0834,163L 229.2629,164.998L 228.6927,166.9785L 227.4793,168.8906L 225.8336,170.6563L 223.966,172.2461L 223,173L 222,174L 221,175L 220,176L 219,177L 218,178L 217,179L 217,181L 218,182L 219,183L 220,184L 221,185L 222,186L 223,186.8145L 224,187.6476L 225,188.5034L 226,189.3833L 227,190.2863L 228,191.21L 229,192.1516L 231,194.0639L 233,196.0227L 235,198.0066L 237,200.0015L 239,202L 242,202L 243,201L 244,200L 246,198.002L 247,197.0117L 248,196.0391L 249,195.0986L 250,194.2117L 251,193.406L 252,192.7131L 253,192.1633L 254,191.7803L 255,191.5785L 256,191.561L 257,191.7212L 258,192.0445L 259,192.5115L 260,193.1005L 261,193.7897L 263,195.3283L 265,197.1163L 267,199.0343L 269,201.008L 271,203L 272,203L 273,202.2344L 275,200.7344L 276,200L 277,199L 278,198L 279,197L 280,196L 281,195L 282,194L 283,193L 284,192L 285,191L 286,190L 287,189L 288,188L 289,187L 290,186L 291,185L 292,184L 293,183L 294,182L 295,181L 295,180L 294,179L 293,178L 291.002,176L 289.0215,174L 287.1094,172L 286.2317,171L 285.4213,170L 284.6995,169L 283.4863,167L 282.8399,165L 282.9253,163L 283.3299,162L 283.8582,161L 284.4783,160L 285.1679,159L 285.9132,158L 286.7049,157L 287.5364,156L 288.4021,155L 289.2969,154L 290.216,153L 291.1549,152L 292.1096,151L 294.0435,149.002L 295.0291,148.0117L 297.0094,146.0664L 298.0059,145.1523L 299.0057,144.2905L 301.0204,142.6904L 302.0552,142.0339L 303.1156,141.4727L 305.294,140.5698L 306.4429,140.3645L 307.6172,140.2999L 308.8074,140.3727L 310.0016,140.5735L 312.3728,141.2078L 313.5162,141.7338L 315.7114,142.9501L 316.6964,143.7037L 318.5208,145.3223L 320.0378,147.1399L 321.213,149.125L 321.9842,151.2671L 322.1227,152.4085L 322.127,153.5746L 322.0035,154.7567L 321.7608,155.9443L 321.4079,157.1273L 320.9538,158.297L 320.4077,159.4474L 319.7788,160.5756L 319.0771,161.681L 318.3127,162.765L 317.4953,163.83L 316.6345,164.8791L 315.7388,165.9154L 314.8157,166.9417L 313.8715,167.9603L 312.9115,168.9733L 311.9396,169.9823L 310.9593,170.9883L 308.9863,172.9965L 306.9961,174.9991L 304.9991,176.9998L 302.9998,179L 301,181L 300.1855,182L 299.3524,183L 298.4966,184L 297.6167,185L 296.7137,186L 295.79,187L 294.8484,188L 293.8922,189L 292.9245,190L 291.9478,191L 290.9643,192L 289.9759,193L 288.9839,194L 287.9893,195L 286.993,196L 285.9954,197L 284.9971,198L 283.9981,199L 282.9988,200L 281.9992,201L 280.9995,202L 279.9997,203L 278.9998,204L 277.9999,205L 276.9999,206L 276,207L 275,208L 274,209L 273,210L 272,211L 271,212L 269,214L 267,216L 265,218L 263,220L 262,221L 261.0762,221.9034L 260.1699,222.6967L 258.3306,224.0018L 256.3966,224.6252L 254.4001,224.4066L 252.5037,223.398L 250.8014,221.8597L 250,221L 249,220L 248,219L 247,218L 246,217L 245,216L 244,215L 243,214L 242,213L 241,212L 240,211L 239,210L 238,209L 237,208L 236,207L 235,206L 234,205L 233,204L 232,203L 231,202L 230,201L 229,200L 228,199L 227,198L 226,197L 225,196L 224,195L 223,194L 222,193L 220.002,191L 218.0215,189L 216.1094,187L 214.3438,185L 212.7539,183L 212,182L 211,181L 210,180L 209,179L 208,178L 207,177L 206,176L 205,175L 204,174L 203,173L 202,172L 200.001,170L 199.0024,169L 197.0352,167ZM 189.8413,358.4954L 190.0186,357.279L 190.3018,356.0674L 190.6851,354.868L 191.1594,353.6877L 191.7156,352.5315L 192.3451,351.4011L 193.0399,350.2961L 193.7925,349.2141L 194.5953,348.1519L 195.4407,347.106L 196.3217,346.0727L 197.2317,345.0492L 198.1646,344.0328L 199.1156,343.0216L 200.0801,342.0141L 201.0549,341.0091L 202.0373,340.0058L 203.025,339.0037L 204.0166,338.0023L 205.011,337.0014L 206.0072,336.0009L 207.0046,335.0005L 208.003,334.0003L 209.0019,333.0002L 210.0012,332.0001L 211.0008,331.0001L 212.0005,330L 213.0003,329L 214.0002,328L 215.0001,327L 216.0001,326L 217,325L 218,324L 219,323L 220,322L 221,321L 223,319L 225,317L 227,315L 229,313L 231,311L 231.8145,310L 232.6476,309L 233.5034,308L 234.3833,307L 235.2863,306L 236.21,305L 237.1516,304L 238.1078,303L 239.0755,302L 240.0522,301L 241.0357,300L 242.0241,299L 243.0161,298L 244.0107,297L 246.0033,295L 247.0021,294L 248.0003,293.0039L 249.0006,292.0283L 250.0102,291.106L 251.0376,290.2805L 252.0883,289.5968L 253.1622,289.0912L 254.2546,288.7861L 255.3577,288.6879L 256.4632,288.7894L 257.5641,289.073L 258.6553,289.5154L 259.7341,290.0908L 260.7993,290.7739L 261.8517,291.5417L 262.8924,292.3744L 263.9233,293.2557L 264.9461,294.1727L 265.9627,295.1155L 266.9746,296.0765L 267.9828,297.0502L 268.9886,298.0326L 269.9925,299.0211L 270.9951,300.0135L 271.9968,301.0086L 272.998,302.0054L 273.9987,303.0034L 274.9992,304.0021L 275.9995,305.0013L 276.9997,306.0008L 277.9998,307.0005L 278.9999,308.0003L 280.998,310.0001L 282.9785,312L 284.8906,314L 286.6562,316L 288.2461,318L 289,319L 290,320L 291,321L 292,322L 293,323L 294,324L 295,325L 296,326L 297,327L 298,328L 299,329L 300,330L 301,331L 302,332L 303,333L 304,334L 305,335L 306,336L 307,337L 308,338L 309,339L 310,340L 311.998,342L 313.9785,344L 315.8906,346L 316.7725,347L 318.4341,349.0039L 319.8828,351.0391L 320.4802,352.1094L 321.4934,354.3438L 321.7832,355.5488L 322.1001,358L 322.0039,359.2256L 321.8002,360.4189L 321.2054,362.7312L 320.7402,363.8087L 319.6666,365.8762L 318.9907,366.8125L 317.5082,368.5639L 315.7678,370.0488L 314.7644,370.6318L 313.6903,371.1157L 312.5501,371.4877L 311.354,371.7368L 310.1165,371.8548L 308.8543,371.8375L 307.5842,371.6849L 306.321,371.4012L 305.0762,370.9945L 303.8577,370.4762L 301.4813,369.243L 299.2297,367.6736L 297.0908,365.8814L 295.0277,363.9661L 293,362L 292,361.1855L 291,360.3524L 290,359.4966L 289,358.6167L 288.001,357.7137L 287.0083,356.79L 286.0364,355.8484L 285.1157,354.8844L 284.2895,353.8893L 283.6035,352.8579L 283.0955,351.7924L 282.7885,350.7015L 282.6892,349.5967L 282.7903,348.4893L 283.0741,347.3883L 283.9593,345.2099L 285.3765,343.0893L 287.1225,341.0286L 289.0312,339.0064L 291,337L 291.7686,336L 293.3491,334L 295,332L 295,331L 294,330L 293,329L 292,328L 291,327.1855L 290,326.3524L 289,325.4966L 288,324.6167L 287,323.7137L 286,322.79L 285,321.8484L 284,320.8922L 283,319.9245L 281,317.971L 279,315.9906L 277,313.9975L 275,311.9995L 273,310L 270,310L 269,311L 268,312L 267,313L 266,314L 265,315L 264,316L 262.9976,316.9858L 261.9855,317.9241L 260.9555,318.7679L 259.9025,319.4689L 258.8269,319.9876L 257.7338,320.3L 255.5282,320.4989L 253.3162,319.8786L 251.1516,318.5903L 249.0537,316.8861L 247,315L 245,313.4224L 243,311.7556L 241,310L 239,310L 238,311L 237,312L 235,313.998L 233,315.9785L 231,317.8906L 229,319.6563L 227,321.2461L 226,322L 225,323L 224,324L 223,325L 222,326L 221,327L 220,328L 219,329L 218,330L 217,331L 217,332L 218.334,334L 219,335L 221,337L 222,338L 223,339L 223.998,340L 224.9854,341L 225.9419,342L 226.8362,343L 227.6298,344L 228.2844,345L 228.7688,346L 229.0633,347L 229.1615,348L 229.0688,349L 228.7999,350L 228.3754,351L 227.8188,352L 227.1536,353L 226.4017,354L 225.5825,355L 224.7122,356L 222.8955,358L 220.9677,360L 218.9917,362L 216.9983,364L 215,366L 214.2119,366.8232L 212.5789,368.416L 210.7899,369.8618L 209.7798,370.4657L 208.7011,370.9772L 206.414,371.7786L 205.1597,371.9294L 203.877,371.9402L 201.2941,371.6952L 200.0275,371.3287L 197.6004,370.4003L 196.5203,369.7573L 194.5228,368.3083L 192.8441,366.5296L 191.4774,364.4387L 190.4649,362.1234L 189.7656,359.7109Z" style="fill:rgb(0,0,0);"/>
<path d="M 304,235L 304,237L 305,238L 306.998,240L 308.9785,242L 310.8906,244L 312.6563,246L 314.2461,248L 315,249L 315.968,250L 316.8914,251L 317.7342,252L 318.4581,253.0605L 319.5679,255.291L 319.8478,257.5781L 319.177,259.5938L 317.806,261.2461L 317,262L 316,263L 315,264L 314,265L 313,266L 312,267L 311,268L 310,269L 309,270L 308,271L 307,272L 306,273L 305,274L 304,275L 304,277L 305,278L 306,279L 307,280L 308,281L 309,282L 310,283L 311,284L 312,285L 313,286L 314,287L 315,288L 316,289L 317,290L 318,290.8036L 320,292.4545L 322,294.2096L 324,296.0726L 326,298L 328,298L 329,297L 330,296L 332,294.002L 334,292.0215L 336,290.1094L 338,288.3438L 340,286.7539L 341,286L 343.1055,284.4766L 345.2524,283.4312L 347.3911,283.2065L 349.3877,283.876L 350.2766,284.5437L 351.1797,285.3247L 352.1105,286.1888L 353.0656,287.1076L 354.038,288.0604L 355.0216,289.0335L 356.0121,290.0184L 357.0067,291.01L 359.0006,293.0008L 360,294L 362,295.5776L 364,297.2444L 366,299L 367,299.666L 369,301L 370,301.666L 372,303L 374,304L 376,305L 377.2656,305.5L 379.7656,306.5L 381,307L 383.668,307.666L 385,308L 387.668,308.666L 389,309L 409,309L 410.332,308.666L 413,308L 414.332,307.666L 417,307L 419,306L 421,305L 423,304L 425,303L 427,302L 428,301L 429,300L 430,299L 431,298L 432,297L 433,296L 434,295L 435,294L 436,293L 437,292L 438,291L 438.666,290L 440,288L 441,286L 442,284L 443,282L 444,280L 445,277L 446,274L 446.2344,272.7344L 446.7344,270.2344L 447,269L 447.2344,267.7344L 447.7344,265.2344L 448,264L 448,248L 447.7344,246.7656L 447.2344,244.2656L 447,243L 446.666,241.668L 446,239L 445,236L 444,233L 443,231L 442,229L 441,227L 440,225L 439,223L 438.2344,222L 436.7344,220L 436,219L 435,218L 434,217L 433,216L 432,215L 431,214L 430,213L 429,212L 428,211.334L 426,210L 424,209L 422,208L 420,207L 418,206L 415,205L 412,204L 410.7344,203.7656L 408.2344,203.2656L 407,203L 391,203L 389.7656,203.2656L 387.2656,203.7656L 386,204L 384.668,204.334L 382,205L 379,206L 377,207L 375,208L 373,209L 371,210L 369,211.334L 368,212L 367,212.7656L 365,214.2656L 364,215L 363,216L 362,217L 361,218L 360,219L 359,220L 358,221L 357,222L 356,222.999L 355,223.9917L 353,225.9375L 352,226.8252L 351,227.6096L 350,228.2542L 349,228.7295L 348,229.0175L 347,229.1124L 346,229.0197L 345,228.7535L 344,228.3337L 343,227.7827L 342,227.1235L 341,226.3775L 340,225.5635L 338,223.8317L 336,221.9446L 334,219.9848L 332,217.9967L 330,216L 329,215.334L 327,214L 326,214L 325,215L 324,216L 323,217L 322,218L 321,219L 320,220L 319,221L 318,222L 317,223L 316,224L 315,225L 313,226.998L 311,228.9785L 309,230.8906L 307,232.6563L 305,234.2461ZM 371.0309,256.8254L 371.6097,255.6662L 372.2472,254.5262L 373.6453,252.2904L 375.2788,250.1559L 377.0982,248.1613L 379.0273,246.3598L 381.0049,244.7571L 382,244L 383,243.2363L 384,242.4985L 386.0039,241.084L 388.0391,239.8081L 389.1094,239.2561L 391.3438,238.2493L 392.5557,237.8477L 393.8071,237.5095L 396.3726,236.9877L 399.0278,236.8254L 400.3606,236.9591L 402.981,237.4358L 405.4551,238.2871L 406.5676,238.8534L 407.6027,239.4732L 409.522,240.8185L 410.342,241.5965L 411.8677,243.2551L 413.1808,245.117L 413.7377,246.1561L 414.7501,248.3522L 415.554,250.7683L 415.8296,252.057L 416.0187,253.3659L 416.115,254.6886L 416.1219,257.3528L 415.9458,258.6967L 415.6883,260.0372L 415.3547,261.3655L 414.9501,262.6716L 414.0074,265.2193L 413.4085,266.4101L 412.0892,268.6735L 411.3014,269.6722L 409.578,271.5145L 408.5603,272.2765L 406.3622,273.6345L 405.108,274.139L 403.7918,274.543L 401.0667,275.1345L 399.6468,275.2053L 396.8217,275.1264L 395.4549,274.8886L 392.8154,274.269L 390.3781,273.4138L 389.2578,272.905L 388.1723,272.3616L 386.054,271.2069L 384.0122,269.9174L 383.007,269.2094L 382.004,268.4787L 381.0022,267.7281L 380.0013,266.9562L 378.0021,265.3646L 376.0195,263.6674L 374.0898,261.8568L 372.2539,259.9533L 370.5,258Z" style="fill:rgb(0,0,0);"/>
<path d="M 0,0L 0,512L 512,512L 512,0ZM 64.7559,261.5508L 64.3652,258.582L 64.2188,255.5L 64.3652,252.418L 64.5605,250.9336L 64.7739,249.5088L 65.001,248.1426L 65.245,246.8142L 65.5109,245.5002L 66.0949,242.8666L 66.4447,241.5275L 67.2048,238.8291L 67.6394,237.4868L 68.5466,234.866L 69.5132,232.4102L 70.5212,230.1494L 71.59,228.0388L 72.7539,226.0063L 73.377,225.0032L 74.0052,224.0016L 74.6535,223.0008L 75.3336,222.0004L 76.0531,221.0002L 77.5769,219.002L 78.4229,218.0117L 80.1863,216.0664L 82.068,214.2383L 83.044,213.4263L 85.0327,211.9126L 87.1403,210.5732L 88.2862,209.9482L 90.6565,208.7319L 93.1441,207.6055L 94.4221,207.1074L 97.0125,206.1846L 99.6868,205.4043L 102.4941,204.7607L 105.4697,204.2363L 107,204L 110.0547,203.5703L 113.2344,203.3359L 116.4434,203.4092L 117.9785,203.5869L 119.438,203.7893L 120.8262,204.0098L 122.1639,204.2499L 124.7723,204.7773L 127.2754,205.4121L 128.4795,205.7886L 129.6772,206.1943L 130.8772,206.6266L 133.2725,207.5358L 135.6206,208.5239L 136.7373,209.0569L 138.9077,210.1719L 139.9426,210.7778L 140.9648,211.4048L 141.9787,212.0524L 142.9873,212.723L 143.9925,213.4206L 144.9956,214.1494L 145.9974,214.9124L 146.9985,215.7108L 147.9991,216.5436L 148.9995,217.4086L 149.9997,218.302L 151.998,220.1374L 153.9785,222.0531L 155.8906,224.017L 157.6563,226.0043L 159.2461,228.0007L 160,229L 161,230L 162,231L 163,232L 164,233L 166,233L 167,232L 168,231L 169,230L 170,229L 171,228L 172,227L 173,226L 174,225L 175,224L 176,223.001L 177,222.0083L 178,221.0364L 179,220.111L 180,219.267L 181,218.5429L 182,217.9734L 183,217.5839L 184,217.3876L 185,217.3848L 186,217.5657L 187,217.9124L 188,218.4029L 190,219.6248L 192,221.237L 194,223.0747L 196,225.0185L 198,227L 198.9121,227.7739L 200.6582,229.3813L 201.4521,230.2444L 202.2095,231.1143L 202.9001,231.9953L 203.482,232.8975L 203.8751,233.9585L 204.0512,235.1148L 204.0125,236.2969L 203.7776,237.4654L 202.9673,239.7445L 201.5899,241.9002L 199.8641,243.9626L 197.9647,245.9877L 196,248L 194.3928,250L 192.6992,252L 190.8889,254L 189,256L 189,257L 190,258L 191,259L 192,260L 193,261L 194,262L 195,263L 196,264L 197,265L 198,266L 199,267L 200,268L 201,269L 202,270L 202.8154,270.885L 203.5261,271.8003L 204.6523,273.6961L 205.0676,275.6974L 204.6487,277.703L 203.5002,279.5651L 201.8853,281.2212L 201,282L 200,283L 199,284L 198,285L 197,286L 196,287L 195,288L 193.999,289L 192.9937,289.9961L 191.9783,290.9746L 189.918,292.8438L 187.7983,294.3906L 185.5607,295.207L 184.3804,295.0645L 183.2293,294.6802L 182.1221,294.1133L 181.055,293.4126L 180.0174,292.6161L 178.999,291.7523L 177.9917,290.8421L 176.9901,289.9005L 175.991,288.938L 174.9929,287.9617L 173.9947,286.9766L 172.9963,285.9858L 171.9975,284.9915L 169.9992,282.9983L 167.9998,280.9998L 166,279L 164,279L 163.2578,280L 162.5067,281L 161.7441,282L 160.9653,283L 160.1655,284L 159.3411,285L 158.4902,286L 156.7361,287.998L 154.8846,289.9785L 152.9586,291.8906L 150.9882,293.6563L 148.9978,295.2461L 148,296L 146,297.6758L 145,298.4478L 143,299.9072L 142,300.5588L 140,301.7981L 137.9961,302.9265L 136.9785,303.4536L 134.8945,304.4868L 132.6836,305.4768L 130.3223,306.3905L 127.8418,307.1563L 126.5654,307.4512L 125.2417,307.7305L 122.4512,308.251L 120.8975,308.4536L 117.6602,308.7715L 114.2559,308.9131L 110.8516,308.8789L 107.5762,308.6533L 106.043,308.4355L 103.0703,307.9063L 101.6528,307.5583L 98.855,306.7981L 97.501,306.3623L 94.8672,305.4517L 92.4102,304.4692L 91.2798,303.9388L 90.187,303.3808L 89.1227,302.7912L 88.0792,302.1665L 87.0504,301.5033L 86.0316,300.7995L 85.0196,300.0539L 83.0064,298.481L 81.0222,296.7541L 80.0658,295.8284L 78.2266,293.9359L 76.5557,291.9808L 75.0566,289.9917L 73.6797,287.9603L 72.3828,285.8203L 71.7754,284.664L 70.6084,282.2813L 69.5298,279.7852L 68.5229,277.1953L 68.0564,275.8516L 67.1738,273.1338L 66.4033,270.3652L 65.7607,267.5166L 65.2363,264.5313L 64.7156,261.0203ZM 164.7607,183L 163.2744,181L 162.5811,180L 161.2668,177.9961L 160.6796,176.9785L 159.5593,174.8926L 158.5325,172.666L 158.0621,171.459L 157.1748,168.9609L 156.7901,167.6338L 156.0957,164.8887L 155.5854,161.9302L 155.3369,158.7651L 155.374,157.1609L 155.6025,154.0313L 156.1001,151.085L 156.792,148.3184L 157.6338,145.6777L 158.1282,144.395L 159.1833,141.8569L 160.3362,139.4097L 160.9314,138.2686L 161.5344,137.1708L 162.7679,135.0411L 164.0796,133.0046L 164.7891,132.0023L 165.5205,131.0012L 166.2715,130.0006L 167.0436,129.0003L 168.6354,127.002L 170.3326,125.0215L 172.1434,123.1094L 174.0488,121.3438L 176.0104,119.7539L 177,119L 178,118.2363L 179,117.4985L 181,116.082L 182,115.4353L 184.0039,114.2014L 185.0215,113.6375L 187.1113,112.5464L 188.2383,112.0288L 189.4209,111.5196L 191.8779,110.5252L 194.4648,109.6099L 197.0859,108.8438L 199.6973,108.2539L 202.3594,107.7734L 205.1094,107.4531L 207.8906,107.4531L 209.2656,107.6133L 210.6172,107.8066L 211.9453,108.0303L 214.5576,108.5488L 215.8198,108.8877L 218.2925,109.6479L 220.646,110.5581L 221.7544,111.0771L 223.9126,112.1753L 224.9453,112.7797L 225.9663,113.4058L 226.9795,114.0529L 227.9877,114.7232L 228.9927,115.4207L 229.9957,116.1495L 230.9975,116.9125L 231.9985,117.7108L 232.9992,118.5436L 233.9995,119.4086L 234.9997,120.302L 235.9998,121.2197L 236.9999,122.1575L 238,123.1113L 239,124.0776L 240,125.0535L 241,126.0364L 242,127.0246L 243,128.0164L 244,129.0108L 245,130.0071L 247,132.0021L 249,134.0005L 251,136.0001L 253,138L 255,140L 257,140L 258,139L 259,138L 260,137L 261,136L 262,135L 263,134L 264,133L 265,132L 266,131L 267,130L 268,129L 269,128L 270,127L 271,126L 272,125L 274,123.002L 276,121.0215L 278,119.1094L 280,117.3457L 281,116.564L 282,115.8289L 284.0039,114.4417L 285.0215,113.8218L 287.1113,112.6377L 289.3613,111.5483L 291.8379,110.5327L 294.5371,109.613L 297.4512,108.8634L 299.0352,108.6036L 300.6089,108.3941L 303.645,108.0752L 305.0447,108.0183L 307.7925,108.0071L 309.1599,108.1031L 311.9277,108.4019L 313.3315,108.6614L 316.1255,109.2864L 317.4866,109.6909L 320.1299,110.5591L 322.5896,111.515L 324.8506,112.5214L 325.9059,113.0557L 326.9417,113.6148L 328.987,114.7886L 330.9982,116.082L 331.999,116.7903L 332.9995,117.5211L 333.9997,118.2719L 334.9999,119.0437L 335.9999,119.8395L 337.998,121.484L 339.9785,123.2381L 341.8906,125.0962L 343.6563,127.0307L 344.4512,128.0185L 345.2236,129.0108L 346.7236,131.0016L 347.418,132.0008L 348.7332,134L 349.3204,135L 349.8815,136L 350.9648,138.0039L 351.4787,139.0215L 352.4939,141.1074L 353.4799,143.334L 353.945,144.541L 354.8262,147.0391L 355.2104,148.3662L 355.9043,151.1113L 356.4146,154.0698L 356.6631,157.2349L 356.626,158.8391L 356.3975,161.9688L 356.1487,163.4419L 355.5549,166.2954L 355.1764,167.6345L 354.3602,170.2249L 353.4341,172.6328L 352.9165,173.7485L 352.3681,174.8313L 351.2077,176.9465L 349.9175,178.9878L 349.2095,179.993L 348.4787,180.996L 347.7281,181.9978L 346.9562,182.9987L 346.1604,183.9993L 345.3382,184.9996L 344.4886,185.9998L 343.6122,186.9999L 342.7113,187.9999L 341.7886,189L 340.8477,190L 339.8918,191L 338.9243,192L 337.9476,193L 335.9808,195L 333.9941,197L 331.9985,199L 329.9997,201L 328,203L 327.1855,204L 326.3524,205L 325.4966,206L 324.6167,207L 323.7137,208L 322.79,209L 321.8484,210L 320.8922,211L 319.9245,212L 318.9478,213L 317.9643,214L 316.9759,215L 315.9839,216L 314.9893,217L 313.993,218L 312.9954,219L 311.9971,220L 310.9981,221L 309.9988,222L 308.9992,223L 307.9995,224L 306.9997,225L 305.9998,226L 304.9999,227L 303,229L 301,231L 299,233L 297,235L 295,237L 294.1855,238L 293.3524,239L 292.4966,240L 291.6167,241L 290.7137,242L 289.79,243L 288.8484,244L 287.8922,245L 285.9567,247L 283.9854,249L 281.9959,251L 279.9991,253L 278,255L 278,257L 279,259L 280,260L 281,261L 282,262L 283,263L 284,264L 285,265L 286,266L 287,267L 288,268L 289,269L 290,270L 291,271L 292,272L 293,273L 294,274L 295,275L 296,276L 297,277L 298,278L 299,279L 300,280L 301,281L 302,282L 303,283L 304,284L 305,285L 306,286L 307,287L 308,288L 309,289L 310,290L 311,291L 312,292L 313,293L 314.998,295L 316.9785,297L 318.8906,299L 320.6563,301L 322.2461,303L 323,304L 324,305L 325,306L 326,307L 327,308L 328,309L 329,310L 330,311L 331,312L 332,313L 333,314L 334,315L 335,316L 336,317L 337,318L 338,319L 339.998,321L 341.9785,323L 343.8906,325L 344.7734,326L 346.4443,328L 347.1938,329L 347.9141,330L 348.6106,331L 349.9598,333L 351.2181,335.0039L 352.3669,337.0391L 353.3774,339.1797L 353.8088,340.3438L 354.5994,342.7402L 355.2449,345.2207L 355.5052,346.4775L 355.7604,347.7817L 356.2344,350.5117L 356.5469,353.4688L 356.5449,356.5313L 356.3706,358.0244L 355.8945,360.9453L 355.552,362.356L 355.1748,363.751L 354.3601,366.4995L 353.4341,369.1328L 352.3989,371.5903L 351.2444,373.8569L 350.6222,374.9285L 350.0172,375.9642L 348.7852,378L 348.1187,379L 347.4188,380L 346.6898,381L 345.9324,382L 345.1459,383L 344.3295,384L 343.4834,385L 341.735,386.998L 339.8846,388.9785L 338.9216,389.9346L 336.9734,391.7734L 334.9928,393.4443L 333.9957,394.1938L 332.9974,394.9141L 331.9985,395.6106L 329.9997,396.9598L 328.9999,397.59L 326.9961,398.8033L 325.9785,399.3651L 323.8926,400.4518L 321.666,401.4692L 320.459,401.9388L 317.9609,402.8253L 315.3145,403.5947L 312.5293,404.2158L 309.5811,404.6328L 306.5,404.7813L 304.959,404.707L 301.9404,404.4243L 300.5005,404.1648L 297.6909,403.5579L 296.3579,403.178L 293.7744,402.3623L 291.3672,401.4517L 289.1357,400.4692L 288.0859,399.9388L 286.0211,398.8228L 284.0033,397.581L 282.0002,396.1895L 280,394.6465L 278,393L 276.0215,391.3928L 274.1094,389.6983L 272.3438,387.8825L 270.7539,385.9722L 270,385L 269,384.1855L 267,382.5193L 265,380.7621L 263,378.9039L 261,376.9704L 259,375L 258,374.334L 256,373L 255,373L 253,374.8926L 251,376.6563L 249,378.2461L 248,379L 247,380L 246,381L 245,382L 244,383L 243,384L 242,385L 240.3709,386.998L 238.6677,388.9785L 236.8566,390.8906L 234.9512,392.6563L 232.9896,394.2461L 232,395L 231,395.7637L 228.9961,397.2393L 227.9785,397.918L 225.8887,399.2114L 223.6387,400.3838L 221.166,401.4478L 219.8359,401.926L 217.1328,402.823L 215.7471,403.2087L 212.9214,403.9042L 209.936,404.4146L 206.7656,404.6631L 205.1611,404.626L 202.0313,404.3975L 199.085,403.8999L 196.3223,403.21L 195.0151,402.7981L 193.7319,402.3608L 191.1963,401.4353L 188.7168,400.4001L 186.3152,399.245L 185.1576,398.6225L 184.0788,398.0261L 183.0394,397.4303L 182.0197,396.8191L 181.0098,396.1822L 180.0049,395.5121L 179.0025,394.8043L 178.0012,394.0566L 177.0006,393.2689L 176.0003,392.4433L 174.002,390.723L 172.0215,388.8821L 170.1094,386.9583L 168.3438,384.9882L 167.5488,383.993L 166.0039,381.9989L 164.5479,380L 163.2148,378L 162.6074,377L 161.9922,375.9824L 160.7744,373.8906L 159.6152,371.6387L 158.5522,369.166L 158.074,367.8359L 157.177,365.1328L 156.7913,363.751L 156.0958,360.9565L 155.5854,358.0806L 155.3369,355.1289L 155.4111,352.1934L 155.6025,350.7754L 156.1001,347.9756L 156.4451,346.5952L 156.8236,345.2195L 157.6398,342.4949L 158.5659,339.8667L 159.0835,338.6384L 160.1827,336.2798L 161.4199,334.0941L 162.8106,332.0226L 164.3535,330.0034L 166,328L 166.8145,327L 167.6476,326L 168.5034,325L 169.3833,324L 170.2863,323L 171.21,322L 172.1516,321L 173.1078,320L 174.0755,319L 175.0522,318L 176.0357,317L 177.0241,316L 178.0161,315L 179.0107,314L 180.007,313L 181.0046,312L 182.0029,311L 183.0019,310L 184.0012,309L 185.0008,308L 186.0005,307L 187.0003,306L 188.0002,305L 189.0001,304L 190.0001,303L 192,301L 194,299L 196,297L 198,295L 200,293L 200.8145,292L 201.6476,291L 202.5034,290L 203.3833,289L 204.2863,288L 205.21,287L 206.1516,286L 207.1078,285L 208.0755,284L 209.0522,283L 210.0357,282L 211.0241,281L 212.0161,280L 213.0107,279L 214.007,278L 215.0046,277L 216.0029,276L 217.0019,275L 218.0012,274L 219.0008,273L 220.0005,272L 221.0003,271L 222.0002,270L 223.0001,269L 224.0001,268L 225,267L 227,265L 229,263L 231,261L 233,259L 235,257L 235,256L 234.2344,255L 232.7344,253L 232,252L 231,251L 230,250L 229,249L 228,248L 227,247L 226,246L 225,245L 224,244L 223,243L 222,242L 221,241L 220,240L 219,239L 218,238L 217,237L 216,236L 215,235L 214,234L 213,233L 212,232L 211,231L 210,230L 209,229L 208,228L 207,227L 206,226L 204.002,224L 202.0215,222L 200.1094,220L 198.3438,218L 196.7539,216L 196,215L 195.2344,214.2656L 193.7344,212.7656L 193,212L 192,211L 191,210L 190,209L 189,208L 188,207L 187,206L 186,205L 185,204L 184,203L 183,202L 182,201L 181,200L 180,199L 179,198L 178,197L 177,196L 176,195L 175,194L 173.001,192L 171.0117,190L 169.0654,188L 168.1392,187L 166.3672,185L 164.3979,182.5ZM 360.002,292.3709L 358.0215,290.6677L 356.1094,288.8566L 354.3438,286.9512L 352.7539,284.9896L 352,284L 350.3223,282L 348.752,280L 348,279L 347,279L 346,279.9805L 344,281.8906L 342,283.6563L 340,285.2461L 339,286L 338,287L 337,288L 336,288.999L 335,289.9917L 334,290.9636L 333,291.889L 332,292.733L 331,293.4571L 330,294.0266L 329,294.4161L 327,294.8088L 325,294.427L 323,293.3524L 321,291.7942L 319,290L 318,289.1855L 317,288.3524L 316,287.4966L 315,286.6167L 314,285.7137L 313.001,284.79L 312.0083,283.8484L 311.0364,282.8922L 310.1157,281.9167L 309.2895,280.9126L 308.6035,279.8745L 308.0955,278.804L 307.7885,277.7095L 307.6892,276.6021L 307.7903,275.493L 308.0741,274.3907L 308.5167,273.3007L 309.0923,272.2254L 310.4587,270.1065L 312.1635,268.0598L 314.0484,266.12L 316.0115,264.3458L 318.0019,262.7542L 319,262L 320,261L 321,260L 322,259L 323,258L 323,256L 321.0215,254L 319.1094,252L 317.3438,250L 315.7539,248L 315,247L 314,246L 313.001,245L 312.0103,244L 311.0471,243L 310.1437,242L 309.34,241L 308.6764,240L 308.1854,239L 307.8876,238L 307.7894,237L 307.8848,236L 308.1584,235L 308.5886,234L 309.1512,233L 309.8222,232L 310.5792,231L 311.4029,230L 312.2768,229L 313.1881,228L 314.1265,227L 315.0842,226L 316.0555,225L 317.0363,224L 318.0235,223.002L 319.0151,222.0146L 321.0042,220.0996L 322.0026,219.2588L 323.0016,218.5439L 324.001,217.988L 325.0006,217.6134L 326.2504,217.5263L 327.5002,217.6659L 328.6876,217.9905L 329.8126,218.4668L 330.8907,219.0668L 331.9375,219.7659L 332.9649,220.543L 333.9805,221.3804L 335.998,223.1465L 338,225.0485L 340,227.0135L 342,229.003L 344,231L 346,232L 348,232L 349,231L 350,230L 351,229L 352,228L 353,227L 354,226L 355,225L 357,223.002L 359,221.0215L 361,219.1094L 363,217.3438L 365,215.7539L 366,215L 367,214.2363L 368,213.4985L 370,212.082L 371,211.4353L 373.0039,210.2014L 374.0215,209.6375L 376.1074,208.5483L 378.334,207.5308L 380.748,206.5916L 382.0381,206.1728L 384.6318,205.3975L 387.2021,204.7549L 389.7344,204.2344L 392.5039,203.7559L 395.6445,203.3652L 399,203.2188L 402.3555,203.3652L 403.9258,203.5605L 405.4082,203.7808L 408.2383,204.2681L 409.5713,204.5696L 412.2305,205.25L 413.5486,205.6643L 416.1375,206.5471L 418.5862,207.5105L 420.8489,208.5203L 421.9049,209.0551L 422.9411,209.6157L 423.964,210.2068L 424.9783,210.8324L 425.987,211.496L 427.9957,212.9044L 429.9782,214.4789L 431.8906,216.2138L 433.6563,218.0766L 434.4512,219.0468L 435.2236,220.0277L 436.7236,222.0043L 437.418,223.0021L 438.7332,225L 439.9077,227.0039L 440.4426,228.0215L 441.4871,230.1113L 442.4962,232.3613L 443.4803,234.834L 444.4102,237.4941L 444.8281,238.8672L 445.6025,241.5801L 446.2451,244.1943L 446.7656,246.7344L 447.2441,249.5039L 447.6348,252.6445L 447.7813,256L 447.6348,259.3555L 447.4395,260.9258L 447.2261,262.4072L 446.772,265.21L 446.2656,267.7656L 446,269L 445.7324,270.293L 445.4307,271.5986L 444.75,274.2305L 444.3357,275.5486L 443.4529,278.1375L 442.4895,280.5862L 441.4797,282.8489L 440.9449,283.9049L 440.3843,284.9411L 439.7932,285.964L 439.1676,286.9783L 438.504,287.987L 437.7998,288.9923L 437.0541,289.9955L 436.2675,290.9974L 435.4425,291.9985L 433.723,293.9978L 432.8025,294.9882L 430.9202,296.9336L 429.9467,297.8477L 427.983,299.5732L 426.9893,300.3232L 424.9974,301.7104L 423.9985,302.3074L 421.9958,303.4388L 419.9609,304.4674L 417.8203,305.4083L 416.6562,305.8271L 415.4443,306.2216L 412.9414,306.9707L 410.292,307.646L 407.457,308.2285L 404.3145,308.6533L 400.8242,308.8691L 397.1758,308.8691L 395.4297,308.7617L 392.1094,308.4434L 390.6113,308.1934L 389.1714,307.9138L 386.3857,307.3071L 383.7729,306.6135L 382.5481,306.226L 380.1353,305.3997L 377.748,304.4629L 376.5676,303.9365L 374.2656,302.8281L 373.1777,302.2222L 372.1163,301.5952L 370.033,300.3L 368.0061,298.9131L 366.0005,297.4048L 364,295.7539L 362,294Z" style="fill:rgb(255,255,255);"/>
<path d="M 105,275L 107,276L 118,276L 121,275L 123,274L 125,273L 127,272L 129,271L 131,269.3223L 133,267.752L 134,267L 135,266L 136,265L 137,264L 138,263L 139,262L 140,261L 141,260L 141.666,259L 143,257L 143,255L 142,254L 141,253L 140,252L 139,251L 138,250L 137,249L 136,248L 135,247L 134,246L 133,245L 132,244L 131,243L 130,242.334L 128,241L 127,240.334L 125,239L 123,238L 120,237L 117,236L 110,236L 107,237L 104,238L 102,239.334L 101,240L 100,241L 99.334,242L 98,244L 97,246L 96,248L 95.7656,249.2656L 95.2656,251.7656L 95,253L 95,259L 95.2656,260.2344L 95.7656,262.7344L 96,264L 97,267L 98.334,269L 99,270L 100,271L 101,272L 102,273L 103,274Z" style="fill:rgb(255,255,255);"/>
<path d="M 258,227L 259,226L 260,225L 261,224L 261.8145,223L 262.6476,222L 263.5034,221L 264.3833,220L 265.2863,219L 266.21,218L 267.1516,217L 268.1078,216L 269.0755,215L 270.0522,214L 271.0357,213L 272.0241,212L 273.0161,211L 274.0107,210L 275.007,209L 276.0046,208L 277.0029,207L 278.0019,206L 279.0012,205L 280.0008,204L 281.0005,203L 282.0003,202L 283.0002,201L 284.0001,200L 285.0001,199L 286,198L 287,197L 288,196L 289,195L 290,194L 291,193L 293,191L 295,189L 297,187L 299,185L 301,183L 301.8145,182L 302.6476,181L 303.5034,180L 304.3833,179L 305.2863,178L 306.21,177L 307.1516,176L 308.1078,175L 309.0755,174L 310.0522,173L 311.0357,172L 313.0125,170L 315.0037,168L 317.0009,166L 319.0002,164L 321,162L 322,160L 323,157L 323,150L 322,148L 321,146L 320,145L 319,144L 318,143L 317,142L 316,141.334L 314,140L 311,139L 305,139L 303,140L 301,141L 300,142L 299,143L 298,144L 297,145L 296,146L 295,147L 294,148L 293,149L 292,150L 291,151L 290,152L 289,153L 288,154L 287,155L 286,156L 285,157L 283.4224,159L 281.7556,161L 280,163L 280,165L 280.7656,166L 282.2656,168L 283,169L 284,170L 285,171L 285.998,172L 286.9854,173L 287.9419,174L 288.8362,175L 289.6298,176L 290.2844,177L 290.7688,178L 291.0633,179L 291.1615,180L 291.0688,181L 290.7999,182L 290.3754,183L 289.8188,184L 289.1536,185L 288.4017,186L 287.5825,187L 286.7122,188L 285.8038,189L 284.8677,190L 282.9557,191.998L 280.9874,193.9785L 279.9922,194.9346L 278.9952,195.8511L 277.9971,196.7119L 276.9982,197.4951L 275.9989,198.1733L 274.9994,198.7179L 273.9996,199.1041L 272.9998,199.3157L 271.9999,199.3468L 270.9999,199.2018L 270,198.8935L 269,198.4401L 268,197.8628L 267,197.183L 265,195.6594L 263,193.8792L 261,191.9645L 259,189.9918L 257,188L 256,188L 254,189.334L 253,190L 252,191L 251,192L 249.999,193L 248.9937,193.9961L 247.9783,194.9746L 246.9471,195.9092L 245.8968,196.7632L 244.8273,197.4963L 243.7422,198.0724L 242.6473,198.4651L 241.5491,198.6615L 240.4536,198.6615L 239.3655,198.4761L 238.2878,198.1237L 237.2217,197.6271L 236.1674,197.0104L 235.1241,196.2967L 234.0904,195.5067L 232.0393,193.8099L 230.0143,191.9377L 228.0043,189.9831L 226.001,187.9964L 224,186L 223.1038,185.1679L 222.2973,184.2988L 221.6269,183.3839L 220.6324,181.4647L 220.4215,179.4066L 221.0528,177.3428L 222.3646,175.4451L 224.0791,173.7787L 225,173L 226,172L 227,171L 228,170L 229,169L 230,168L 231,167L 232,166L 233,165L 233,164L 231.1074,162L 229.3438,160L 227.7539,158L 227,157L 226,156L 225,155L 224,154L 223,153L 222,152L 221,151L 220,150L 219,149L 218,148L 217,147L 216,146L 215,145L 214,144L 213,143L 212,142L 211,141L 209,140L 206,139L 201,139L 198,140L 196,141L 195,142L 194,143L 193,144L 192,145L 191,146L 190,148L 189,150L 189,158L 190,160L 191,162L 192,163L 193,164L 194,165L 195,166L 196,167L 197,168L 198,169L 199,170L 200,171L 201,172L 202,173L 203.998,175L 205.9785,177L 207.8906,179L 209.6563,181L 211.2461,183L 212,184L 213,185L 214,186L 215,187L 216,188L 217,189L 218,190L 219,191L 220,192L 221,193L 222,194L 223,195L 224,196L 225,197L 226,198L 227,199L 228,200L 229,201L 230,202L 231,203L 232,204L 233,205L 234,206L 235,207L 236,208L 237,209L 238,210L 239,211L 240,212L 241.998,214L 243.9785,216L 245.8906,218L 247.6563,220L 249.2461,222L 250,223L 251,224L 252,225L 253,226L 254,227L 255,228L 257,228Z" style="fill:rgb(255,255,255);"/>
<path d="M 195,370.666L 197,372L 200,373L 208,373L 210,372L 212,370.666L 213,370L 214,369L 215,368L 215.8145,367L 216.6476,366L 217.5034,365L 218.3833,364L 219.2863,363L 220.21,362L 221.1516,361L 222.1078,360L 223.0755,359L 225.029,357L 227.0094,355L 229.0025,353L 231.0005,351L 233,349L 233,348L 232,347L 231,346L 229.002,344L 227.0215,342L 225.1094,340L 224.2266,339L 223.3965,338L 222.6333,337L 221.9617,336L 221.4118,335L 221.012,334L 220.7826,333L 220.7327,332L 220.9873,330.002L 221.9049,328.0215L 223.3424,326.1094L 225.1037,324.3438L 227.0203,322.7539L 228,322L 229,321L 230,320L 231,319.001L 232,318.0083L 233,317.0364L 234,316.111L 235,315.267L 237,313.8188L 239,312.9885L 241,312.9729L 242,313.3587L 243,313.8754L 244,314.4884L 245,315.1738L 246,315.9166L 248,317.4971L 250,319.2391L 252,321.0961L 254,323.0296L 256,325L 257,325L 258,324L 259,323L 259.8145,322L 260.6476,321L 261.5034,320L 262.3843,319L 263.2926,318.0039L 264.2318,317.0254L 265.2044,316.0908L 266.211,315.2368L 267.2482,314.5037L 268.31,313.9276L 269.3884,313.5349L 270.475,313.3385L 271.5625,313.3385L 272.6451,313.5239L 273.7192,313.8763L 274.7829,314.3729L 275.8355,314.9896L 276.8778,315.7033L 277.9108,316.4933L 278.9359,317.3417L 279.9547,318.2339L 281.9821,320.0829L 283.994,322.025L 285.9984,324.0063L 286.9868,324.9922L 288.8846,326.9329L 289.6774,327.8819L 290.3097,328.8407L 290.7535,329.8176L 290.9983,330.8136L 291.0484,331.8248L 290.9178,332.8458L 290.6259,333.8712L 290.1938,334.8969L 289.6427,335.9204L 288.9925,336.9404L 288.2612,337.9566L 286.6683,339.9815L 284.8693,341.9939L 282.9561,343.9985L 280.9883,345.9997L 279,348L 279,350L 280,351L 281,352L 282,353L 283,354L 284,355L 285,356L 286,357L 287,358L 288,359L 289,360L 290,361L 291,362L 292,362.8145L 294,364.4807L 296,366.2379L 298,368.0961L 300,370.0296L 302,372L 305,373L 313,373L 315,372L 317,371L 318,370L 319,369L 320,368L 321,366L 322,364L 323,362L 323,354L 322,352L 320.666,350L 320,349L 319,348L 318,347L 317,346L 316,345L 315,344L 314,343L 313,342L 312,341L 311,340L 310,339L 309,338L 308,337L 307,336L 306,335L 305,334L 304,333L 303,332L 302,331L 301,330L 300,329L 299,328L 297.002,326L 295.0215,324L 293.1094,322L 291.3438,320L 289.7539,318L 289,317L 288,316L 287,315L 286,314L 285,313L 284,312L 283,311L 282,310L 281,309L 280,308L 279,307L 278,306L 277,305L 276,304L 275,303L 274,302L 273,301L 272,300L 271,299L 270,298L 269,297L 268,296L 267,295L 266,294L 265,293L 264,292L 263,291L 262,290L 261,289L 260,288L 259,287L 258,286L 257,285L 256,284L 255,284L 254,285L 253.1855,286L 252.3524,287L 251.4966,288L 250.6167,289L 249.7137,290L 248.79,291L 247.8484,292L 246.8922,293L 245.9245,294L 244.9478,295L 243.9643,296L 242.9759,297L 241.9839,298L 240.9893,299L 238.9967,301L 236.9991,303L 234.9998,305L 233,307L 231,309L 230.1855,310L 229.3524,311L 228.4966,312L 227.6167,313L 226.7137,314L 225.79,315L 224.8484,316L 223.8922,317L 222.9245,318L 221.9478,319L 220.9643,320L 219.9759,321L 218.9839,322L 217.9893,323L 216.993,324L 215.9954,325L 214.9971,326L 213.9981,327L 212.9988,328L 211.9992,329L 210.9995,330L 209.9997,331L 208.9998,332L 207.9999,333L 206.9999,334L 206,335L 205,336L 204,337L 203,338L 202,339L 200,341L 198,343L 196,345L 194,347L 192,349L 191.334,350L 190,352L 189,355L 189,362L 190,365L 191.334,367L 192,368L 193,369L 194,370Z" style="fill:rgb(255,255,255);"/>
<path d="M 380,268.4844L 382,270L 383,270.666L 385,272L 387,273L 389,274L 391,275L 394,276L 404,276L 407,275L 409,274L 410,273L 411,272L 412,271L 413,270L 413.666,269L 415,267L 416,264L 416.666,261.332L 417,260L 417,252L 416.666,250.668L 416,248L 415,246L 414,244L 412.666,242L 412,241L 411,240L 410,239.334L 408,238L 406,237L 403,236L 395,236L 393.668,236.334L 391,237L 389,238L 387,239L 385,240.334L 384,241L 383,241.7656L 381,243.2656L 380,244L 379,245L 378,246L 377,247L 376,248L 375,249L 374,250L 373,251L 372,252L 371,253L 370,254L 369,255L 369,257L 370,259L 371,260L 372,261L 373,262L 374,263L 375,264L 376,265L 377,266L 378,267Z" style="fill:rgb(255,255,255);"/>
</svg>