<svg viewBox="0 0 55 20" width="220" height="80" xmlns="http://www.w3.org/2000/svg">
  <path d="M8 18V5c0 -0.5 0.4 -0.8 0.9 -0.8c0.5 0 0.9 0.3 0.9 0.8v7.5c0.8 -1 2 -1.8 3.2 -2c1.8 -0.3 3.4 0.5 4 1.8c0.4 -1.4 1.2 -2.6 2.4 -3.6c-1.1 -1 -2.5 -1.5 -4.2 -1.4c-1.3 0 -2.5 0.5 -3.5 1.4l-0.9 -1.3c1.2 -1 2.7 -1.6 4.5 -1.5c2.3 0 4.4 1.2 5.5 3.2c1.1 2 1.4 4.3 0.8 6.5v6c0 0.5 -0.4 0.8 -0.9 0.8c-0.5 0 -0.9 -0.3 -0.9 -0.8v-7c-0.9 1.1 -2 1.9 -3.4 2.1c-1.8 0.3 -3.5 -0.4 -4.7 -1.6v6.5c0 0.5 -0.4 0.8 -0.9 0.8C8.4 18.8 8 18.5 8 18z" fill="#0085d0"/>
  <text x="25" y="14" fill="#0085d0" font-size="11" font-weight="bold" font-family="sans-serif">中国移动</text>
</svg>
