<svg xmlns="http://www.w3.org/2000/svg" width="120" height="120" preserveAspectRatio="xMidYMid meet" viewBox="0 0 48 48">
  <path fill="#cc0000" d="
    M7.5 16.5c0-2.5 2-4.5 4.5-4.5s4.5 2 4.5 4.5c0 1-.3 1.8-1 2.5l-6 6.5c-.7.7-1 1.5-1 2.5s.3 1.8 1 2.5 1.5 1 2.5 1 1.8-.3 2.5-1l3.5-3.8 3.5 3.8c.7.7 1.5 1 2.5 1s1.8-.3 2.5-1c.7-.7 1-1.5 1-2.5s-.3-1.8-1-2.5l-6-6.5c.7-.7 1-1.5 1-2.5 0-2.5 2-4.5 4.5-4.5s4.5 2 4.5 4.5-2 4.5-4.5 4.5c-1 0-1.8-.3-2.5-1l-3.5-3.8-3.5 3.8c-.7.7-1.5 1-2.5 1s-1.8-.3-2.5-1c-.7-.7-1-1.5-1-2.5s.3-1.8 1-2.5l6-6.5c-.7-.7-1-1.5-1-2.5 0-2.5-2-4.5-4.5-4.5s-4.5 2-4.5 4.5c0 1 .3 1.8 1 2.5l6 6.5c-.7.7-1 1.5-1 2.5s.3 1.8 1 2.5l-3.5 3.8-3.5-3.8c-.7-.7-1.5-1-2.5-1s-1.8.3-2.5 1c-.7.7-1 1.5-1 2.5z
  "/>
</svg>
